G04*
G04 #@! TF.GenerationSoftware,Altium Limited,Altium Designer,18.1.6 (161)*
G04*
G04 Layer_Color=2752767*
%FSLAX25Y25*%
%MOIN*%
G70*
G01*
G75*
%ADD139C,0.00267*%
%ADD140C,0.00133*%
D139*
X802200Y422800D02*
G03*
X802200Y422800I-800J0D01*
G01*
X782100Y409000D02*
G03*
X782100Y409000I-800J0D01*
G01*
X777800Y404692D02*
G03*
X777800Y404692I-800J0D01*
G01*
X800300Y391000D02*
G03*
X800300Y391000I-800J0D01*
G01*
X768300Y406000D02*
G03*
X768300Y406000I-800J0D01*
G01*
X779347Y395547D02*
G03*
X779347Y395547I-800J0D01*
G01*
X732800Y464500D02*
G03*
X732800Y464500I-800J0D01*
G01*
X739800D02*
G03*
X739800Y464500I-800J0D01*
G01*
X821300Y442250D02*
G03*
X821300Y442250I-800J0D01*
G01*
X809300D02*
G03*
X809300Y442250I-800J0D01*
G01*
X805800Y334949D02*
G03*
X805800Y334949I-800J0D01*
G01*
X701300Y447500D02*
G03*
X701300Y447500I-800J0D01*
G01*
Y451500D02*
G03*
X701300Y451500I-800J0D01*
G01*
X696800Y447500D02*
G03*
X696800Y447500I-800J0D01*
G01*
Y451500D02*
G03*
X696800Y451500I-800J0D01*
G01*
X692300Y447500D02*
G03*
X692300Y447500I-800J0D01*
G01*
Y451500D02*
G03*
X692300Y451500I-800J0D01*
G01*
X808300Y464000D02*
G03*
X808300Y464000I-800J0D01*
G01*
X811800D02*
G03*
X811800Y464000I-800J0D01*
G01*
X782100Y382426D02*
G03*
X782100Y382426I-800J0D01*
G01*
X775658Y362000D02*
G03*
X775658Y362000I-800J0D01*
G01*
X732300Y404800D02*
G03*
X732300Y404800I-800J0D01*
G01*
X737300Y374500D02*
G03*
X737300Y374500I-800J0D01*
G01*
X775300Y310500D02*
G03*
X775300Y310500I-800J0D01*
G01*
X917800Y394000D02*
G03*
X917800Y394000I-800J0D01*
G01*
Y386500D02*
G03*
X917800Y386500I-800J0D01*
G01*
X910300D02*
G03*
X910300Y386500I-800J0D01*
G01*
X687300Y426811D02*
G03*
X687300Y426811I-800J0D01*
G01*
Y437500D02*
G03*
X687300Y437500I-800J0D01*
G01*
X825800Y287669D02*
G03*
X825800Y287669I-800J0D01*
G01*
X692300Y364500D02*
G03*
X692300Y364500I-800J0D01*
G01*
Y360500D02*
G03*
X692300Y360500I-800J0D01*
G01*
X696300D02*
G03*
X696300Y360500I-800J0D01*
G01*
Y364500D02*
G03*
X696300Y364500I-800J0D01*
G01*
D140*
X801800Y422800D02*
G03*
X801800Y422800I-400J0D01*
G01*
X781700Y409000D02*
G03*
X781700Y409000I-400J0D01*
G01*
X777400Y404692D02*
G03*
X777400Y404692I-400J0D01*
G01*
X799900Y391000D02*
G03*
X799900Y391000I-400J0D01*
G01*
X767900Y406000D02*
G03*
X767900Y406000I-400J0D01*
G01*
X778947Y395547D02*
G03*
X778947Y395547I-400J0D01*
G01*
X732400Y464500D02*
G03*
X732400Y464500I-400J0D01*
G01*
X739400D02*
G03*
X739400Y464500I-400J0D01*
G01*
X820900Y442250D02*
G03*
X820900Y442250I-400J0D01*
G01*
X808900D02*
G03*
X808900Y442250I-400J0D01*
G01*
X805400Y334949D02*
G03*
X805400Y334949I-400J0D01*
G01*
X700900Y447500D02*
G03*
X700900Y447500I-400J0D01*
G01*
Y451500D02*
G03*
X700900Y451500I-400J0D01*
G01*
X696400Y447500D02*
G03*
X696400Y447500I-400J0D01*
G01*
Y451500D02*
G03*
X696400Y451500I-400J0D01*
G01*
X691900Y447500D02*
G03*
X691900Y447500I-400J0D01*
G01*
Y451500D02*
G03*
X691900Y451500I-400J0D01*
G01*
X807900Y464000D02*
G03*
X807900Y464000I-400J0D01*
G01*
X811400D02*
G03*
X811400Y464000I-400J0D01*
G01*
X781700Y382426D02*
G03*
X781700Y382426I-400J0D01*
G01*
X775258Y362000D02*
G03*
X775258Y362000I-400J0D01*
G01*
X731900Y404800D02*
G03*
X731900Y404800I-400J0D01*
G01*
X736900Y374500D02*
G03*
X736900Y374500I-400J0D01*
G01*
X774900Y310500D02*
G03*
X774900Y310500I-400J0D01*
G01*
X917400Y394000D02*
G03*
X917400Y394000I-400J0D01*
G01*
Y386500D02*
G03*
X917400Y386500I-400J0D01*
G01*
X909900D02*
G03*
X909900Y386500I-400J0D01*
G01*
X686900Y426811D02*
G03*
X686900Y426811I-400J0D01*
G01*
Y437500D02*
G03*
X686900Y437500I-400J0D01*
G01*
X825400Y287669D02*
G03*
X825400Y287669I-400J0D01*
G01*
X691900Y364500D02*
G03*
X691900Y364500I-400J0D01*
G01*
Y360500D02*
G03*
X691900Y360500I-400J0D01*
G01*
X695900D02*
G03*
X695900Y360500I-400J0D01*
G01*
Y364500D02*
G03*
X695900Y364500I-400J0D01*
G01*
M02*
