G04*
G04 #@! TF.GenerationSoftware,Altium Limited,Altium Designer,18.1.6 (161)*
G04*
G04 Layer_Physical_Order=4*
G04 Layer_Color=16711680*
%FSLAX25Y25*%
%MOIN*%
G70*
G01*
G75*
G04:AMPARAMS|DCode=25|XSize=60mil|YSize=60mil|CornerRadius=15mil|HoleSize=0mil|Usage=FLASHONLY|Rotation=90.000|XOffset=0mil|YOffset=0mil|HoleType=Round|Shape=RoundedRectangle|*
%AMROUNDEDRECTD25*
21,1,0.06000,0.03000,0,0,90.0*
21,1,0.03000,0.06000,0,0,90.0*
1,1,0.03000,0.01500,0.01500*
1,1,0.03000,0.01500,-0.01500*
1,1,0.03000,-0.01500,-0.01500*
1,1,0.03000,-0.01500,0.01500*
%
%ADD25ROUNDEDRECTD25*%
%ADD26R,0.06000X0.06000*%
%ADD27R,0.03740X0.03937*%
%ADD31R,0.03937X0.03740*%
%ADD32R,0.05906X0.02362*%
%ADD33R,0.03543X0.02362*%
%ADD95C,0.01200*%
%ADD96C,0.02000*%
%ADD99C,0.04000*%
%ADD101R,0.05984X0.05984*%
%ADD102C,0.05984*%
%ADD103C,0.07500*%
%ADD104C,0.05906*%
%ADD105R,0.05906X0.05906*%
%ADD106R,0.05984X0.05984*%
%ADD107C,0.07087*%
%ADD108O,0.08000X0.12000*%
%ADD109O,0.12000X0.08000*%
%ADD110O,0.15000X0.08000*%
%ADD111C,0.15000*%
%ADD112C,0.06299*%
%ADD113R,0.06299X0.06299*%
%ADD114C,0.05118*%
%ADD115C,0.02800*%
%ADD116C,0.02362*%
%ADD117R,0.09843X0.15748*%
%ADD118R,0.01575X0.07874*%
%ADD119R,0.07480X0.07480*%
%ADD120R,0.06142X0.10276*%
%ADD121R,0.03543X0.05315*%
G04:AMPARAMS|DCode=122|XSize=98.43mil|YSize=169.29mil|CornerRadius=24.61mil|HoleSize=0mil|Usage=FLASHONLY|Rotation=180.000|XOffset=0mil|YOffset=0mil|HoleType=Round|Shape=RoundedRectangle|*
%AMROUNDEDRECTD122*
21,1,0.09843,0.12008,0,0,180.0*
21,1,0.04921,0.16929,0,0,180.0*
1,1,0.04921,-0.02461,0.06004*
1,1,0.04921,0.02461,0.06004*
1,1,0.04921,0.02461,-0.06004*
1,1,0.04921,-0.02461,-0.06004*
%
%ADD122ROUNDEDRECTD122*%
%ADD123R,0.04724X0.02362*%
%ADD124C,0.01500*%
G36*
X886772Y467916D02*
X904952D01*
X905173Y467467D01*
X904658Y466796D01*
X904099Y465447D01*
X903909Y464000D01*
X904099Y462553D01*
X904658Y461204D01*
X905546Y460046D01*
X906704Y459158D01*
X908053Y458599D01*
X909500Y458409D01*
X910947Y458599D01*
X912296Y459158D01*
X913453Y460046D01*
X914342Y461204D01*
X914901Y462553D01*
X915091Y464000D01*
X914901Y465447D01*
X914342Y466796D01*
X913827Y467467D01*
X914048Y467916D01*
X974275D01*
X974347Y467434D01*
X972696Y466551D01*
X971250Y465364D01*
X970063Y463918D01*
X969181Y462267D01*
X968637Y460476D01*
X968454Y458614D01*
X968637Y456752D01*
X969181Y454961D01*
X970063Y453311D01*
X971250Y451864D01*
X972696Y450677D01*
X974347Y449795D01*
X976138Y449252D01*
X978000Y449068D01*
X979862Y449252D01*
X981653Y449795D01*
X983304Y450677D01*
X984750Y451864D01*
X985937Y453311D01*
X986819Y454961D01*
X987363Y456752D01*
X987546Y458614D01*
X987363Y460476D01*
X986819Y462267D01*
X985937Y463918D01*
X984750Y465364D01*
X983304Y466551D01*
X981653Y467434D01*
X981725Y467916D01*
X997235D01*
X997374Y467943D01*
X998649Y467775D01*
X999966Y467230D01*
X1001097Y466362D01*
X1001965Y465231D01*
X1002511Y463913D01*
X1002678Y462638D01*
X1002651Y462500D01*
Y439014D01*
X1002151Y438914D01*
X1001868Y439597D01*
X1001043Y440673D01*
X999967Y441498D01*
X998714Y442017D01*
X997370Y442194D01*
X996026Y442017D01*
X994773Y441498D01*
X993697Y440673D01*
X992872Y439597D01*
X992353Y438344D01*
X992176Y437000D01*
X992353Y435656D01*
X992872Y434403D01*
X993697Y433327D01*
X994773Y432502D01*
X995381Y432250D01*
Y431750D01*
X994773Y431498D01*
X993697Y430673D01*
X992872Y429597D01*
X992353Y428344D01*
X992176Y427000D01*
X992353Y425656D01*
X992872Y424403D01*
X993697Y423327D01*
X994773Y422502D01*
X995381Y422250D01*
Y421750D01*
X994773Y421498D01*
X993697Y420673D01*
X992872Y419597D01*
X992353Y418344D01*
X992176Y417000D01*
X992353Y415656D01*
X992872Y414403D01*
X993697Y413327D01*
X994773Y412502D01*
X995381Y412250D01*
Y411750D01*
X994773Y411498D01*
X993697Y410673D01*
X992872Y409597D01*
X992353Y408344D01*
X992176Y407000D01*
X992353Y405656D01*
X992872Y404403D01*
X993697Y403327D01*
X994773Y402502D01*
X995381Y402250D01*
Y401750D01*
X994773Y401498D01*
X993697Y400673D01*
X992872Y399597D01*
X992353Y398344D01*
X992176Y397000D01*
X992353Y395656D01*
X992872Y394403D01*
X993697Y393327D01*
X994773Y392502D01*
X995381Y392250D01*
Y391750D01*
X994773Y391498D01*
X993697Y390673D01*
X992872Y389597D01*
X992353Y388344D01*
X992176Y387000D01*
X992353Y385656D01*
X992872Y384403D01*
X993697Y383327D01*
X994773Y382502D01*
X995381Y382250D01*
Y381750D01*
X994773Y381498D01*
X993697Y380673D01*
X992872Y379597D01*
X992353Y378344D01*
X992176Y377000D01*
X992353Y375656D01*
X992872Y374403D01*
X993697Y373327D01*
X994773Y372502D01*
X995381Y372250D01*
Y371750D01*
X994773Y371498D01*
X993697Y370673D01*
X993675Y370643D01*
X993520Y370495D01*
X993383Y370380D01*
X993255Y370287D01*
X993135Y370214D01*
X993089Y370190D01*
X946257Y417023D01*
X945970Y417715D01*
X945425Y418425D01*
X944715Y418970D01*
X943888Y419312D01*
X943000Y419429D01*
X942112Y419312D01*
X941285Y418970D01*
X940575Y418425D01*
X940030Y417715D01*
X939688Y416888D01*
X939571Y416000D01*
X939688Y415112D01*
X940030Y414285D01*
X940575Y413575D01*
X941285Y413030D01*
X941977Y412744D01*
X989860Y364860D01*
X989860Y364860D01*
X990487Y364380D01*
X991217Y364077D01*
X992000Y363974D01*
X992361D01*
X992408Y363963D01*
X992607Y363954D01*
X992714Y363941D01*
X992816Y363918D01*
X992918Y363886D01*
X993024Y363843D01*
X993135Y363786D01*
X993255Y363713D01*
X993383Y363620D01*
X993520Y363505D01*
X993675Y363357D01*
X993697Y363327D01*
X994773Y362502D01*
X995381Y362250D01*
Y361750D01*
X994773Y361498D01*
X993697Y360673D01*
X992872Y359597D01*
X992353Y358344D01*
X992176Y357000D01*
X992353Y355656D01*
X992872Y354403D01*
X993697Y353327D01*
X994773Y352502D01*
X995381Y352250D01*
Y351750D01*
X994773Y351498D01*
X993697Y350673D01*
X992872Y349597D01*
X992353Y348344D01*
X992176Y347000D01*
X992353Y345656D01*
X992872Y344403D01*
X993697Y343327D01*
X994773Y342502D01*
X995381Y342250D01*
Y341750D01*
X994773Y341498D01*
X993697Y340673D01*
X992872Y339597D01*
X992353Y338344D01*
X992176Y337000D01*
X992353Y335656D01*
X992872Y334403D01*
X993697Y333327D01*
X994773Y332502D01*
X995381Y332250D01*
Y331750D01*
X994773Y331498D01*
X993697Y330673D01*
X992872Y329597D01*
X992353Y328344D01*
X992176Y327000D01*
X992353Y325656D01*
X992872Y324403D01*
X993697Y323327D01*
X994773Y322502D01*
X996026Y321983D01*
X997370Y321806D01*
X998714Y321983D01*
X999967Y322502D01*
X1001043Y323327D01*
X1001868Y324403D01*
X1002151Y325086D01*
X1002651Y324986D01*
Y312595D01*
X1002520Y312150D01*
X1002151Y312150D01*
X992220D01*
Y301850D01*
X1002151D01*
X1002520Y301850D01*
X1002651Y301405D01*
Y281843D01*
X1002616Y281665D01*
X1002616D01*
X1002596Y281172D01*
X1002475Y280251D01*
X1001930Y278934D01*
X1001062Y277803D01*
X999931Y276935D01*
X998613Y276389D01*
X997338Y276221D01*
X997200Y276249D01*
X981906D01*
X981781Y276749D01*
X983304Y277563D01*
X984750Y278750D01*
X985937Y280196D01*
X986819Y281847D01*
X987363Y283638D01*
X987546Y285500D01*
X987363Y287362D01*
X986819Y289153D01*
X985937Y290804D01*
X984750Y292250D01*
X983304Y293437D01*
X981653Y294319D01*
X979862Y294863D01*
X978000Y295046D01*
X976138Y294863D01*
X974347Y294319D01*
X972696Y293437D01*
X971250Y292250D01*
X970063Y290804D01*
X969181Y289153D01*
X968637Y287362D01*
X968454Y285500D01*
X968637Y283638D01*
X969181Y281847D01*
X970063Y280196D01*
X971250Y278750D01*
X972696Y277563D01*
X974219Y276749D01*
X974094Y276249D01*
X960968D01*
Y287610D01*
X950827D01*
Y276249D01*
X898843D01*
Y285708D01*
X899343Y285878D01*
X899575Y285575D01*
X900285Y285030D01*
X901112Y284687D01*
X902000Y284571D01*
X902888Y284687D01*
X903715Y285030D01*
X904425Y285575D01*
X904691D01*
X905075Y285075D01*
X905785Y284530D01*
X906612Y284188D01*
X907500Y284071D01*
X908388Y284188D01*
X909215Y284530D01*
X909925Y285075D01*
X910470Y285785D01*
X910812Y286612D01*
X910929Y287500D01*
X910812Y288388D01*
X910526Y289079D01*
Y343247D01*
X919022Y351743D01*
X919484Y351552D01*
Y348634D01*
X919476Y348611D01*
X919484Y348477D01*
Y348467D01*
X919457Y348331D01*
X919484Y348194D01*
Y346319D01*
X920216D01*
X920217Y346290D01*
X920234Y346213D01*
X920333Y345461D01*
X920635Y344731D01*
X920984Y344276D01*
Y343038D01*
X920957Y342901D01*
X920982Y342773D01*
X920973Y342643D01*
X920984Y342611D01*
Y335598D01*
X941716D01*
X941717Y335570D01*
X941730Y335511D01*
Y316509D01*
X916477Y291256D01*
X915785Y290970D01*
X915075Y290425D01*
X914530Y289715D01*
X914188Y288888D01*
X914071Y288000D01*
X914188Y287112D01*
X914530Y286285D01*
X915075Y285575D01*
X915785Y285030D01*
X916612Y284687D01*
X917500Y284571D01*
X918388Y284687D01*
X919215Y285030D01*
X919925Y285575D01*
X920470Y286285D01*
X920757Y286977D01*
X946896Y313116D01*
X946896Y313116D01*
X947376Y313743D01*
X947679Y314473D01*
X947782Y315256D01*
Y335511D01*
X947795Y335570D01*
X947795Y335598D01*
X948528D01*
Y337474D01*
X948555Y337610D01*
X948528Y337747D01*
Y337756D01*
X948535Y337890D01*
X948528Y337913D01*
Y344913D01*
X939488D01*
X939154Y345413D01*
X939179Y345473D01*
X939274Y346195D01*
X939295Y346290D01*
X939295Y346319D01*
X940028D01*
Y348194D01*
X940055Y348331D01*
X940028Y348467D01*
Y348477D01*
X940035Y348611D01*
X940028Y348634D01*
Y352681D01*
X939464D01*
X939222Y353137D01*
X939421Y353468D01*
X940028D01*
Y359830D01*
X932796D01*
X932795Y359859D01*
X932782Y359918D01*
Y360744D01*
X932679Y361527D01*
X932377Y362257D01*
X931896Y362883D01*
X931896Y362883D01*
X929640Y365140D01*
X929013Y365620D01*
X928283Y365923D01*
X927500Y366026D01*
X915000D01*
X915000Y366026D01*
X914217Y365923D01*
X913487Y365620D01*
X912860Y365140D01*
X912860Y365140D01*
X899860Y352140D01*
X899380Y351513D01*
X899077Y350783D01*
X898974Y350000D01*
Y338056D01*
X898843Y337610D01*
X898474Y337610D01*
X888701D01*
Y323335D01*
X898474D01*
X898843Y323335D01*
X898974Y322889D01*
Y289580D01*
X898687Y288888D01*
X898571Y288000D01*
X898573Y287986D01*
X898243Y287610D01*
X888701D01*
Y276249D01*
X682406D01*
X682281Y276749D01*
X683804Y277563D01*
X685250Y278750D01*
X686437Y280196D01*
X687319Y281847D01*
X687863Y283638D01*
X688046Y285500D01*
X687863Y287362D01*
X687319Y289153D01*
X686437Y290804D01*
X685250Y292250D01*
X683804Y293437D01*
X682153Y294319D01*
X680362Y294863D01*
X678500Y295046D01*
X676638Y294863D01*
X674847Y294319D01*
X673197Y293437D01*
X671750Y292250D01*
X670563Y290804D01*
X669681Y289153D01*
X669679Y289148D01*
X669184Y289221D01*
Y454893D01*
X669679Y454967D01*
X669681Y454961D01*
X670563Y453311D01*
X671750Y451864D01*
X673197Y450677D01*
X674847Y449795D01*
X676638Y449252D01*
X678500Y449068D01*
X680362Y449252D01*
X682153Y449795D01*
X683804Y450677D01*
X685250Y451864D01*
X686437Y453311D01*
X687202Y454741D01*
X687217Y454754D01*
X687731Y454898D01*
X687818Y454884D01*
X688220Y454616D01*
X689000Y454461D01*
X705642D01*
Y449556D01*
X715547D01*
Y455918D01*
X715118D01*
X714800Y456304D01*
X714839Y456500D01*
Y457036D01*
X715547D01*
Y458000D01*
X715500D01*
X715547Y458057D01*
Y463398D01*
X714854D01*
X714658Y463228D01*
X714482Y463398D01*
X714390D01*
X714242Y463619D01*
X714171Y463667D01*
X714117Y463734D01*
X713736Y464056D01*
X713461Y464209D01*
X713199Y464384D01*
X713115Y464401D01*
X713040Y464442D01*
X712728Y464478D01*
X712419Y464539D01*
X710539D01*
Y467916D01*
X716231D01*
Y462630D01*
X717453D01*
Y460357D01*
X717500Y460414D01*
X717512Y460022D01*
X717549Y459645D01*
X717611Y459283D01*
X717697Y458937D01*
X717808Y458607D01*
X717943Y458291D01*
X718103Y457991D01*
X718287Y457707D01*
X718457Y457489D01*
X719234Y457538D01*
X719335Y457560D01*
X719407Y457585D01*
X719450Y457614D01*
X719465Y457646D01*
Y457036D01*
X725210D01*
X725308Y457016D01*
X725728Y456819D01*
X725728Y456819D01*
X725728Y456819D01*
X727451D01*
X727483Y456808D01*
X727613Y456817D01*
X727740Y456792D01*
X727877Y456819D01*
X731123D01*
X731260Y456792D01*
X731387Y456817D01*
X731517Y456808D01*
X731986Y456586D01*
X732026Y456435D01*
X731870Y456224D01*
X731696Y456032D01*
X727877D01*
X727740Y456059D01*
X727702Y456052D01*
X727665Y456058D01*
X727556Y456032D01*
X725728D01*
Y456032D01*
X725270Y455930D01*
X725210Y455918D01*
X719465D01*
Y455308D01*
X719450Y455340D01*
X719407Y455369D01*
X719335Y455394D01*
X719234Y455416D01*
X719104Y455435D01*
X718758Y455462D01*
X718023Y455477D01*
Y455918D01*
X717453D01*
Y449556D01*
X725210D01*
X725346Y449528D01*
X725483Y449556D01*
X727358D01*
X727358Y449556D01*
X727740Y449643D01*
X727877Y449670D01*
X733271D01*
Y451939D01*
X733745Y452100D01*
X733899Y451899D01*
X735100Y450977D01*
X736499Y450398D01*
X738000Y450200D01*
X739501Y450398D01*
X740900Y450977D01*
X742101Y451899D01*
X743023Y453100D01*
X743602Y454499D01*
X743800Y456000D01*
X743602Y457501D01*
X743023Y458900D01*
X742101Y460101D01*
X740900Y461023D01*
X739501Y461602D01*
X738000Y461800D01*
X737910Y461788D01*
X737908Y461788D01*
X737543Y461789D01*
X737265Y461806D01*
X737019Y461838D01*
X736804Y461881D01*
X736619Y461934D01*
X736459Y461995D01*
X736323Y462061D01*
X736205Y462132D01*
X736100Y462210D01*
X735931Y462364D01*
X735892Y462387D01*
X730826Y467454D01*
X731017Y467916D01*
X834952D01*
X835173Y467467D01*
X834658Y466796D01*
X834099Y465447D01*
X833909Y464000D01*
X834099Y462553D01*
X834658Y461204D01*
X835546Y460046D01*
X836704Y459158D01*
X838053Y458599D01*
X839500Y458409D01*
X840947Y458599D01*
X842296Y459158D01*
X843454Y460046D01*
X844342Y461204D01*
X844901Y462553D01*
X845091Y464000D01*
X844901Y465447D01*
X844342Y466796D01*
X843827Y467467D01*
X844048Y467916D01*
X863126D01*
Y469228D01*
X863166Y468900D01*
X863286Y468606D01*
X863486Y468347D01*
X863766Y468122D01*
X864126Y467932D01*
X864172Y467916D01*
X885725D01*
X885772Y467932D01*
X886132Y468122D01*
X886412Y468347D01*
X886612Y468606D01*
X886732Y468900D01*
X886772Y469228D01*
Y467916D01*
D02*
G37*
G36*
X722177Y468195D02*
X722236Y468049D01*
X722336Y467920D01*
X722476Y467809D01*
X722656Y467715D01*
X722877Y467637D01*
X723137Y467577D01*
X723436Y467534D01*
X723776Y467509D01*
X724157Y467500D01*
Y465500D01*
X723776Y465491D01*
X723436Y465466D01*
X723137Y465423D01*
X722877Y465363D01*
X722656Y465285D01*
X722476Y465191D01*
X722336Y465079D01*
X722236Y464951D01*
X722177Y464805D01*
X722156Y464642D01*
Y468358D01*
X722177Y468195D01*
D02*
G37*
G36*
X725366Y461354D02*
X725426Y461325D01*
X725526Y461300D01*
X725666Y461278D01*
X725846Y461259D01*
X726626Y461224D01*
X727346Y461217D01*
Y461178D01*
X727740Y461169D01*
Y458831D01*
X727720Y458904D01*
X727660Y458970D01*
X727560Y459028D01*
X727420Y459078D01*
X727240Y459121D01*
X727020Y459155D01*
X726760Y459182D01*
X726600Y459190D01*
X725426Y459109D01*
X725366Y459080D01*
X725346Y459048D01*
Y461386D01*
X725366Y461354D01*
D02*
G37*
G36*
X708500Y462500D02*
X712419D01*
X712800Y462177D01*
Y456500D01*
X689000D01*
Y467916D01*
X708500D01*
Y462500D01*
D02*
G37*
G36*
X732215Y461206D02*
X732880Y461216D01*
X733260Y461217D01*
Y460547D01*
X733783Y460217D01*
X733824Y460117D01*
X734560Y460854D01*
X734803Y460634D01*
X735066Y460438D01*
X735349Y460267D01*
X735653Y460120D01*
X735977Y459997D01*
X736321Y459899D01*
X736686Y459825D01*
X737072Y459775D01*
X737477Y459750D01*
X737904Y459749D01*
X734251Y456096D01*
X734250Y456523D01*
X734225Y456928D01*
X734175Y457314D01*
X734101Y457679D01*
X734003Y458023D01*
X733880Y458347D01*
X733762Y458592D01*
X733558Y458708D01*
X733222Y458863D01*
X732875Y458991D01*
X732516Y459090D01*
X732145Y459160D01*
X732114Y459164D01*
X731980Y459155D01*
X731760Y459121D01*
X731580Y459078D01*
X731440Y459028D01*
X731340Y458970D01*
X731280Y458904D01*
X731260Y458831D01*
Y459326D01*
X729369Y461217D01*
X729735Y461231D01*
X730032Y461274D01*
X730262Y461344D01*
X730422Y461443D01*
X730515Y461571D01*
X730540Y461726D01*
X730496Y461910D01*
X730384Y462122D01*
X730203Y462362D01*
X729955Y462631D01*
X732215Y461206D01*
D02*
G37*
G36*
X727740Y451682D02*
X727720Y451692D01*
X727660Y451701D01*
X727560Y451710D01*
X726874Y451729D01*
X725426Y451628D01*
X725366Y451600D01*
X725346Y451568D01*
Y453906D01*
X725366Y453874D01*
X725426Y453845D01*
X725526Y453820D01*
X725666Y453798D01*
X725846Y453779D01*
X726374Y453755D01*
X727240Y453807D01*
X727420Y453839D01*
X727560Y453875D01*
X727660Y453918D01*
X727720Y453966D01*
X727740Y454020D01*
Y451682D01*
D02*
G37*
G36*
X995121Y364795D02*
X994882Y365024D01*
X994638Y365229D01*
X994388Y365410D01*
X994134Y365566D01*
X993874Y365699D01*
X993608Y365807D01*
X993338Y365892D01*
X993062Y365952D01*
X992780Y365988D01*
X992494Y366000D01*
Y368000D01*
X992780Y368012D01*
X993062Y368048D01*
X993338Y368108D01*
X993608Y368193D01*
X993874Y368301D01*
X994134Y368434D01*
X994388Y368590D01*
X994638Y368771D01*
X994882Y368976D01*
X995121Y369205D01*
Y364795D01*
D02*
G37*
G36*
X930764Y359438D02*
X930825Y358798D01*
X930878Y358538D01*
X930946Y358318D01*
X931030Y358138D01*
X931129Y357998D01*
X931242Y357898D01*
X931372Y357838D01*
X931516Y357818D01*
X927997D01*
X928141Y357838D01*
X928270Y357898D01*
X928384Y357998D01*
X928483Y358138D01*
X928566Y358318D01*
X928635Y358538D01*
X928688Y358798D01*
X928726Y359098D01*
X928749Y359438D01*
X928756Y359818D01*
X930756D01*
X930764Y359438D01*
D02*
G37*
G36*
X921497Y355480D02*
X921478Y355512D01*
X921423Y355541D01*
X921330Y355566D01*
X921201Y355588D01*
X921035Y355607D01*
X920314Y355642D01*
X919649Y355649D01*
Y357649D01*
X920000Y357651D01*
X921330Y357732D01*
X921423Y357757D01*
X921478Y357786D01*
X921497Y357818D01*
Y355480D01*
D02*
G37*
G36*
X937871Y348311D02*
X937742Y348251D01*
X937628Y348151D01*
X937529Y348011D01*
X937446Y347831D01*
X937377Y347611D01*
X937324Y347351D01*
X937286Y347051D01*
X937263Y346711D01*
X937256Y346331D01*
X935256D01*
X935248Y346711D01*
X935188Y347351D01*
X935134Y347611D01*
X935066Y347831D01*
X934982Y348011D01*
X934884Y348151D01*
X934770Y348251D01*
X934641Y348311D01*
X934496Y348331D01*
X938016D01*
X937871Y348311D01*
D02*
G37*
G36*
X931371D02*
X931242Y348251D01*
X931128Y348151D01*
X931029Y348011D01*
X930946Y347831D01*
X930877Y347611D01*
X930824Y347351D01*
X930786Y347051D01*
X930764Y346711D01*
X930756Y346331D01*
X928756D01*
X928748Y346711D01*
X928687Y347351D01*
X928634Y347611D01*
X928566Y347831D01*
X928482Y348011D01*
X928384Y348151D01*
X928270Y348251D01*
X928141Y348311D01*
X927996Y348331D01*
X931516D01*
X931371Y348311D01*
D02*
G37*
G36*
X924871D02*
X924742Y348251D01*
X924628Y348151D01*
X924529Y348011D01*
X924446Y347831D01*
X924377Y347611D01*
X924324Y347351D01*
X924286Y347051D01*
X924263Y346711D01*
X924256Y346331D01*
X922256D01*
X922248Y346711D01*
X922188Y347351D01*
X922134Y347611D01*
X922066Y347831D01*
X921982Y348011D01*
X921884Y348151D01*
X921770Y348251D01*
X921641Y348311D01*
X921496Y348331D01*
X925016D01*
X924871Y348311D01*
D02*
G37*
G36*
X935763Y344404D02*
X935824Y343810D01*
X935877Y343569D01*
X935946Y343365D01*
X936029Y343198D01*
X936128Y343068D01*
X936242Y342976D01*
X936371Y342920D01*
X936516Y342901D01*
X932996D01*
X933141Y342920D01*
X933270Y342976D01*
X933384Y343068D01*
X933482Y343198D01*
X933566Y343365D01*
X933634Y343569D01*
X933687Y343810D01*
X933725Y344088D01*
X933748Y344404D01*
X933756Y344756D01*
X935756D01*
X935763Y344404D01*
D02*
G37*
G36*
X930764Y344521D02*
X930824Y343881D01*
X930877Y343621D01*
X930946Y343401D01*
X931029Y343221D01*
X931128Y343081D01*
X931242Y342981D01*
X931371Y342921D01*
X931516Y342901D01*
X927996D01*
X928141Y342921D01*
X928270Y342981D01*
X928384Y343081D01*
X928482Y343221D01*
X928566Y343401D01*
X928634Y343621D01*
X928687Y343881D01*
X928726Y344181D01*
X928748Y344521D01*
X928756Y344901D01*
X930756D01*
X930764Y344521D01*
D02*
G37*
G36*
X925764Y344394D02*
X925824Y343804D01*
X925877Y343565D01*
X925946Y343362D01*
X926029Y343196D01*
X926128Y343067D01*
X926242Y342975D01*
X926371Y342920D01*
X926516Y342901D01*
X922996D01*
X923141Y342920D01*
X923270Y342975D01*
X923384Y343067D01*
X923482Y343196D01*
X923566Y343362D01*
X923634Y343565D01*
X923687Y343804D01*
X923726Y344081D01*
X923748Y344394D01*
X923756Y344744D01*
X925756D01*
X925764Y344394D01*
D02*
G37*
G36*
X946371Y337590D02*
X946242Y337530D01*
X946128Y337430D01*
X946029Y337290D01*
X945946Y337110D01*
X945877Y336890D01*
X945824Y336630D01*
X945786Y336330D01*
X945763Y335990D01*
X945756Y335610D01*
X943756D01*
X943748Y335990D01*
X943688Y336630D01*
X943634Y336890D01*
X943566Y337110D01*
X943482Y337290D01*
X943384Y337430D01*
X943270Y337530D01*
X943141Y337590D01*
X942996Y337610D01*
X946516D01*
X946371Y337590D01*
D02*
G37*
%LPC*%
G36*
X717453Y457651D02*
Y457036D01*
X718023D01*
Y457443D01*
X717453Y457651D01*
D02*
G37*
G36*
X758000Y461800D02*
X756499Y461602D01*
X755100Y461023D01*
X753899Y460101D01*
X752977Y458900D01*
X752398Y457501D01*
X752200Y456000D01*
X752398Y454499D01*
X752977Y453100D01*
X753899Y451899D01*
X755100Y450977D01*
X756499Y450398D01*
X758000Y450200D01*
X759501Y450398D01*
X760900Y450977D01*
X762101Y451899D01*
X763023Y453100D01*
X763602Y454499D01*
X763800Y456000D01*
X763602Y457501D01*
X763023Y458900D01*
X762101Y460101D01*
X760900Y461023D01*
X759501Y461602D01*
X758000Y461800D01*
D02*
G37*
G36*
X880295Y459753D02*
X867043D01*
Y450027D01*
X867016Y449891D01*
X867026Y449843D01*
X867018Y449795D01*
X867043Y449694D01*
Y447879D01*
X867208D01*
Y444917D01*
X866472Y444181D01*
X861777D01*
X861640Y444208D01*
X861503Y444181D01*
X860098D01*
X857757Y446523D01*
X857470Y447215D01*
X856925Y447925D01*
X856215Y448470D01*
X855388Y448812D01*
X854500Y448929D01*
X853612Y448812D01*
X852785Y448470D01*
X852075Y447925D01*
X851530Y447215D01*
X851188Y446388D01*
X851071Y445500D01*
X851188Y444612D01*
X851530Y443785D01*
X852075Y443075D01*
X852785Y442530D01*
X853477Y442243D01*
X856860Y438860D01*
X857487Y438379D01*
X858217Y438077D01*
X859000Y437974D01*
X859558D01*
X859621Y437961D01*
X859628Y437961D01*
Y432819D01*
Y427819D01*
Y422819D01*
Y417819D01*
Y412819D01*
Y407819D01*
Y402819D01*
X868352D01*
Y407819D01*
Y412819D01*
Y417819D01*
Y422819D01*
Y427819D01*
Y432819D01*
Y438760D01*
X868854Y439146D01*
X869154Y439445D01*
X869616Y439254D01*
Y426535D01*
X869711Y425817D01*
X869988Y425148D01*
X870428Y424574D01*
X880964Y414039D01*
X881538Y413598D01*
X881675Y413541D01*
Y407819D01*
Y402819D01*
X890400D01*
Y407819D01*
Y412819D01*
Y417819D01*
Y422031D01*
X892005D01*
X892142Y422004D01*
X892253Y422026D01*
X892365Y422017D01*
X892412Y422031D01*
X897870D01*
Y429969D01*
X892412D01*
X892365Y429983D01*
X892253Y429974D01*
X892142Y429996D01*
X892005Y429969D01*
X890400D01*
Y432961D01*
X890462Y432974D01*
X891420D01*
X892112Y432688D01*
X893000Y432571D01*
X893888Y432688D01*
X894715Y433030D01*
X895425Y433575D01*
X895970Y434285D01*
X896313Y435112D01*
X896429Y436000D01*
X896313Y436888D01*
X895970Y437715D01*
X895425Y438425D01*
X894715Y438970D01*
X893888Y439313D01*
X893000Y439429D01*
X892112Y439313D01*
X891420Y439026D01*
X890470D01*
X890407Y439039D01*
X890400Y439039D01*
Y439181D01*
X888524D01*
X888388Y439208D01*
X888251Y439181D01*
X881675D01*
Y434680D01*
X881175Y434340D01*
X880500Y434429D01*
X879612Y434312D01*
X878785Y433970D01*
X878222Y433538D01*
X877722Y433738D01*
Y447879D01*
X880295D01*
Y448691D01*
X879549D01*
X879547Y448919D01*
X879505Y449591D01*
X879486Y449699D01*
X879463Y449783D01*
X879436Y449843D01*
X879407Y449879D01*
X879373Y449891D01*
X880295D01*
Y459753D01*
D02*
G37*
G36*
X926500Y456529D02*
X925324Y456413D01*
X924193Y456070D01*
X923150Y455513D01*
X922237Y454763D01*
X921487Y453850D01*
X920930Y452807D01*
X920587Y451676D01*
X920471Y450500D01*
Y446500D01*
X920587Y445324D01*
X920930Y444193D01*
X921487Y443151D01*
X922237Y442237D01*
X923150Y441487D01*
X924193Y440930D01*
X925324Y440587D01*
X926500Y440471D01*
X927676Y440587D01*
X928807Y440930D01*
X929850Y441487D01*
X930763Y442237D01*
X931513Y443151D01*
X932070Y444193D01*
X932413Y445324D01*
X932529Y446500D01*
Y450500D01*
X932413Y451676D01*
X932070Y452807D01*
X931513Y453850D01*
X930763Y454763D01*
X929850Y455513D01*
X928807Y456070D01*
X927676Y456413D01*
X926500Y456529D01*
D02*
G37*
G36*
X750500Y440535D02*
X749197Y440364D01*
X747982Y439861D01*
X746940Y439060D01*
X746139Y438018D01*
X745771Y437127D01*
X745229D01*
X744861Y438018D01*
X744060Y439060D01*
X743018Y439861D01*
X741803Y440364D01*
X740500Y440535D01*
X739197Y440364D01*
X737982Y439861D01*
X736940Y439060D01*
X736139Y438018D01*
X735636Y436803D01*
X735465Y435500D01*
X735636Y434197D01*
X736139Y432982D01*
X736940Y431940D01*
X737982Y431139D01*
X739197Y430636D01*
X740500Y430465D01*
X741803Y430636D01*
X743018Y431139D01*
X744060Y431940D01*
X744861Y432982D01*
X745229Y433873D01*
X745771D01*
X746139Y432982D01*
X746940Y431940D01*
X747982Y431139D01*
X749197Y430636D01*
X750500Y430465D01*
X751803Y430636D01*
X753018Y431139D01*
X754060Y431940D01*
X754861Y432982D01*
X755364Y434197D01*
X755535Y435500D01*
X755364Y436803D01*
X754861Y438018D01*
X754060Y439060D01*
X753018Y439861D01*
X751803Y440364D01*
X750500Y440535D01*
D02*
G37*
G36*
X720200Y444179D02*
X719312Y444063D01*
X718485Y443720D01*
X717775Y443175D01*
X717230Y442465D01*
X716888Y441638D01*
X716771Y440750D01*
X716846Y440181D01*
X716459Y439681D01*
X715728D01*
Y433319D01*
X723272D01*
Y435531D01*
X723513Y436112D01*
X723629Y437000D01*
X723513Y437888D01*
X723272Y438469D01*
Y439281D01*
X723513Y439862D01*
X723629Y440750D01*
X723513Y441638D01*
X723170Y442465D01*
X722625Y443175D01*
X721915Y443720D01*
X721088Y444063D01*
X720200Y444179D01*
D02*
G37*
G36*
X717740Y432559D02*
X717603Y432532D01*
X715396D01*
X715260Y432559D01*
X715123Y432532D01*
X709728D01*
Y426169D01*
X715123D01*
X715260Y426142D01*
X715729Y425836D01*
Y425658D01*
X715702Y425521D01*
X715729Y425385D01*
Y425375D01*
X715721Y425241D01*
X715729Y425219D01*
Y421171D01*
X723272D01*
Y425219D01*
X723280Y425242D01*
X723272Y425377D01*
Y425385D01*
X723299Y425521D01*
X723272Y425658D01*
Y427533D01*
X723271D01*
Y428045D01*
X723298Y428181D01*
X723271Y428318D01*
Y428327D01*
X723279Y428461D01*
X723271Y428484D01*
Y432532D01*
X717876D01*
X717740Y432559D01*
D02*
G37*
G36*
X818500Y465539D02*
X793000D01*
X792220Y465384D01*
X791558Y464942D01*
X791116Y464280D01*
X790961Y463500D01*
Y444039D01*
X786500D01*
X785720Y443884D01*
X785058Y443442D01*
X784616Y442780D01*
X784461Y442000D01*
Y437500D01*
X784616Y436720D01*
X785058Y436058D01*
X785720Y435616D01*
X786500Y435461D01*
X789945D01*
X790044Y434961D01*
X789883Y434894D01*
X789047Y434253D01*
X788406Y433417D01*
X788003Y432444D01*
X787865Y431400D01*
X788003Y430356D01*
X788406Y429383D01*
X789047Y428547D01*
X789883Y427906D01*
X790856Y427503D01*
X791900Y427365D01*
X819298D01*
X819298Y427365D01*
X820342Y427503D01*
X821315Y427906D01*
X822151Y428547D01*
X824802Y431198D01*
X825443Y432034D01*
X825846Y433007D01*
X825983Y434051D01*
X825846Y435095D01*
X825443Y436068D01*
X824802Y436904D01*
X823966Y437545D01*
X822993Y437948D01*
X821949Y438086D01*
X821039Y437966D01*
X820539Y438271D01*
Y463500D01*
X820384Y464280D01*
X819942Y464942D01*
X819280Y465384D01*
X818500Y465539D01*
D02*
G37*
G36*
X954500Y446529D02*
X953324Y446413D01*
X952193Y446070D01*
X951150Y445513D01*
X950237Y444763D01*
X949487Y443850D01*
X948930Y442807D01*
X948587Y441676D01*
X948471Y440500D01*
Y436500D01*
X948587Y435324D01*
X948930Y434193D01*
X949487Y433150D01*
X950237Y432237D01*
X951150Y431487D01*
X952193Y430930D01*
X953324Y430587D01*
X954500Y430471D01*
X955676Y430587D01*
X956807Y430930D01*
X957850Y431487D01*
X958763Y432237D01*
X959000Y432526D01*
X959471Y432357D01*
Y430500D01*
X959587Y429324D01*
X959930Y428193D01*
X960487Y427150D01*
X961237Y426237D01*
X962150Y425487D01*
X963193Y424930D01*
X964324Y424587D01*
X965500Y424471D01*
X966676Y424587D01*
X967807Y424930D01*
X968850Y425487D01*
X969763Y426237D01*
X970513Y427150D01*
X971070Y428193D01*
X971413Y429324D01*
X971529Y430500D01*
Y434500D01*
X971413Y435676D01*
X971070Y436807D01*
X970513Y437850D01*
X969763Y438763D01*
X968850Y439513D01*
X967807Y440070D01*
X966676Y440413D01*
X965500Y440529D01*
X964324Y440413D01*
X963193Y440070D01*
X962150Y439513D01*
X961237Y438763D01*
X961000Y438474D01*
X960529Y438643D01*
Y440500D01*
X960413Y441676D01*
X960070Y442807D01*
X959513Y443850D01*
X958763Y444763D01*
X957850Y445513D01*
X956807Y446070D01*
X955676Y446413D01*
X954500Y446529D01*
D02*
G37*
G36*
X780250Y440929D02*
X779362Y440812D01*
X778535Y440470D01*
X777825Y439925D01*
X777280Y439215D01*
X776937Y438388D01*
X776821Y437500D01*
X776937Y436612D01*
X777280Y435785D01*
X777474Y435533D01*
Y426753D01*
X773540Y422819D01*
X773169Y423155D01*
X773169Y423620D01*
Y425263D01*
X773353Y425447D01*
X773353Y425447D01*
X773994Y426283D01*
X774397Y427256D01*
X774535Y428300D01*
X774535Y428300D01*
Y428473D01*
X774539Y428494D01*
X774548Y429204D01*
X774619Y430364D01*
X774638Y430508D01*
X775492D01*
Y432383D01*
X775519Y432520D01*
X775492Y432656D01*
Y440492D01*
X765508D01*
Y432656D01*
X765481Y432520D01*
X765508Y432383D01*
Y430870D01*
X765232D01*
Y427501D01*
X765166Y427000D01*
X765232Y426499D01*
Y423130D01*
X768091D01*
X768156Y423103D01*
X769200Y422965D01*
X770244Y423103D01*
X770309Y423130D01*
X772669D01*
X773143Y423130D01*
X773479Y422759D01*
X771747Y421026D01*
X733000D01*
X732217Y420923D01*
X731487Y420620D01*
X730860Y420140D01*
X727860Y417140D01*
X727380Y416513D01*
X727077Y415783D01*
X726974Y415000D01*
Y407500D01*
X727077Y406717D01*
X727380Y405987D01*
X727860Y405360D01*
X730860Y402360D01*
X731487Y401880D01*
X732217Y401577D01*
X733000Y401474D01*
X735421D01*
X736112Y401188D01*
X737000Y401071D01*
X737888Y401188D01*
X738715Y401530D01*
X739425Y402075D01*
X739970Y402785D01*
X740312Y403612D01*
X740429Y404500D01*
X740312Y405388D01*
X739970Y406215D01*
X739425Y406925D01*
X738715Y407470D01*
X738704Y407474D01*
X738804Y407974D01*
X774500D01*
X775283Y408077D01*
X776013Y408380D01*
X776640Y408860D01*
X786253Y418474D01*
X790980D01*
X791258Y418058D01*
X791187Y417888D01*
X791071Y417000D01*
X791187Y416112D01*
X791530Y415285D01*
X792075Y414575D01*
X792785Y414030D01*
X793477Y413743D01*
X793660Y413560D01*
X794130Y413200D01*
Y411731D01*
X801870D01*
Y419668D01*
X796963D01*
X796629Y420168D01*
X796812Y420612D01*
X796929Y421500D01*
X796812Y422388D01*
X796470Y423215D01*
X795925Y423925D01*
X795215Y424470D01*
X794388Y424813D01*
X793500Y424929D01*
X792612Y424813D01*
X791921Y424526D01*
X785000D01*
X784217Y424423D01*
X783765Y424235D01*
X783609Y424326D01*
X783382Y424618D01*
X783423Y424717D01*
X783526Y425500D01*
Y436524D01*
X783563Y436612D01*
X783679Y437500D01*
X783563Y438388D01*
X783220Y439215D01*
X782675Y439925D01*
X781965Y440470D01*
X781138Y440812D01*
X780250Y440929D01*
D02*
G37*
G36*
X717740Y420411D02*
X717604Y420384D01*
X715728D01*
X715728Y420384D01*
X715366Y420296D01*
X715227Y420268D01*
X709630D01*
Y412331D01*
X710999D01*
X711360Y411860D01*
X713243Y409977D01*
X713530Y409285D01*
X714075Y408575D01*
X714785Y408030D01*
X715612Y407688D01*
X716500Y407571D01*
X717388Y407688D01*
X718215Y408030D01*
X718925Y408575D01*
X719470Y409285D01*
X719812Y410112D01*
X719929Y411000D01*
X719812Y411888D01*
X719470Y412715D01*
X718925Y413425D01*
X718798Y413522D01*
X718968Y414022D01*
X723272D01*
Y420384D01*
X717877D01*
X717740Y420411D01*
D02*
G37*
G36*
X930500Y424529D02*
X926500D01*
X925324Y424413D01*
X924193Y424070D01*
X923150Y423513D01*
X922237Y422763D01*
X921487Y421849D01*
X920930Y420807D01*
X920587Y419676D01*
X920471Y418500D01*
X920587Y417324D01*
X920930Y416193D01*
X921487Y415150D01*
X922237Y414237D01*
X923150Y413487D01*
X924193Y412930D01*
X925324Y412587D01*
X926500Y412471D01*
X930500D01*
X931676Y412587D01*
X932807Y412930D01*
X933850Y413487D01*
X934763Y414237D01*
X935513Y415150D01*
X936070Y416193D01*
X936413Y417324D01*
X936529Y418500D01*
X936413Y419676D01*
X936070Y420807D01*
X935513Y421849D01*
X934763Y422763D01*
X933850Y423513D01*
X932807Y424070D01*
X931676Y424413D01*
X930500Y424529D01*
D02*
G37*
G36*
X809047Y405929D02*
X808160Y405813D01*
X807333Y405470D01*
X806622Y404925D01*
X806197Y404370D01*
X805231D01*
Y396630D01*
X813169D01*
Y404370D01*
X811898D01*
X811472Y404925D01*
X810762Y405470D01*
X809935Y405813D01*
X809047Y405929D01*
D02*
G37*
G36*
X801358Y392696D02*
X801247Y392674D01*
X801135Y392683D01*
X801088Y392669D01*
X795630D01*
Y386627D01*
X795720Y386514D01*
X795989Y386226D01*
X795630Y386259D01*
Y384732D01*
X801088D01*
X801135Y384717D01*
X801247Y384726D01*
X801358Y384704D01*
X801495Y384732D01*
X803370D01*
Y385661D01*
X803409Y385662D01*
X803465Y385674D01*
X804508D01*
Y380508D01*
X814492D01*
Y390492D01*
X808787D01*
X808440Y390840D01*
X807813Y391320D01*
X807083Y391623D01*
X806300Y391726D01*
X803465D01*
X803409Y391739D01*
X803370Y391740D01*
Y392669D01*
X801495D01*
X801358Y392696D01*
D02*
G37*
G36*
X705521Y409974D02*
X691679D01*
Y390226D01*
X705521D01*
Y409974D01*
D02*
G37*
G36*
X909500Y449591D02*
X908053Y449401D01*
X906704Y448842D01*
X905546Y447954D01*
X904658Y446796D01*
X904099Y445447D01*
X903909Y444000D01*
X904099Y442553D01*
X904658Y441204D01*
X905546Y440047D01*
X906514Y439304D01*
X906548Y439222D01*
Y438778D01*
X906514Y438696D01*
X905546Y437954D01*
X904658Y436796D01*
X904099Y435447D01*
X903909Y434000D01*
X904099Y432553D01*
X904658Y431204D01*
X905546Y430047D01*
X906514Y429304D01*
X906548Y429222D01*
Y428778D01*
X906514Y428696D01*
X905546Y427953D01*
X904658Y426796D01*
X904099Y425447D01*
X903909Y424000D01*
X904099Y422553D01*
X904658Y421204D01*
X905546Y420047D01*
X906514Y419304D01*
X906548Y419222D01*
Y418778D01*
X906514Y418696D01*
X905546Y417953D01*
X904658Y416796D01*
X904099Y415447D01*
X903909Y414000D01*
X904099Y412553D01*
X904658Y411204D01*
X905546Y410046D01*
X906514Y409304D01*
X906548Y409222D01*
Y408778D01*
X906514Y408696D01*
X905546Y407954D01*
X904658Y406796D01*
X904099Y405447D01*
X903909Y404000D01*
X904099Y402553D01*
X904658Y401204D01*
X905546Y400046D01*
X906514Y399304D01*
X906548Y399222D01*
Y398778D01*
X906514Y398696D01*
X905546Y397954D01*
X904658Y396796D01*
X904099Y395447D01*
X903909Y394000D01*
X904099Y392553D01*
X904658Y391204D01*
X905546Y390047D01*
X906704Y389158D01*
X908053Y388599D01*
X909500Y388409D01*
X910947Y388599D01*
X912296Y389158D01*
X913453Y390047D01*
X914342Y391204D01*
X914901Y392553D01*
X915091Y394000D01*
X914901Y395447D01*
X914342Y396796D01*
X913453Y397954D01*
X912486Y398696D01*
X912452Y398778D01*
Y399222D01*
X912486Y399304D01*
X913453Y400046D01*
X914342Y401204D01*
X914901Y402553D01*
X915091Y404000D01*
X914901Y405447D01*
X914342Y406796D01*
X913453Y407954D01*
X912486Y408696D01*
X912452Y408778D01*
Y409222D01*
X912486Y409304D01*
X913453Y410046D01*
X914342Y411204D01*
X914901Y412553D01*
X915091Y414000D01*
X914901Y415447D01*
X914342Y416796D01*
X913453Y417953D01*
X912486Y418696D01*
X912452Y418778D01*
Y419222D01*
X912486Y419304D01*
X913453Y420047D01*
X914342Y421204D01*
X914901Y422553D01*
X915091Y424000D01*
X914901Y425447D01*
X914342Y426796D01*
X913453Y427953D01*
X912486Y428696D01*
X912452Y428778D01*
Y429222D01*
X912486Y429304D01*
X913453Y430047D01*
X914342Y431204D01*
X914901Y432553D01*
X915091Y434000D01*
X914901Y435447D01*
X914342Y436796D01*
X913453Y437954D01*
X912486Y438696D01*
X912452Y438778D01*
Y439222D01*
X912486Y439304D01*
X913453Y440047D01*
X914342Y441204D01*
X914901Y442553D01*
X915091Y444000D01*
X914901Y445447D01*
X914342Y446796D01*
X913453Y447954D01*
X912296Y448842D01*
X910947Y449401D01*
X909500Y449591D01*
D02*
G37*
G36*
X839500D02*
X838053Y449401D01*
X836704Y448842D01*
X835546Y447954D01*
X834658Y446796D01*
X834099Y445447D01*
X833909Y444000D01*
X834099Y442553D01*
X834658Y441204D01*
X835546Y440047D01*
X836514Y439304D01*
X836548Y439222D01*
Y438778D01*
X836514Y438696D01*
X835546Y437954D01*
X834658Y436796D01*
X834099Y435447D01*
X833909Y434000D01*
X834099Y432553D01*
X834658Y431204D01*
X835546Y430047D01*
X836514Y429304D01*
X836548Y429222D01*
Y428778D01*
X836514Y428696D01*
X835546Y427953D01*
X834658Y426796D01*
X834099Y425447D01*
X833909Y424000D01*
X834099Y422553D01*
X834658Y421204D01*
X835546Y420047D01*
X836514Y419304D01*
X836548Y419222D01*
Y418778D01*
X836514Y418696D01*
X835546Y417953D01*
X834658Y416796D01*
X834099Y415447D01*
X833909Y414000D01*
X834099Y412553D01*
X834658Y411204D01*
X835546Y410046D01*
X836514Y409304D01*
X836548Y409222D01*
Y408778D01*
X836514Y408696D01*
X835546Y407954D01*
X834658Y406796D01*
X834099Y405447D01*
X833909Y404000D01*
X834099Y402553D01*
X834658Y401204D01*
X835546Y400046D01*
X836514Y399304D01*
X836548Y399222D01*
Y398778D01*
X836514Y398696D01*
X835546Y397954D01*
X834658Y396796D01*
X834099Y395447D01*
X833909Y394000D01*
X834099Y392553D01*
X834658Y391204D01*
X835546Y390047D01*
X836704Y389158D01*
X838053Y388599D01*
X839500Y388409D01*
X840947Y388599D01*
X842296Y389158D01*
X843454Y390047D01*
X844342Y391204D01*
X844901Y392553D01*
X845091Y394000D01*
X844901Y395447D01*
X844342Y396796D01*
X843454Y397954D01*
X842486Y398696D01*
X842452Y398778D01*
Y399222D01*
X842486Y399304D01*
X843454Y400046D01*
X844342Y401204D01*
X844901Y402553D01*
X845091Y404000D01*
X844901Y405447D01*
X844342Y406796D01*
X843454Y407954D01*
X842486Y408696D01*
X842452Y408778D01*
Y409222D01*
X842486Y409304D01*
X843454Y410046D01*
X844342Y411204D01*
X844901Y412553D01*
X845091Y414000D01*
X844901Y415447D01*
X844342Y416796D01*
X843454Y417953D01*
X842486Y418696D01*
X842452Y418778D01*
Y419222D01*
X842486Y419304D01*
X843454Y420047D01*
X844342Y421204D01*
X844901Y422553D01*
X845091Y424000D01*
X844901Y425447D01*
X844342Y426796D01*
X843454Y427953D01*
X842486Y428696D01*
X842452Y428778D01*
Y429222D01*
X842486Y429304D01*
X843454Y430047D01*
X844342Y431204D01*
X844901Y432553D01*
X845091Y434000D01*
X844901Y435447D01*
X844342Y436796D01*
X843454Y437954D01*
X842486Y438696D01*
X842452Y438778D01*
Y439222D01*
X842486Y439304D01*
X843454Y440047D01*
X844342Y441204D01*
X844901Y442553D01*
X845091Y444000D01*
X844901Y445447D01*
X844342Y446796D01*
X843454Y447954D01*
X842296Y448842D01*
X840947Y449401D01*
X839500Y449591D01*
D02*
G37*
G36*
X731358Y385796D02*
X731248Y385774D01*
X731136Y385783D01*
X731088Y385769D01*
X725630D01*
Y377832D01*
X731088D01*
X731136Y377817D01*
X731248Y377826D01*
X731358Y377804D01*
X731495Y377832D01*
X733370D01*
Y378761D01*
X733410Y378762D01*
X733466Y378774D01*
X735447D01*
X735744Y378477D01*
X736030Y377785D01*
X736575Y377075D01*
X737285Y376530D01*
X738112Y376187D01*
X739000Y376071D01*
X739888Y376187D01*
X740715Y376530D01*
X741000Y376749D01*
X741285Y376530D01*
X742112Y376187D01*
X743000Y376071D01*
X743888Y376187D01*
X744715Y376530D01*
X745425Y377075D01*
X745970Y377785D01*
X746313Y378612D01*
X746429Y379500D01*
X746313Y380388D01*
X745970Y381215D01*
X745425Y381925D01*
X744715Y382470D01*
X743888Y382812D01*
X743000Y382929D01*
X742112Y382812D01*
X741285Y382470D01*
X741000Y382251D01*
X740715Y382470D01*
X740023Y382756D01*
X738840Y383940D01*
X738213Y384420D01*
X737483Y384723D01*
X736700Y384826D01*
X733466D01*
X733410Y384839D01*
X733370Y384840D01*
Y385769D01*
X731495D01*
X731358Y385796D01*
D02*
G37*
G36*
X698600Y386296D02*
X697307Y386125D01*
X696102Y385626D01*
X695068Y384832D01*
X694274Y383798D01*
X693775Y382593D01*
X693605Y381300D01*
X693775Y380007D01*
X693832Y379869D01*
X693554Y379453D01*
X687547D01*
Y376564D01*
X687047Y376464D01*
X686826Y376998D01*
X686032Y378032D01*
X684998Y378826D01*
X683793Y379325D01*
X682500Y379496D01*
X681207Y379325D01*
X680002Y378826D01*
X678968Y378032D01*
X678174Y376998D01*
X677675Y375793D01*
X677504Y374500D01*
X677675Y373207D01*
X678174Y372002D01*
X678968Y370968D01*
X680002Y370174D01*
X681207Y369675D01*
X682500Y369504D01*
X683793Y369675D01*
X684998Y370174D01*
X686032Y370968D01*
X686826Y372002D01*
X687047Y372536D01*
X687547Y372436D01*
Y369547D01*
X697453D01*
Y376076D01*
X697829Y376406D01*
X698600Y376305D01*
X699893Y376475D01*
X701098Y376974D01*
X702132Y377768D01*
X702926Y378802D01*
X703425Y380007D01*
X703595Y381300D01*
X703425Y382593D01*
X702926Y383798D01*
X702132Y384832D01*
X701098Y385626D01*
X699893Y386125D01*
X698600Y386296D01*
D02*
G37*
G36*
X777969Y388870D02*
X770031D01*
Y381639D01*
X769987Y381621D01*
X769360Y381140D01*
X742860Y354640D01*
X742380Y354013D01*
X742077Y353283D01*
X741974Y352500D01*
Y327080D01*
X741687Y326388D01*
X741571Y325500D01*
X741687Y324612D01*
X742030Y323785D01*
X742575Y323075D01*
X743285Y322530D01*
X744112Y322187D01*
X745000Y322071D01*
X745888Y322187D01*
X746715Y322530D01*
X747425Y323075D01*
X747970Y323785D01*
X748164Y324255D01*
X748678Y324187D01*
X748688Y324112D01*
X749030Y323285D01*
X749575Y322575D01*
X750285Y322030D01*
X751112Y321688D01*
X752000Y321571D01*
X752888Y321688D01*
X753715Y322030D01*
X754425Y322575D01*
X754970Y323285D01*
X755312Y324112D01*
X755429Y325000D01*
X755312Y325888D01*
X755026Y326579D01*
Y349504D01*
X774880Y369358D01*
X775408Y369179D01*
X775483Y368612D01*
X775769Y367920D01*
Y362205D01*
X775873Y361422D01*
X776175Y360692D01*
X776656Y360065D01*
X785974Y350747D01*
Y338753D01*
X777361Y330140D01*
X776880Y329513D01*
X776578Y328784D01*
X776475Y328000D01*
Y310591D01*
X776188Y309899D01*
X776071Y309012D01*
X776188Y308124D01*
X776531Y307297D01*
X777076Y306587D01*
X777786Y306042D01*
X778613Y305699D01*
X779500Y305582D01*
X780388Y305699D01*
X781215Y306042D01*
X781925Y306587D01*
X782470Y307297D01*
X782813Y308124D01*
X782930Y309012D01*
X782813Y309899D01*
X782526Y310591D01*
Y326747D01*
X791140Y335360D01*
X791620Y335987D01*
X791923Y336717D01*
X792026Y337500D01*
Y352000D01*
X791923Y352783D01*
X791620Y353513D01*
X791140Y354140D01*
X791140Y354140D01*
X781821Y363458D01*
Y367322D01*
X782321Y367660D01*
X783000Y367571D01*
X783888Y367688D01*
X784715Y368030D01*
X785425Y368575D01*
X785970Y369285D01*
X786312Y370112D01*
X786429Y371000D01*
X786312Y371888D01*
X786011Y372617D01*
X785923Y373283D01*
X785620Y374013D01*
X785140Y374640D01*
X784267Y375512D01*
X784458Y375974D01*
X791995D01*
X792687Y375688D01*
X793574Y375571D01*
X794462Y375688D01*
X795289Y376030D01*
X795999Y376575D01*
X796544Y377285D01*
X796887Y378112D01*
X797004Y379000D01*
X796887Y379888D01*
X796544Y380715D01*
X795999Y381425D01*
X795289Y381970D01*
X794462Y382312D01*
X793574Y382429D01*
X792687Y382312D01*
X791995Y382026D01*
X779031D01*
X778861Y382526D01*
X778925Y382575D01*
X779470Y383285D01*
X779812Y384112D01*
X779929Y385000D01*
X779812Y385888D01*
X779470Y386715D01*
X778925Y387425D01*
X778215Y387970D01*
X777969Y388072D01*
Y388870D01*
D02*
G37*
G36*
X809500Y370535D02*
X808197Y370364D01*
X806982Y369861D01*
X805940Y369060D01*
X805139Y368018D01*
X804636Y366803D01*
X804465Y365500D01*
X804636Y364197D01*
X805139Y362982D01*
X805940Y361940D01*
X806982Y361139D01*
X807873Y360771D01*
Y360229D01*
X806982Y359861D01*
X805940Y359060D01*
X805139Y358018D01*
X804636Y356803D01*
X804465Y355500D01*
X804636Y354197D01*
X805139Y352982D01*
X805940Y351940D01*
X806982Y351139D01*
X808197Y350636D01*
X809500Y350465D01*
X810803Y350636D01*
X812018Y351139D01*
X813060Y351940D01*
X813861Y352982D01*
X814364Y354197D01*
X814535Y355500D01*
X814364Y356803D01*
X813861Y358018D01*
X813060Y359060D01*
X812018Y359861D01*
X811127Y360229D01*
Y360771D01*
X812018Y361139D01*
X813060Y361940D01*
X813861Y362982D01*
X814364Y364197D01*
X814535Y365500D01*
X814364Y366803D01*
X813861Y368018D01*
X813060Y369060D01*
X812018Y369861D01*
X810803Y370364D01*
X809500Y370535D01*
D02*
G37*
G36*
X698700Y356598D02*
X697510Y356442D01*
X696401Y355982D01*
X695448Y355252D01*
X694718Y354299D01*
X694258Y353190D01*
X694102Y352000D01*
X694258Y350810D01*
X694718Y349701D01*
X695448Y348748D01*
X696401Y348018D01*
X697510Y347558D01*
X698700Y347402D01*
X699890Y347558D01*
X700999Y348018D01*
X701952Y348748D01*
X702682Y349701D01*
X703142Y350810D01*
X703298Y352000D01*
X703142Y353190D01*
X702682Y354299D01*
X701952Y355252D01*
X700999Y355982D01*
X699890Y356442D01*
X698700Y356598D01*
D02*
G37*
G36*
X845500Y352300D02*
X843999Y352102D01*
X842600Y351523D01*
X841399Y350601D01*
X840477Y349400D01*
X839898Y348001D01*
X839700Y346500D01*
X839898Y344999D01*
X840477Y343600D01*
X841399Y342399D01*
X842600Y341477D01*
X843999Y340898D01*
X845500Y340700D01*
X847001Y340898D01*
X848400Y341477D01*
X849601Y342399D01*
X850523Y343600D01*
X851102Y344999D01*
X851300Y346500D01*
X851102Y348001D01*
X850523Y349400D01*
X849601Y350601D01*
X848400Y351523D01*
X847001Y352102D01*
X845500Y352300D01*
D02*
G37*
G36*
X779500Y350300D02*
X777999Y350102D01*
X776600Y349523D01*
X775399Y348601D01*
X774477Y347400D01*
X773898Y346001D01*
X773700Y344500D01*
X773898Y342999D01*
X774477Y341600D01*
X775399Y340399D01*
X776600Y339477D01*
X777999Y338898D01*
X779500Y338700D01*
X781001Y338898D01*
X782400Y339477D01*
X783601Y340399D01*
X784523Y341600D01*
X785102Y342999D01*
X785300Y344500D01*
X785102Y346001D01*
X784523Y347400D01*
X783601Y348601D01*
X782400Y349523D01*
X781001Y350102D01*
X779500Y350300D01*
D02*
G37*
G36*
X960968Y337610D02*
X950827D01*
Y323335D01*
X960968D01*
Y337610D01*
D02*
G37*
G36*
X820500Y322300D02*
X818999Y322102D01*
X817600Y321523D01*
X816399Y320601D01*
X815477Y319400D01*
X814898Y318001D01*
X814700Y316500D01*
X814898Y314999D01*
X815477Y313600D01*
X816399Y312399D01*
X817600Y311477D01*
X818999Y310898D01*
X820500Y310700D01*
X822001Y310898D01*
X823400Y311477D01*
X824601Y312399D01*
X825523Y313600D01*
X826102Y314999D01*
X826300Y316500D01*
X826102Y318001D01*
X825523Y319400D01*
X824601Y320601D01*
X823400Y321523D01*
X822001Y322102D01*
X820500Y322300D01*
D02*
G37*
%LPD*%
G36*
X870573Y449879D02*
X870543Y449843D01*
X870517Y449783D01*
X870494Y449699D01*
X870475Y449591D01*
X870459Y449459D01*
X870438Y449123D01*
X870431Y448691D01*
X869231D01*
X869229Y448919D01*
X869187Y449591D01*
X869168Y449699D01*
X869145Y449783D01*
X869118Y449843D01*
X869089Y449879D01*
X869055Y449891D01*
X870606D01*
X870573Y449879D01*
D02*
G37*
G36*
X875719Y449876D02*
X875715Y449831D01*
X875708Y449651D01*
X875699Y448391D01*
X874199D01*
X874173Y449891D01*
X875724D01*
X875719Y449876D01*
D02*
G37*
G36*
X873160D02*
X873156Y449831D01*
X873149Y449651D01*
X873140Y448391D01*
X871640D01*
X871614Y449891D01*
X873165D01*
X873160Y449876D01*
D02*
G37*
G36*
X864737Y441687D02*
X864815Y441669D01*
X864930Y441653D01*
X865274Y441627D01*
X866328Y441608D01*
Y441660D01*
X866335Y441648D01*
X866355Y441638D01*
X866389Y441629D01*
X866436Y441621D01*
X866496Y441615D01*
X866758Y441602D01*
X867000Y441600D01*
Y440400D01*
X866872Y440399D01*
X866389Y440371D01*
X866355Y440362D01*
X866335Y440352D01*
X866328Y440340D01*
Y440376D01*
X864697Y440293D01*
Y441708D01*
X864737Y441687D01*
D02*
G37*
G36*
X861640Y439831D02*
X861620Y439863D01*
X861560Y439892D01*
X861460Y439917D01*
X861320Y439939D01*
X861140Y439958D01*
X860360Y439993D01*
X859640Y440000D01*
Y442000D01*
X860020Y442002D01*
X861560Y442108D01*
X861620Y442137D01*
X861640Y442169D01*
Y439831D01*
D02*
G37*
G36*
X888408Y437137D02*
X888468Y437108D01*
X888568Y437083D01*
X888708Y437061D01*
X888888Y437042D01*
X889668Y437007D01*
X890388Y437000D01*
Y435000D01*
X890008Y434998D01*
X888468Y434892D01*
X888408Y434863D01*
X888388Y434831D01*
Y437169D01*
X888408Y437137D01*
D02*
G37*
G36*
X883687Y429831D02*
X883667Y429863D01*
X883607Y429892D01*
X883507Y429917D01*
X883367Y429939D01*
X883187Y429958D01*
X882407Y429993D01*
X881687Y430000D01*
Y432000D01*
X882067Y432002D01*
X883607Y432108D01*
X883667Y432137D01*
X883687Y432169D01*
Y429831D01*
D02*
G37*
G36*
X892142Y424044D02*
X892122Y424225D01*
X892062Y424388D01*
X891962Y424531D01*
X891822Y424656D01*
X891642Y424761D01*
X891422Y424847D01*
X891162Y424914D01*
X890862Y424962D01*
X890522Y424990D01*
X890179Y424999D01*
X890008Y424998D01*
X888468Y424892D01*
X888408Y424863D01*
X888388Y424831D01*
Y427169D01*
X888408Y427137D01*
X888468Y427108D01*
X888568Y427083D01*
X888708Y427061D01*
X888888Y427042D01*
X889668Y427007D01*
X890209Y427002D01*
X890522Y427010D01*
X890862Y427038D01*
X891162Y427086D01*
X891422Y427153D01*
X891642Y427239D01*
X891822Y427344D01*
X891962Y427469D01*
X892062Y427612D01*
X892122Y427775D01*
X892142Y427956D01*
Y424044D01*
D02*
G37*
G36*
X883687Y420238D02*
X883680Y420240D01*
X883657Y420242D01*
X883497Y420247D01*
X882925Y420250D01*
Y421750D01*
X883687Y421762D01*
Y420238D01*
D02*
G37*
G36*
Y415238D02*
X883680Y415240D01*
X883657Y415242D01*
X883497Y415247D01*
X882925Y415250D01*
Y416750D01*
X883687Y416762D01*
Y415238D01*
D02*
G37*
G36*
X717740Y428181D02*
X721259D01*
X721115Y428161D01*
X720986Y428101D01*
X720872Y428001D01*
X720773Y427861D01*
X720689Y427681D01*
X720621Y427461D01*
X720568Y427201D01*
X720530Y426902D01*
X720568Y426501D01*
X720621Y426241D01*
X720690Y426021D01*
X720773Y425841D01*
X720872Y425701D01*
X720986Y425601D01*
X721116Y425541D01*
X721260Y425521D01*
X717741D01*
X717885Y425541D01*
X718014Y425601D01*
X718128Y425701D01*
X718226Y425841D01*
X718310Y426021D01*
X718378Y426241D01*
X718431Y426501D01*
X718469Y426801D01*
X718431Y427201D01*
X718378Y427461D01*
X718310Y427681D01*
X718226Y427861D01*
X718127Y428001D01*
X718013Y428101D01*
X717884Y428161D01*
X717740Y428181D01*
X717720Y428214D01*
X717660Y428242D01*
X717560Y428268D01*
X717420Y428290D01*
X717240Y428308D01*
X716669Y428334D01*
X715340Y428242D01*
X715280Y428214D01*
X715260Y428181D01*
Y430520D01*
X715280Y430487D01*
X715340Y430459D01*
X715440Y430433D01*
X715580Y430411D01*
X715760Y430393D01*
X716331Y430367D01*
X717660Y430459D01*
X717720Y430487D01*
X717740Y430520D01*
Y428181D01*
D02*
G37*
G36*
X818500Y437500D02*
X786500D01*
Y442000D01*
X793000D01*
Y463500D01*
X818500D01*
Y437500D01*
D02*
G37*
G36*
X773294Y432480D02*
X773127Y432360D01*
X772980Y432160D01*
X772853Y431880D01*
X772745Y431520D01*
X772657Y431080D01*
X772588Y430560D01*
X772510Y429280D01*
X772500Y428520D01*
X768500D01*
X768490Y429280D01*
X768343Y431080D01*
X768255Y431520D01*
X768147Y431880D01*
X768020Y432160D01*
X767873Y432360D01*
X767706Y432480D01*
X767520Y432520D01*
X773480D01*
X773294Y432480D01*
D02*
G37*
G36*
X717740Y416034D02*
X717720Y416066D01*
X717660Y416095D01*
X717560Y416120D01*
X717420Y416142D01*
X717240Y416161D01*
X716825Y416180D01*
X716635Y416163D01*
X716334Y416113D01*
X716072Y416043D01*
X715851Y415953D01*
X715670Y415843D01*
X715529Y415713D01*
X715428Y415563D01*
X715367Y415393D01*
X715346Y415203D01*
X715358Y418257D01*
X715378Y418246D01*
X715438Y418237D01*
X715538Y418229D01*
X716213Y418211D01*
X717660Y418311D01*
X717720Y418340D01*
X717740Y418372D01*
Y416034D01*
D02*
G37*
G36*
X801378Y390475D02*
X801438Y390312D01*
X801538Y390169D01*
X801678Y390044D01*
X801858Y389939D01*
X802078Y389853D01*
X802338Y389786D01*
X802638Y389738D01*
X802978Y389710D01*
X803358Y389700D01*
Y387700D01*
X802978Y387690D01*
X802638Y387662D01*
X802338Y387614D01*
X802078Y387547D01*
X801858Y387461D01*
X801678Y387356D01*
X801538Y387231D01*
X801438Y387088D01*
X801378Y386925D01*
X801358Y386743D01*
Y390656D01*
X801378Y390475D01*
D02*
G37*
G36*
X731379Y383575D02*
X731438Y383412D01*
X731538Y383269D01*
X731678Y383144D01*
X731858Y383039D01*
X732079Y382953D01*
X732338Y382886D01*
X732639Y382838D01*
X732978Y382810D01*
X733358Y382800D01*
Y380800D01*
X732978Y380790D01*
X732639Y380762D01*
X732338Y380714D01*
X732079Y380647D01*
X731858Y380561D01*
X731678Y380456D01*
X731538Y380331D01*
X731438Y380188D01*
X731379Y380025D01*
X731358Y379843D01*
Y383756D01*
X731379Y383575D01*
D02*
G37*
D25*
X700500Y449201D02*
D03*
D26*
Y461799D02*
D03*
D27*
X691500Y459200D02*
D03*
Y451800D02*
D03*
X713500Y416300D02*
D03*
Y423700D02*
D03*
X799500Y388700D02*
D03*
Y381300D02*
D03*
X729500Y381800D02*
D03*
Y389200D02*
D03*
X798000Y415700D02*
D03*
Y408300D02*
D03*
X894000Y426000D02*
D03*
Y418600D02*
D03*
D31*
X720200Y466500D02*
D03*
X712800D02*
D03*
X761800Y427000D02*
D03*
X769200D02*
D03*
X809200Y400500D02*
D03*
X801800D02*
D03*
X774000Y385000D02*
D03*
X766600D02*
D03*
D32*
X710595Y460217D02*
D03*
Y452737D02*
D03*
X722405D02*
D03*
Y456477D02*
D03*
Y460217D02*
D03*
D33*
X729499Y452851D02*
D03*
X729500Y460000D02*
D03*
X719500Y436500D02*
D03*
X719499Y429351D02*
D03*
X713500D02*
D03*
X713500Y436500D02*
D03*
X719500Y417203D02*
D03*
X719500Y424352D02*
D03*
X923256Y349500D02*
D03*
X923256Y356649D02*
D03*
X929756Y349500D02*
D03*
X929756Y356649D02*
D03*
X936256Y349500D02*
D03*
X936256Y356649D02*
D03*
D95*
X883000Y441000D02*
X886037D01*
X880149Y443851D02*
X883000Y441000D01*
X880149Y443851D02*
Y453816D01*
X863990Y441000D02*
X867000D01*
X869831Y443831D01*
Y453816D01*
D96*
X785000Y421500D02*
X793500D01*
X794500Y417000D02*
X795800Y415700D01*
X949756Y340256D02*
X955756D01*
X765000Y385000D02*
X771500Y391500D01*
X943000Y416000D02*
X992000Y367000D01*
X997370D01*
X828500Y431700D02*
Y434500D01*
X824826Y428026D02*
X828500Y431700D01*
X805100Y408300D02*
X824826Y428026D01*
X798000Y408300D02*
X805100D01*
X780500Y425500D02*
Y437250D01*
X773000Y418000D02*
X780500Y425500D01*
X733000Y418000D02*
X773000D01*
X730000Y415000D02*
X733000Y418000D01*
X774500Y411000D02*
X785000Y421500D01*
X735500Y411000D02*
X774500D01*
X780250Y437500D02*
X780500Y437250D01*
X730000Y407500D02*
Y415000D01*
Y407500D02*
X733000Y404500D01*
X737000D01*
X700500Y461799D02*
X702082Y460217D01*
X697901Y459200D02*
X700500Y461799D01*
X799500Y381300D02*
X805300Y375500D01*
X713500Y414000D02*
X716500Y411000D01*
X713500Y414000D02*
Y416300D01*
X854500Y445500D02*
X859000Y441000D01*
X863990D01*
X734500Y362500D02*
Y362515D01*
X723758Y373257D02*
X734500Y362515D01*
X795800Y415700D02*
X798000D01*
X793574Y387226D02*
X799500Y381300D01*
X789300Y391500D02*
X793574Y387226D01*
Y396074D02*
X798000Y400500D01*
X793574Y387226D02*
Y396074D01*
X752000Y385000D02*
X765000D01*
X771500Y391500D02*
X789300D01*
X798000Y400500D02*
Y408300D01*
Y400500D02*
X801800D01*
X750000Y387000D02*
X752000Y385000D01*
X774000D02*
X776500D01*
X783000Y371000D02*
Y372500D01*
X781000Y374500D02*
X783000Y372500D01*
X775742Y374500D02*
X781000D01*
X752000Y350758D02*
X775742Y374500D01*
X752000Y325000D02*
Y350758D01*
X771500Y379000D02*
X793574D01*
X745000Y352500D02*
X771500Y379000D01*
X745000Y325500D02*
Y352500D01*
X778795Y362205D02*
Y369500D01*
Y362205D02*
X789000Y352000D01*
Y337500D02*
Y352000D01*
X779500Y328000D02*
X789000Y337500D01*
X779500Y309012D02*
Y328000D01*
X900000Y444500D02*
X909500Y454000D01*
X900000Y436000D02*
Y444500D01*
X696000Y459200D02*
X697901D01*
X691500D02*
X696000D01*
X859903Y340903D02*
Y346989D01*
X845500Y326500D02*
X859903Y340903D01*
X723758Y373257D02*
Y381500D01*
X710000Y359500D02*
X723758Y373257D01*
Y381500D02*
Y387258D01*
X725700Y389200D01*
X729500D01*
X747800D02*
X750000Y387000D01*
X729500Y389200D02*
X747800D01*
X936256Y355000D02*
Y356649D01*
X799500Y388700D02*
X806300D01*
X809500Y385500D01*
X736700Y381800D02*
X739000Y379500D01*
X729500Y381800D02*
X736700D01*
X722405Y460217D02*
X733783D01*
X714403Y417203D02*
X719500D01*
X713500Y416300D02*
X714403Y417203D01*
X880500Y431000D02*
X886037D01*
Y436000D02*
X893000D01*
X895000Y441000D02*
X900000Y436000D01*
X886037Y441000D02*
X895000D01*
X900000Y421000D02*
Y436000D01*
X897600Y418600D02*
X900000Y421000D01*
X700500Y449201D02*
X715295D01*
X716500Y450406D01*
X710595Y444500D02*
X715295Y449201D01*
X716500Y450406D02*
Y458000D01*
X713200Y424000D02*
X713500Y423700D01*
X710595Y424000D02*
X713200D01*
X706500Y428094D02*
X710595Y424000D01*
X706500Y428094D02*
Y440500D01*
X710595D01*
X706500D02*
Y444500D01*
X710595D01*
Y440500D02*
X713500Y437594D01*
Y436500D02*
Y437594D01*
X713500Y429351D02*
X719499D01*
Y424353D02*
X719500Y424352D01*
X719499Y424353D02*
Y429351D01*
X691500Y451800D02*
X694099Y449201D01*
X700500D01*
X702082Y460217D02*
X710595D01*
X718023Y456477D02*
X722405D01*
X716500Y458000D02*
X718023Y456477D01*
X716500Y458000D02*
Y462800D01*
X712800Y466500D02*
X716500Y462800D01*
X720200Y466500D02*
X727500D01*
X733783Y460217D01*
X729385Y452737D02*
X729499Y452851D01*
X722405Y452737D02*
X729385D01*
X733783Y460217D02*
X738000Y456000D01*
X894000Y418600D02*
X897600D01*
X886037Y426000D02*
X894000D01*
X929756Y356649D02*
Y360744D01*
X927500Y363000D02*
X929756Y360744D01*
X915000Y363000D02*
X927500D01*
X902000Y350000D02*
X915000Y363000D01*
X902000Y288000D02*
Y350000D01*
X919649Y356649D02*
X923256D01*
X907500Y344500D02*
X919649Y356649D01*
X907500Y287500D02*
Y344500D01*
X924756Y340256D02*
Y344744D01*
X923256Y346244D02*
X924756Y344744D01*
X923256Y346244D02*
Y349500D01*
X936256Y346256D02*
Y349500D01*
X934756Y344756D02*
X936256Y346256D01*
X934756Y340256D02*
Y344756D01*
X929756Y340256D02*
Y349500D01*
X944756Y315256D02*
Y340256D01*
X917500Y288000D02*
X944756Y315256D01*
D99*
X791900Y431400D02*
X819298D01*
X821949Y434051D01*
X799500Y344500D02*
X817500Y326500D01*
X845500D01*
X805300Y375500D02*
X809500D01*
X804500D02*
X805300D01*
X799500Y370500D02*
X804500Y375500D01*
X799500Y344500D02*
Y370500D01*
X760500Y442000D02*
X771500Y453000D01*
X760500Y435500D02*
Y442000D01*
X771500Y453000D02*
X781000D01*
X760500Y428300D02*
Y435500D01*
Y428300D02*
X761800Y427000D01*
X770500Y428300D02*
Y435500D01*
X769200Y427000D02*
X770500Y428300D01*
X847898Y454000D02*
X859398Y465500D01*
X839500Y454000D02*
X847898D01*
X926500Y464500D02*
X946000D01*
X916000Y454000D02*
X926500Y464500D01*
X909500Y454000D02*
X916000D01*
X902000D02*
X909500D01*
X890500Y465500D02*
X902000Y454000D01*
X859398Y465500D02*
X890500D01*
D101*
X770500Y435500D02*
D03*
D102*
X760500D02*
D03*
X750500D02*
D03*
X740500D02*
D03*
X809500Y375500D02*
D03*
Y365500D02*
D03*
Y355500D02*
D03*
D103*
X758000Y456000D02*
D03*
X738000D02*
D03*
X779500Y344500D02*
D03*
X799500D02*
D03*
X845500Y346500D02*
D03*
Y326500D02*
D03*
X820500Y316500D02*
D03*
Y296500D02*
D03*
D104*
X682500Y374500D02*
D03*
X698600Y381300D02*
D03*
D105*
X692500Y374500D02*
D03*
D106*
X809500Y385500D02*
D03*
D107*
X909500Y394000D02*
D03*
Y404000D02*
D03*
Y414000D02*
D03*
Y424000D02*
D03*
Y434000D02*
D03*
Y444000D02*
D03*
Y454000D02*
D03*
Y464000D02*
D03*
X839500D02*
D03*
Y454000D02*
D03*
Y444000D02*
D03*
Y434000D02*
D03*
Y424000D02*
D03*
Y414000D02*
D03*
Y404000D02*
D03*
Y394000D02*
D03*
D108*
X965500Y432500D02*
D03*
X954500Y438500D02*
D03*
X926500Y448500D02*
D03*
D109*
X928500Y418500D02*
D03*
D110*
X946000Y464500D02*
D03*
D111*
X678500Y285500D02*
D03*
Y458614D02*
D03*
X978000D02*
D03*
Y285500D02*
D03*
D112*
X997370Y437000D02*
D03*
Y427000D02*
D03*
Y417000D02*
D03*
Y407000D02*
D03*
Y397000D02*
D03*
Y387000D02*
D03*
Y377000D02*
D03*
Y367000D02*
D03*
Y357000D02*
D03*
Y347000D02*
D03*
Y337000D02*
D03*
Y327000D02*
D03*
Y317000D02*
D03*
D113*
Y307000D02*
D03*
D114*
X698700Y352000D02*
D03*
D115*
X791900Y431400D02*
D03*
X793500Y421500D02*
D03*
X794500Y417000D02*
D03*
X795327Y439500D02*
D03*
X791500D02*
D03*
X788000D02*
D03*
X951500Y342500D02*
D03*
X954500Y354113D02*
D03*
X977000Y354000D02*
D03*
X960500Y354113D02*
D03*
X966000D02*
D03*
X971341Y354000D02*
D03*
X977000Y342500D02*
D03*
X971341D02*
D03*
X966000D02*
D03*
X960500D02*
D03*
X943000Y416000D02*
D03*
X828500Y434500D02*
D03*
X737000Y404500D02*
D03*
X735500Y411000D02*
D03*
X780250Y437500D02*
D03*
X795327Y443500D02*
D03*
X743000Y379500D02*
D03*
X720200Y440750D02*
D03*
X821949Y434051D02*
D03*
X716500Y411000D02*
D03*
X854500Y445500D02*
D03*
X696000Y330472D02*
D03*
Y336000D02*
D03*
Y325500D02*
D03*
X701000Y330500D02*
D03*
Y325500D02*
D03*
Y336000D02*
D03*
X776500Y385000D02*
D03*
X745000Y325500D02*
D03*
X752000Y325000D02*
D03*
X710000Y359500D02*
D03*
X723758Y381500D02*
D03*
X936256Y355000D02*
D03*
X700500Y459200D02*
D03*
Y463000D02*
D03*
X696000Y459200D02*
D03*
Y463000D02*
D03*
X691500D02*
D03*
Y459200D02*
D03*
X720200Y437000D02*
D03*
X880500Y431000D02*
D03*
X893000Y436000D02*
D03*
X734500Y362500D02*
D03*
X739000Y379500D02*
D03*
X750000Y387000D02*
D03*
X710595Y444500D02*
D03*
X706500D02*
D03*
Y440500D02*
D03*
X710595D02*
D03*
X793574Y379000D02*
D03*
X778795Y369500D02*
D03*
X783000Y371000D02*
D03*
X779500Y309012D02*
D03*
X696500Y396500D02*
D03*
X701000D02*
D03*
Y404000D02*
D03*
X696500D02*
D03*
X809047Y402500D02*
D03*
X859903Y346989D02*
D03*
X955756Y340256D02*
D03*
X917500Y288000D02*
D03*
X907500Y287500D02*
D03*
X902000Y288000D02*
D03*
D116*
X732284Y318898D02*
D03*
X734252Y314961D02*
D03*
Y307087D02*
D03*
X728347Y318898D02*
D03*
X724410D02*
D03*
X720473D02*
D03*
Y303150D02*
D03*
X716536Y318898D02*
D03*
X718504Y314961D02*
D03*
X716536Y303150D02*
D03*
X712599Y318898D02*
D03*
X714567Y314961D02*
D03*
X712599Y303150D02*
D03*
X708662Y318898D02*
D03*
X710630Y314961D02*
D03*
X708662Y303150D02*
D03*
X704725Y318898D02*
D03*
X706693Y314961D02*
D03*
X704725Y303150D02*
D03*
X700788Y318898D02*
D03*
X702756Y314961D02*
D03*
X700788Y303150D02*
D03*
X696851Y318898D02*
D03*
X698819Y314961D02*
D03*
X696851Y303150D02*
D03*
X692914Y318898D02*
D03*
X694882Y314961D02*
D03*
X688977Y318898D02*
D03*
X690945Y314961D02*
D03*
X685040Y318898D02*
D03*
X687008Y314961D02*
D03*
X685040Y303150D02*
D03*
D117*
X698600Y400100D02*
D03*
Y330700D02*
D03*
D118*
X869831Y453816D02*
D03*
X872390D02*
D03*
X874949D02*
D03*
X877508D02*
D03*
X880149D02*
D03*
D119*
X859398Y465500D02*
D03*
X890500D02*
D03*
D120*
X893772Y280472D02*
D03*
Y330472D02*
D03*
X955898Y280472D02*
D03*
Y330472D02*
D03*
D121*
X924756Y340256D02*
D03*
X929756D02*
D03*
X934756D02*
D03*
X939756D02*
D03*
X944756D02*
D03*
X949756D02*
D03*
D122*
X781000Y453000D02*
D03*
X810000Y453000D02*
D03*
D123*
X863990Y441000D02*
D03*
Y436000D02*
D03*
Y431000D02*
D03*
Y426000D02*
D03*
Y421000D02*
D03*
Y416000D02*
D03*
Y411000D02*
D03*
Y406000D02*
D03*
X886037D02*
D03*
Y411000D02*
D03*
Y416000D02*
D03*
Y421000D02*
D03*
Y426000D02*
D03*
Y431000D02*
D03*
Y436000D02*
D03*
Y441000D02*
D03*
D124*
X882925Y416000D02*
X886037D01*
X872390Y426535D02*
X882925Y416000D01*
X872390Y426535D02*
Y453816D01*
X882925Y421000D02*
X886037D01*
X874949Y428976D02*
X882925Y421000D01*
X874949Y428976D02*
Y453816D01*
M02*
