G04*
G04 #@! TF.GenerationSoftware,Altium Limited,Altium Designer,18.1.6 (161)*
G04*
G04 Layer_Color=128*
%FSLAX25Y25*%
%MOIN*%
G70*
G01*
G75*
%ADD138C,0.00200*%
D138*
X791199Y428000D02*
X792800D01*
X791999Y427200D02*
Y428800D01*
X788026Y424500D02*
X789626D01*
X788826Y423700D02*
Y425300D01*
X787200Y431000D02*
X788800D01*
X788000Y430200D02*
Y431800D01*
X784700Y434051D02*
X786300D01*
X785500Y433251D02*
Y434851D01*
X844700Y372500D02*
X846300D01*
X845500Y371700D02*
Y373300D01*
X864200Y377000D02*
X865800D01*
X865000Y376200D02*
Y377800D01*
X795222Y401453D02*
X796822D01*
X796022Y400653D02*
Y402253D01*
X798700Y397500D02*
X800300D01*
X799500Y396700D02*
Y398300D01*
X891700Y321500D02*
X893300D01*
X892500Y320700D02*
Y322300D01*
X895200Y321500D02*
X896800D01*
X896000Y320700D02*
Y322300D01*
X895200Y325000D02*
X896800D01*
X896000Y324200D02*
Y325800D01*
X895200Y328500D02*
X896800D01*
X896000Y327700D02*
Y329300D01*
X895200Y332000D02*
X896800D01*
X896000Y331200D02*
Y332800D01*
X891700Y325000D02*
X893300D01*
X892500Y324200D02*
Y325800D01*
X891700Y328500D02*
X893300D01*
X892500Y327700D02*
Y329300D01*
X891700Y332000D02*
X893300D01*
X892500Y331200D02*
Y332800D01*
X751700Y413000D02*
X753300D01*
X752500Y412200D02*
Y413800D01*
X745200Y426811D02*
X746800D01*
X746000Y426011D02*
Y427611D01*
X766200Y445000D02*
X767800D01*
X767000Y444200D02*
Y445800D01*
X778700Y400000D02*
X780300D01*
X779500Y399200D02*
Y400800D01*
X818700Y402500D02*
X820300D01*
X819500Y401700D02*
Y403300D01*
X870713Y325000D02*
X872313D01*
X871513Y324200D02*
Y325800D01*
X728200Y364500D02*
X729800D01*
X729000Y363700D02*
Y365300D01*
X775700Y415000D02*
X777300D01*
X776500Y414200D02*
Y415800D01*
X770600Y415000D02*
X772200D01*
X771400Y414200D02*
Y415800D01*
X734700Y383500D02*
X736300D01*
X735500Y382700D02*
Y384300D01*
X733700Y387673D02*
X735300D01*
X734500Y386873D02*
Y388473D01*
X722700Y391610D02*
X724300D01*
X723500Y390810D02*
Y392410D01*
X712700Y391500D02*
X714300D01*
X713500Y390700D02*
Y392300D01*
X814153Y401500D02*
X815753D01*
X814953Y400700D02*
Y402300D01*
X828580Y322500D02*
X830180D01*
X829380Y321700D02*
Y323300D01*
X858200Y360142D02*
X859800D01*
X859000Y359342D02*
Y360942D01*
X789900Y292800D02*
X791500D01*
X790700Y292000D02*
Y293600D01*
X784539Y279599D02*
X786139D01*
X785339Y278800D02*
Y280399D01*
X803080Y283254D02*
X804680D01*
X803880Y282454D02*
Y284054D01*
X885200Y277300D02*
X886800D01*
X886000Y276500D02*
Y278100D01*
X856080Y277000D02*
X857680D01*
X856880Y276200D02*
Y277800D01*
X855580Y295620D02*
X857180D01*
X856380Y294820D02*
Y296420D01*
X898200Y355000D02*
X899800D01*
X899000Y354200D02*
Y355800D01*
X860200Y321500D02*
X861800D01*
X861000Y320700D02*
Y322300D01*
X892200Y353500D02*
X893800D01*
X893000Y352700D02*
Y354300D01*
M02*
