G04*
G04 #@! TF.GenerationSoftware,Altium Limited,Altium Designer,18.1.6 (161)*
G04*
G04 Layer_Color=8421504*
%FSLAX25Y25*%
%MOIN*%
G70*
G01*
G75*
%ADD23R,0.07874X0.08268*%
%ADD24R,0.06693X0.07874*%
G04:AMPARAMS|DCode=25|XSize=60mil|YSize=60mil|CornerRadius=15mil|HoleSize=0mil|Usage=FLASHONLY|Rotation=90.000|XOffset=0mil|YOffset=0mil|HoleType=Round|Shape=RoundedRectangle|*
%AMROUNDEDRECTD25*
21,1,0.06000,0.03000,0,0,90.0*
21,1,0.03000,0.06000,0,0,90.0*
1,1,0.03000,0.01500,0.01500*
1,1,0.03000,0.01500,-0.01500*
1,1,0.03000,-0.01500,-0.01500*
1,1,0.03000,-0.01500,0.01500*
%
%ADD25ROUNDEDRECTD25*%
%ADD26R,0.06000X0.06000*%
%ADD27R,0.03740X0.03937*%
G04:AMPARAMS|DCode=28|XSize=60mil|YSize=60mil|CornerRadius=15mil|HoleSize=0mil|Usage=FLASHONLY|Rotation=0.000|XOffset=0mil|YOffset=0mil|HoleType=Round|Shape=RoundedRectangle|*
%AMROUNDEDRECTD28*
21,1,0.06000,0.03000,0,0,0.0*
21,1,0.03000,0.06000,0,0,0.0*
1,1,0.03000,0.01500,-0.01500*
1,1,0.03000,-0.01500,-0.01500*
1,1,0.03000,-0.01500,0.01500*
1,1,0.03000,0.01500,0.01500*
%
%ADD28ROUNDEDRECTD28*%
%ADD29R,0.06000X0.06000*%
%ADD30R,0.05906X0.03937*%
%ADD31R,0.03937X0.03740*%
%ADD32R,0.05906X0.02362*%
%ADD33R,0.03543X0.02362*%
%ADD34R,0.01181X0.05906*%
%ADD35R,0.05906X0.01181*%
%ADD36R,0.05118X0.02756*%
%ADD37R,0.02362X0.03543*%
G04:AMPARAMS|DCode=38|XSize=33.47mil|YSize=13.78mil|CornerRadius=1.72mil|HoleSize=0mil|Usage=FLASHONLY|Rotation=90.000|XOffset=0mil|YOffset=0mil|HoleType=Round|Shape=RoundedRectangle|*
%AMROUNDEDRECTD38*
21,1,0.03347,0.01034,0,0,90.0*
21,1,0.03002,0.01378,0,0,90.0*
1,1,0.00345,0.00517,0.01501*
1,1,0.00345,0.00517,-0.01501*
1,1,0.00345,-0.00517,-0.01501*
1,1,0.00345,-0.00517,0.01501*
%
%ADD38ROUNDEDRECTD38*%
G04:AMPARAMS|DCode=39|XSize=31.5mil|YSize=13.78mil|CornerRadius=1.72mil|HoleSize=0mil|Usage=FLASHONLY|Rotation=0.000|XOffset=0mil|YOffset=0mil|HoleType=Round|Shape=RoundedRectangle|*
%AMROUNDEDRECTD39*
21,1,0.03150,0.01034,0,0,0.0*
21,1,0.02805,0.01378,0,0,0.0*
1,1,0.00345,0.01403,-0.00517*
1,1,0.00345,-0.01403,-0.00517*
1,1,0.00345,-0.01403,0.00517*
1,1,0.00345,0.01403,0.00517*
%
%ADD39ROUNDEDRECTD39*%
%ADD40R,0.07480X0.09449*%
%ADD41R,0.05000X0.05500*%
%ADD42R,0.08661X0.02362*%
%ADD43O,0.02362X0.07087*%
%ADD44O,0.07087X0.02362*%
%ADD45R,0.03347X0.04724*%
G04:AMPARAMS|DCode=46|XSize=98.43mil|YSize=169.29mil|CornerRadius=24.61mil|HoleSize=0mil|Usage=FLASHONLY|Rotation=90.000|XOffset=0mil|YOffset=0mil|HoleType=Round|Shape=RoundedRectangle|*
%AMROUNDEDRECTD46*
21,1,0.09843,0.12008,0,0,90.0*
21,1,0.04921,0.16929,0,0,90.0*
1,1,0.04921,0.06004,0.02461*
1,1,0.04921,0.06004,-0.02461*
1,1,0.04921,-0.06004,-0.02461*
1,1,0.04921,-0.06004,0.02461*
%
%ADD46ROUNDEDRECTD46*%
%ADD47R,0.08661X0.03937*%
%ADD48R,0.03937X0.03937*%
%ADD49R,0.05500X0.05000*%
G36*
X723374Y278614D02*
X723291Y278618D01*
X723209Y278630D01*
X723130Y278646D01*
X723047Y278665D01*
X722968Y278689D01*
X722894Y278716D01*
X722815Y278748D01*
X722740Y278783D01*
X722669Y278823D01*
X722598Y278866D01*
X722532Y278909D01*
X722465Y278961D01*
X722402Y279016D01*
X722342Y279071D01*
X722287Y279130D01*
X722232Y279193D01*
X722181Y279260D01*
X722138Y279327D01*
X722094Y279398D01*
X722055Y279468D01*
X722020Y279543D01*
X721988Y279622D01*
X721961Y279697D01*
X721937Y279776D01*
X721917Y279858D01*
X721902Y279937D01*
X721890Y280020D01*
X721886Y280102D01*
X721882Y280185D01*
X721886Y280268D01*
X721890Y280350D01*
X721902Y280433D01*
X721917Y280512D01*
X721937Y280594D01*
X721961Y280673D01*
X721988Y280748D01*
X722020Y280827D01*
X722055Y280902D01*
X722094Y280972D01*
X722138Y281043D01*
X722181Y281110D01*
X722232Y281177D01*
X722287Y281240D01*
X722342Y281299D01*
X722402Y281354D01*
X722465Y281409D01*
X722532Y281461D01*
X722598Y281504D01*
X722669Y281547D01*
X722740Y281587D01*
X722815Y281622D01*
X722894Y281653D01*
X722968Y281681D01*
X723047Y281705D01*
X723130Y281724D01*
X723209Y281740D01*
X723291Y281752D01*
X723374Y281756D01*
X723457Y281760D01*
X728575D01*
X728657Y281756D01*
X728740Y281752D01*
X728823Y281740D01*
X728902Y281724D01*
X728984Y281705D01*
X729063Y281681D01*
X729138Y281653D01*
X729216Y281622D01*
X729291Y281587D01*
X729362Y281547D01*
X729433Y281504D01*
X729500Y281461D01*
X729567Y281409D01*
X729630Y281354D01*
X729689Y281299D01*
X729744Y281240D01*
X729799Y281177D01*
X729850Y281110D01*
X729894Y281043D01*
X729937Y280972D01*
X729976Y280902D01*
X730012Y280827D01*
X730043Y280748D01*
X730071Y280673D01*
X730094Y280594D01*
X730114Y280512D01*
X730130Y280433D01*
X730142Y280350D01*
X730146Y280268D01*
X730150Y280185D01*
X730146Y280102D01*
X730142Y280020D01*
X730130Y279937D01*
X730114Y279858D01*
X730094Y279776D01*
X730071Y279697D01*
X730043Y279622D01*
X730012Y279543D01*
X729976Y279468D01*
X729937Y279398D01*
X729894Y279327D01*
X729850Y279260D01*
X729799Y279193D01*
X729744Y279130D01*
X729689Y279071D01*
X729630Y279016D01*
X729567Y278961D01*
X729500Y278909D01*
X729433Y278866D01*
X729362Y278823D01*
X729291Y278783D01*
X729216Y278748D01*
X729138Y278716D01*
X729063Y278689D01*
X728984Y278665D01*
X728902Y278646D01*
X728823Y278630D01*
X728740Y278618D01*
X728657Y278614D01*
X728575Y278610D01*
X723457D01*
X723374Y278614D01*
D02*
G37*
G36*
Y282945D02*
X723291Y282949D01*
X723209Y282961D01*
X723130Y282976D01*
X723047Y282996D01*
X722968Y283020D01*
X722894Y283047D01*
X722815Y283079D01*
X722740Y283114D01*
X722669Y283154D01*
X722598Y283197D01*
X722532Y283240D01*
X722465Y283291D01*
X722402Y283347D01*
X722342Y283402D01*
X722287Y283461D01*
X722232Y283524D01*
X722181Y283591D01*
X722138Y283658D01*
X722094Y283728D01*
X722055Y283799D01*
X722020Y283874D01*
X721988Y283953D01*
X721961Y284028D01*
X721937Y284106D01*
X721917Y284189D01*
X721902Y284268D01*
X721890Y284350D01*
X721886Y284433D01*
X721882Y284516D01*
X721886Y284598D01*
X721890Y284681D01*
X721902Y284764D01*
X721917Y284842D01*
X721937Y284925D01*
X721961Y285004D01*
X721988Y285079D01*
X722020Y285157D01*
X722055Y285232D01*
X722094Y285303D01*
X722138Y285374D01*
X722181Y285441D01*
X722232Y285508D01*
X722287Y285571D01*
X722342Y285630D01*
X722402Y285685D01*
X722465Y285740D01*
X722532Y285791D01*
X722598Y285835D01*
X722669Y285878D01*
X722740Y285917D01*
X722815Y285953D01*
X722894Y285984D01*
X722968Y286012D01*
X723047Y286035D01*
X723130Y286055D01*
X723209Y286071D01*
X723291Y286083D01*
X723374Y286087D01*
X723457Y286090D01*
X728575D01*
X728657Y286087D01*
X728740Y286083D01*
X728823Y286071D01*
X728902Y286055D01*
X728984Y286035D01*
X729063Y286012D01*
X729138Y285984D01*
X729216Y285953D01*
X729291Y285917D01*
X729362Y285878D01*
X729433Y285835D01*
X729500Y285791D01*
X729567Y285740D01*
X729630Y285685D01*
X729689Y285630D01*
X729744Y285571D01*
X729799Y285508D01*
X729850Y285441D01*
X729894Y285374D01*
X729937Y285303D01*
X729976Y285232D01*
X730012Y285157D01*
X730043Y285079D01*
X730071Y285004D01*
X730094Y284925D01*
X730114Y284842D01*
X730130Y284764D01*
X730142Y284681D01*
X730146Y284598D01*
X730150Y284516D01*
X730146Y284433D01*
X730142Y284350D01*
X730130Y284268D01*
X730114Y284189D01*
X730094Y284106D01*
X730071Y284028D01*
X730043Y283953D01*
X730012Y283874D01*
X729976Y283799D01*
X729937Y283728D01*
X729894Y283658D01*
X729850Y283591D01*
X729799Y283524D01*
X729744Y283461D01*
X729689Y283402D01*
X729630Y283347D01*
X729567Y283291D01*
X729500Y283240D01*
X729433Y283197D01*
X729362Y283154D01*
X729291Y283114D01*
X729216Y283079D01*
X729138Y283047D01*
X729063Y283020D01*
X728984Y282996D01*
X728902Y282976D01*
X728823Y282961D01*
X728740Y282949D01*
X728657Y282945D01*
X728575Y282941D01*
X723457D01*
X723374Y282945D01*
D02*
G37*
G36*
Y287276D02*
X723291Y287280D01*
X723209Y287291D01*
X723130Y287307D01*
X723047Y287327D01*
X722968Y287350D01*
X722894Y287378D01*
X722815Y287409D01*
X722740Y287445D01*
X722669Y287484D01*
X722598Y287528D01*
X722532Y287571D01*
X722465Y287622D01*
X722402Y287677D01*
X722342Y287732D01*
X722287Y287791D01*
X722232Y287854D01*
X722181Y287921D01*
X722138Y287988D01*
X722094Y288059D01*
X722055Y288130D01*
X722020Y288205D01*
X721988Y288283D01*
X721961Y288358D01*
X721937Y288437D01*
X721917Y288520D01*
X721902Y288598D01*
X721890Y288681D01*
X721886Y288764D01*
X721882Y288846D01*
X721886Y288929D01*
X721890Y289012D01*
X721902Y289094D01*
X721917Y289173D01*
X721937Y289256D01*
X721961Y289335D01*
X721988Y289409D01*
X722020Y289488D01*
X722055Y289563D01*
X722094Y289634D01*
X722138Y289705D01*
X722181Y289772D01*
X722232Y289839D01*
X722287Y289902D01*
X722342Y289961D01*
X722402Y290016D01*
X722465Y290071D01*
X722532Y290122D01*
X722598Y290165D01*
X722669Y290209D01*
X722740Y290248D01*
X722815Y290283D01*
X722894Y290315D01*
X722968Y290342D01*
X723047Y290366D01*
X723130Y290386D01*
X723209Y290402D01*
X723291Y290413D01*
X723374Y290417D01*
X723457Y290421D01*
X728575D01*
X728657Y290417D01*
X728740Y290413D01*
X728823Y290402D01*
X728902Y290386D01*
X728984Y290366D01*
X729063Y290342D01*
X729138Y290315D01*
X729216Y290283D01*
X729291Y290248D01*
X729362Y290209D01*
X729433Y290165D01*
X729500Y290122D01*
X729567Y290071D01*
X729630Y290016D01*
X729689Y289961D01*
X729744Y289902D01*
X729799Y289839D01*
X729850Y289772D01*
X729894Y289705D01*
X729937Y289634D01*
X729976Y289563D01*
X730012Y289488D01*
X730043Y289409D01*
X730071Y289335D01*
X730094Y289256D01*
X730114Y289173D01*
X730130Y289094D01*
X730142Y289012D01*
X730146Y288929D01*
X730150Y288846D01*
X730146Y288764D01*
X730142Y288681D01*
X730130Y288598D01*
X730114Y288520D01*
X730094Y288437D01*
X730071Y288358D01*
X730043Y288283D01*
X730012Y288205D01*
X729976Y288130D01*
X729937Y288059D01*
X729894Y287988D01*
X729850Y287921D01*
X729799Y287854D01*
X729744Y287791D01*
X729689Y287732D01*
X729630Y287677D01*
X729567Y287622D01*
X729500Y287571D01*
X729433Y287528D01*
X729362Y287484D01*
X729291Y287445D01*
X729216Y287409D01*
X729138Y287378D01*
X729063Y287350D01*
X728984Y287327D01*
X728902Y287307D01*
X728823Y287291D01*
X728740Y287280D01*
X728657Y287276D01*
X728575Y287272D01*
X723457D01*
X723374Y287276D01*
D02*
G37*
G36*
Y291606D02*
X723291Y291610D01*
X723209Y291622D01*
X723130Y291638D01*
X723047Y291657D01*
X722968Y291681D01*
X722894Y291709D01*
X722815Y291740D01*
X722740Y291776D01*
X722669Y291815D01*
X722598Y291858D01*
X722532Y291902D01*
X722465Y291953D01*
X722402Y292008D01*
X722342Y292063D01*
X722287Y292122D01*
X722232Y292185D01*
X722181Y292252D01*
X722138Y292319D01*
X722094Y292390D01*
X722055Y292461D01*
X722020Y292535D01*
X721988Y292614D01*
X721961Y292689D01*
X721937Y292768D01*
X721917Y292850D01*
X721902Y292929D01*
X721890Y293012D01*
X721886Y293094D01*
X721882Y293177D01*
X721886Y293260D01*
X721890Y293342D01*
X721902Y293425D01*
X721917Y293504D01*
X721937Y293587D01*
X721961Y293665D01*
X721988Y293740D01*
X722020Y293819D01*
X722055Y293894D01*
X722094Y293965D01*
X722138Y294035D01*
X722181Y294102D01*
X722232Y294169D01*
X722287Y294232D01*
X722342Y294291D01*
X722402Y294346D01*
X722465Y294402D01*
X722532Y294453D01*
X722598Y294496D01*
X722669Y294539D01*
X722740Y294579D01*
X722815Y294614D01*
X722894Y294646D01*
X722968Y294673D01*
X723047Y294697D01*
X723130Y294717D01*
X723209Y294732D01*
X723291Y294744D01*
X723374Y294748D01*
X723457Y294752D01*
X728575D01*
X728657Y294748D01*
X728740Y294744D01*
X728823Y294732D01*
X728902Y294717D01*
X728984Y294697D01*
X729063Y294673D01*
X729138Y294646D01*
X729216Y294614D01*
X729291Y294579D01*
X729362Y294539D01*
X729433Y294496D01*
X729500Y294453D01*
X729567Y294402D01*
X729630Y294346D01*
X729689Y294291D01*
X729744Y294232D01*
X729799Y294169D01*
X729850Y294102D01*
X729894Y294035D01*
X729937Y293965D01*
X729976Y293894D01*
X730012Y293819D01*
X730043Y293740D01*
X730071Y293665D01*
X730094Y293587D01*
X730114Y293504D01*
X730130Y293425D01*
X730142Y293342D01*
X730146Y293260D01*
X730150Y293177D01*
X730146Y293094D01*
X730142Y293012D01*
X730130Y292929D01*
X730114Y292850D01*
X730094Y292768D01*
X730071Y292689D01*
X730043Y292614D01*
X730012Y292535D01*
X729976Y292461D01*
X729937Y292390D01*
X729894Y292319D01*
X729850Y292252D01*
X729799Y292185D01*
X729744Y292122D01*
X729689Y292063D01*
X729630Y292008D01*
X729567Y291953D01*
X729500Y291902D01*
X729433Y291858D01*
X729362Y291815D01*
X729291Y291776D01*
X729216Y291740D01*
X729138Y291709D01*
X729063Y291681D01*
X728984Y291657D01*
X728902Y291638D01*
X728823Y291622D01*
X728740Y291610D01*
X728657Y291606D01*
X728575Y291602D01*
X723457D01*
X723374Y291606D01*
D02*
G37*
G36*
Y295937D02*
X723291Y295941D01*
X723209Y295953D01*
X723130Y295969D01*
X723047Y295988D01*
X722968Y296012D01*
X722894Y296039D01*
X722815Y296071D01*
X722740Y296106D01*
X722669Y296146D01*
X722598Y296189D01*
X722532Y296232D01*
X722465Y296284D01*
X722402Y296339D01*
X722342Y296394D01*
X722287Y296453D01*
X722232Y296516D01*
X722181Y296583D01*
X722138Y296650D01*
X722094Y296721D01*
X722055Y296791D01*
X722020Y296866D01*
X721988Y296945D01*
X721961Y297020D01*
X721937Y297098D01*
X721917Y297181D01*
X721902Y297260D01*
X721890Y297342D01*
X721886Y297425D01*
X721882Y297508D01*
X721886Y297590D01*
X721890Y297673D01*
X721902Y297756D01*
X721917Y297835D01*
X721937Y297917D01*
X721961Y297996D01*
X721988Y298071D01*
X722020Y298150D01*
X722055Y298224D01*
X722094Y298295D01*
X722138Y298366D01*
X722181Y298433D01*
X722232Y298500D01*
X722287Y298563D01*
X722342Y298622D01*
X722402Y298677D01*
X722465Y298732D01*
X722532Y298783D01*
X722598Y298827D01*
X722669Y298870D01*
X722740Y298909D01*
X722815Y298945D01*
X722894Y298976D01*
X722968Y299004D01*
X723047Y299028D01*
X723130Y299047D01*
X723209Y299063D01*
X723291Y299075D01*
X723374Y299079D01*
X723457Y299083D01*
X728575D01*
X728657Y299079D01*
X728740Y299075D01*
X728823Y299063D01*
X728902Y299047D01*
X728984Y299028D01*
X729063Y299004D01*
X729138Y298976D01*
X729216Y298945D01*
X729291Y298909D01*
X729362Y298870D01*
X729433Y298827D01*
X729500Y298783D01*
X729567Y298732D01*
X729630Y298677D01*
X729689Y298622D01*
X729744Y298563D01*
X729799Y298500D01*
X729850Y298433D01*
X729894Y298366D01*
X729937Y298295D01*
X729976Y298224D01*
X730012Y298150D01*
X730043Y298071D01*
X730071Y297996D01*
X730094Y297917D01*
X730114Y297835D01*
X730130Y297756D01*
X730142Y297673D01*
X730146Y297590D01*
X730150Y297508D01*
X730146Y297425D01*
X730142Y297342D01*
X730130Y297260D01*
X730114Y297181D01*
X730094Y297098D01*
X730071Y297020D01*
X730043Y296945D01*
X730012Y296866D01*
X729976Y296791D01*
X729937Y296721D01*
X729894Y296650D01*
X729850Y296583D01*
X729799Y296516D01*
X729744Y296453D01*
X729689Y296394D01*
X729630Y296339D01*
X729567Y296284D01*
X729500Y296232D01*
X729433Y296189D01*
X729362Y296146D01*
X729291Y296106D01*
X729216Y296071D01*
X729138Y296039D01*
X729063Y296012D01*
X728984Y295988D01*
X728902Y295969D01*
X728823Y295953D01*
X728740Y295941D01*
X728657Y295937D01*
X728575Y295933D01*
X723457D01*
X723374Y295937D01*
D02*
G37*
G36*
X763531Y278614D02*
X763449Y278618D01*
X763366Y278630D01*
X763287Y278646D01*
X763205Y278665D01*
X763126Y278689D01*
X763051Y278716D01*
X762972Y278748D01*
X762898Y278783D01*
X762827Y278823D01*
X762756Y278866D01*
X762689Y278909D01*
X762622Y278961D01*
X762559Y279016D01*
X762500Y279071D01*
X762445Y279130D01*
X762390Y279193D01*
X762339Y279260D01*
X762295Y279327D01*
X762252Y279398D01*
X762213Y279468D01*
X762177Y279543D01*
X762146Y279622D01*
X762118Y279697D01*
X762094Y279776D01*
X762075Y279858D01*
X762059Y279937D01*
X762047Y280020D01*
X762043Y280102D01*
X762039Y280185D01*
X762043Y280268D01*
X762047Y280350D01*
X762059Y280433D01*
X762075Y280512D01*
X762094Y280594D01*
X762118Y280673D01*
X762146Y280748D01*
X762177Y280827D01*
X762213Y280902D01*
X762252Y280972D01*
X762295Y281043D01*
X762339Y281110D01*
X762390Y281177D01*
X762445Y281240D01*
X762500Y281299D01*
X762559Y281354D01*
X762622Y281409D01*
X762689Y281461D01*
X762756Y281504D01*
X762827Y281547D01*
X762898Y281587D01*
X762972Y281622D01*
X763051Y281653D01*
X763126Y281681D01*
X763205Y281705D01*
X763287Y281724D01*
X763366Y281740D01*
X763449Y281752D01*
X763531Y281756D01*
X763614Y281760D01*
X768732D01*
X768815Y281756D01*
X768898Y281752D01*
X768980Y281740D01*
X769059Y281724D01*
X769142Y281705D01*
X769220Y281681D01*
X769295Y281653D01*
X769374Y281622D01*
X769449Y281587D01*
X769520Y281547D01*
X769591Y281504D01*
X769658Y281461D01*
X769724Y281409D01*
X769787Y281354D01*
X769846Y281299D01*
X769902Y281240D01*
X769957Y281177D01*
X770008Y281110D01*
X770051Y281043D01*
X770094Y280972D01*
X770134Y280902D01*
X770169Y280827D01*
X770201Y280748D01*
X770228Y280673D01*
X770252Y280594D01*
X770272Y280512D01*
X770287Y280433D01*
X770299Y280350D01*
X770303Y280268D01*
X770307Y280185D01*
X770303Y280102D01*
X770299Y280020D01*
X770287Y279937D01*
X770272Y279858D01*
X770252Y279776D01*
X770228Y279697D01*
X770201Y279622D01*
X770169Y279543D01*
X770134Y279468D01*
X770094Y279398D01*
X770051Y279327D01*
X770008Y279260D01*
X769957Y279193D01*
X769902Y279130D01*
X769846Y279071D01*
X769787Y279016D01*
X769724Y278961D01*
X769658Y278909D01*
X769591Y278866D01*
X769520Y278823D01*
X769449Y278783D01*
X769374Y278748D01*
X769295Y278716D01*
X769220Y278689D01*
X769142Y278665D01*
X769059Y278646D01*
X768980Y278630D01*
X768898Y278618D01*
X768815Y278614D01*
X768732Y278610D01*
X763614D01*
X763531Y278614D01*
D02*
G37*
G36*
Y282945D02*
X763449Y282949D01*
X763366Y282961D01*
X763287Y282976D01*
X763205Y282996D01*
X763126Y283020D01*
X763051Y283047D01*
X762972Y283079D01*
X762898Y283114D01*
X762827Y283154D01*
X762756Y283197D01*
X762689Y283240D01*
X762622Y283291D01*
X762559Y283347D01*
X762500Y283402D01*
X762445Y283461D01*
X762390Y283524D01*
X762339Y283591D01*
X762295Y283658D01*
X762252Y283728D01*
X762213Y283799D01*
X762177Y283874D01*
X762146Y283953D01*
X762118Y284028D01*
X762094Y284106D01*
X762075Y284189D01*
X762059Y284268D01*
X762047Y284350D01*
X762043Y284433D01*
X762039Y284516D01*
X762043Y284598D01*
X762047Y284681D01*
X762059Y284764D01*
X762075Y284842D01*
X762094Y284925D01*
X762118Y285004D01*
X762146Y285079D01*
X762177Y285157D01*
X762213Y285232D01*
X762252Y285303D01*
X762295Y285374D01*
X762339Y285441D01*
X762390Y285508D01*
X762445Y285571D01*
X762500Y285630D01*
X762559Y285685D01*
X762622Y285740D01*
X762689Y285791D01*
X762756Y285835D01*
X762827Y285878D01*
X762898Y285917D01*
X762972Y285953D01*
X763051Y285984D01*
X763126Y286012D01*
X763205Y286035D01*
X763287Y286055D01*
X763366Y286071D01*
X763449Y286083D01*
X763531Y286087D01*
X763614Y286090D01*
X768732D01*
X768815Y286087D01*
X768898Y286083D01*
X768980Y286071D01*
X769059Y286055D01*
X769142Y286035D01*
X769220Y286012D01*
X769295Y285984D01*
X769374Y285953D01*
X769449Y285917D01*
X769520Y285878D01*
X769591Y285835D01*
X769658Y285791D01*
X769724Y285740D01*
X769787Y285685D01*
X769846Y285630D01*
X769902Y285571D01*
X769957Y285508D01*
X770008Y285441D01*
X770051Y285374D01*
X770094Y285303D01*
X770134Y285232D01*
X770169Y285157D01*
X770201Y285079D01*
X770228Y285004D01*
X770252Y284925D01*
X770272Y284842D01*
X770287Y284764D01*
X770299Y284681D01*
X770303Y284598D01*
X770307Y284516D01*
X770303Y284433D01*
X770299Y284350D01*
X770287Y284268D01*
X770272Y284189D01*
X770252Y284106D01*
X770228Y284028D01*
X770201Y283953D01*
X770169Y283874D01*
X770134Y283799D01*
X770094Y283728D01*
X770051Y283658D01*
X770008Y283591D01*
X769957Y283524D01*
X769902Y283461D01*
X769846Y283402D01*
X769787Y283347D01*
X769724Y283291D01*
X769658Y283240D01*
X769591Y283197D01*
X769520Y283154D01*
X769449Y283114D01*
X769374Y283079D01*
X769295Y283047D01*
X769220Y283020D01*
X769142Y282996D01*
X769059Y282976D01*
X768980Y282961D01*
X768898Y282949D01*
X768815Y282945D01*
X768732Y282941D01*
X763614D01*
X763531Y282945D01*
D02*
G37*
G36*
Y287276D02*
X763449Y287280D01*
X763366Y287291D01*
X763287Y287307D01*
X763205Y287327D01*
X763126Y287350D01*
X763051Y287378D01*
X762972Y287409D01*
X762898Y287445D01*
X762827Y287484D01*
X762756Y287528D01*
X762689Y287571D01*
X762622Y287622D01*
X762559Y287677D01*
X762500Y287732D01*
X762445Y287791D01*
X762390Y287854D01*
X762339Y287921D01*
X762295Y287988D01*
X762252Y288059D01*
X762213Y288130D01*
X762177Y288205D01*
X762146Y288283D01*
X762118Y288358D01*
X762094Y288437D01*
X762075Y288520D01*
X762059Y288598D01*
X762047Y288681D01*
X762043Y288764D01*
X762039Y288846D01*
X762043Y288929D01*
X762047Y289012D01*
X762059Y289094D01*
X762075Y289173D01*
X762094Y289256D01*
X762118Y289335D01*
X762146Y289409D01*
X762177Y289488D01*
X762213Y289563D01*
X762252Y289634D01*
X762295Y289705D01*
X762339Y289772D01*
X762390Y289839D01*
X762445Y289902D01*
X762500Y289961D01*
X762559Y290016D01*
X762622Y290071D01*
X762689Y290122D01*
X762756Y290165D01*
X762827Y290209D01*
X762898Y290248D01*
X762972Y290283D01*
X763051Y290315D01*
X763126Y290342D01*
X763205Y290366D01*
X763287Y290386D01*
X763366Y290402D01*
X763449Y290413D01*
X763531Y290417D01*
X763614Y290421D01*
X768732D01*
X768815Y290417D01*
X768898Y290413D01*
X768980Y290402D01*
X769059Y290386D01*
X769142Y290366D01*
X769220Y290342D01*
X769295Y290315D01*
X769374Y290283D01*
X769449Y290248D01*
X769520Y290209D01*
X769591Y290165D01*
X769658Y290122D01*
X769724Y290071D01*
X769787Y290016D01*
X769846Y289961D01*
X769902Y289902D01*
X769957Y289839D01*
X770008Y289772D01*
X770051Y289705D01*
X770094Y289634D01*
X770134Y289563D01*
X770169Y289488D01*
X770201Y289409D01*
X770228Y289335D01*
X770252Y289256D01*
X770272Y289173D01*
X770287Y289094D01*
X770299Y289012D01*
X770303Y288929D01*
X770307Y288846D01*
X770303Y288764D01*
X770299Y288681D01*
X770287Y288598D01*
X770272Y288520D01*
X770252Y288437D01*
X770228Y288358D01*
X770201Y288283D01*
X770169Y288205D01*
X770134Y288130D01*
X770094Y288059D01*
X770051Y287988D01*
X770008Y287921D01*
X769957Y287854D01*
X769902Y287791D01*
X769846Y287732D01*
X769787Y287677D01*
X769724Y287622D01*
X769658Y287571D01*
X769591Y287528D01*
X769520Y287484D01*
X769449Y287445D01*
X769374Y287409D01*
X769295Y287378D01*
X769220Y287350D01*
X769142Y287327D01*
X769059Y287307D01*
X768980Y287291D01*
X768898Y287280D01*
X768815Y287276D01*
X768732Y287272D01*
X763614D01*
X763531Y287276D01*
D02*
G37*
G36*
Y291606D02*
X763449Y291610D01*
X763366Y291622D01*
X763287Y291638D01*
X763205Y291657D01*
X763126Y291681D01*
X763051Y291709D01*
X762972Y291740D01*
X762898Y291776D01*
X762827Y291815D01*
X762756Y291858D01*
X762689Y291902D01*
X762622Y291953D01*
X762559Y292008D01*
X762500Y292063D01*
X762445Y292122D01*
X762390Y292185D01*
X762339Y292252D01*
X762295Y292319D01*
X762252Y292390D01*
X762213Y292461D01*
X762177Y292535D01*
X762146Y292614D01*
X762118Y292689D01*
X762094Y292768D01*
X762075Y292850D01*
X762059Y292929D01*
X762047Y293012D01*
X762043Y293094D01*
X762039Y293177D01*
X762043Y293260D01*
X762047Y293342D01*
X762059Y293425D01*
X762075Y293504D01*
X762094Y293587D01*
X762118Y293665D01*
X762146Y293740D01*
X762177Y293819D01*
X762213Y293894D01*
X762252Y293965D01*
X762295Y294035D01*
X762339Y294102D01*
X762390Y294169D01*
X762445Y294232D01*
X762500Y294291D01*
X762559Y294346D01*
X762622Y294402D01*
X762689Y294453D01*
X762756Y294496D01*
X762827Y294539D01*
X762898Y294579D01*
X762972Y294614D01*
X763051Y294646D01*
X763126Y294673D01*
X763205Y294697D01*
X763287Y294717D01*
X763366Y294732D01*
X763449Y294744D01*
X763531Y294748D01*
X763614Y294752D01*
X768732D01*
X768815Y294748D01*
X768898Y294744D01*
X768980Y294732D01*
X769059Y294717D01*
X769142Y294697D01*
X769220Y294673D01*
X769295Y294646D01*
X769374Y294614D01*
X769449Y294579D01*
X769520Y294539D01*
X769591Y294496D01*
X769658Y294453D01*
X769724Y294402D01*
X769787Y294346D01*
X769846Y294291D01*
X769902Y294232D01*
X769957Y294169D01*
X770008Y294102D01*
X770051Y294035D01*
X770094Y293965D01*
X770134Y293894D01*
X770169Y293819D01*
X770201Y293740D01*
X770228Y293665D01*
X770252Y293587D01*
X770272Y293504D01*
X770287Y293425D01*
X770299Y293342D01*
X770303Y293260D01*
X770307Y293177D01*
X770303Y293094D01*
X770299Y293012D01*
X770287Y292929D01*
X770272Y292850D01*
X770252Y292768D01*
X770228Y292689D01*
X770201Y292614D01*
X770169Y292535D01*
X770134Y292461D01*
X770094Y292390D01*
X770051Y292319D01*
X770008Y292252D01*
X769957Y292185D01*
X769902Y292122D01*
X769846Y292063D01*
X769787Y292008D01*
X769724Y291953D01*
X769658Y291902D01*
X769591Y291858D01*
X769520Y291815D01*
X769449Y291776D01*
X769374Y291740D01*
X769295Y291709D01*
X769220Y291681D01*
X769142Y291657D01*
X769059Y291638D01*
X768980Y291622D01*
X768898Y291610D01*
X768815Y291606D01*
X768732Y291602D01*
X763614D01*
X763531Y291606D01*
D02*
G37*
G36*
Y295937D02*
X763449Y295941D01*
X763366Y295953D01*
X763287Y295969D01*
X763205Y295988D01*
X763126Y296012D01*
X763051Y296039D01*
X762972Y296071D01*
X762898Y296106D01*
X762827Y296146D01*
X762756Y296189D01*
X762689Y296232D01*
X762622Y296284D01*
X762559Y296339D01*
X762500Y296394D01*
X762445Y296453D01*
X762390Y296516D01*
X762339Y296583D01*
X762295Y296650D01*
X762252Y296721D01*
X762213Y296791D01*
X762177Y296866D01*
X762146Y296945D01*
X762118Y297020D01*
X762094Y297098D01*
X762075Y297181D01*
X762059Y297260D01*
X762047Y297342D01*
X762043Y297425D01*
X762039Y297508D01*
X762043Y297590D01*
X762047Y297673D01*
X762059Y297756D01*
X762075Y297835D01*
X762094Y297917D01*
X762118Y297996D01*
X762146Y298071D01*
X762177Y298150D01*
X762213Y298224D01*
X762252Y298295D01*
X762295Y298366D01*
X762339Y298433D01*
X762390Y298500D01*
X762445Y298563D01*
X762500Y298622D01*
X762559Y298677D01*
X762622Y298732D01*
X762689Y298783D01*
X762756Y298827D01*
X762827Y298870D01*
X762898Y298909D01*
X762972Y298945D01*
X763051Y298976D01*
X763126Y299004D01*
X763205Y299028D01*
X763287Y299047D01*
X763366Y299063D01*
X763449Y299075D01*
X763531Y299079D01*
X763614Y299083D01*
X768732D01*
X768815Y299079D01*
X768898Y299075D01*
X768980Y299063D01*
X769059Y299047D01*
X769142Y299028D01*
X769220Y299004D01*
X769295Y298976D01*
X769374Y298945D01*
X769449Y298909D01*
X769520Y298870D01*
X769591Y298827D01*
X769658Y298783D01*
X769724Y298732D01*
X769787Y298677D01*
X769846Y298622D01*
X769902Y298563D01*
X769957Y298500D01*
X770008Y298433D01*
X770051Y298366D01*
X770094Y298295D01*
X770134Y298224D01*
X770169Y298150D01*
X770201Y298071D01*
X770228Y297996D01*
X770252Y297917D01*
X770272Y297835D01*
X770287Y297756D01*
X770299Y297673D01*
X770303Y297590D01*
X770307Y297508D01*
X770303Y297425D01*
X770299Y297342D01*
X770287Y297260D01*
X770272Y297181D01*
X770252Y297098D01*
X770228Y297020D01*
X770201Y296945D01*
X770169Y296866D01*
X770134Y296791D01*
X770094Y296721D01*
X770051Y296650D01*
X770008Y296583D01*
X769957Y296516D01*
X769902Y296453D01*
X769846Y296394D01*
X769787Y296339D01*
X769724Y296284D01*
X769658Y296232D01*
X769591Y296189D01*
X769520Y296146D01*
X769449Y296106D01*
X769374Y296071D01*
X769295Y296039D01*
X769220Y296012D01*
X769142Y295988D01*
X769059Y295969D01*
X768980Y295953D01*
X768898Y295941D01*
X768815Y295937D01*
X768732Y295933D01*
X763614D01*
X763531Y295937D01*
D02*
G37*
G36*
X727301Y423193D02*
Y421618D01*
X723758Y418075D01*
X715096D01*
X712734Y420437D01*
X705647D01*
Y424374D01*
X712734D01*
X715096Y426736D01*
X723758D01*
X727301Y423193D01*
D02*
G37*
G36*
X815362Y411764D02*
X808638D01*
Y418236D01*
X815362D01*
Y411764D01*
D02*
G37*
G36*
X768815Y316402D02*
X768898Y316398D01*
X768980Y316386D01*
X769059Y316370D01*
X769142Y316350D01*
X769220Y316327D01*
X769295Y316299D01*
X769374Y316268D01*
X769449Y316232D01*
X769520Y316193D01*
X769591Y316150D01*
X769658Y316106D01*
X769724Y316055D01*
X769787Y316000D01*
X769846Y315945D01*
X769902Y315886D01*
X769957Y315823D01*
X770008Y315756D01*
X770051Y315689D01*
X770094Y315618D01*
X770134Y315547D01*
X770169Y315472D01*
X770201Y315394D01*
X770228Y315319D01*
X770252Y315240D01*
X770272Y315158D01*
X770287Y315079D01*
X770299Y314996D01*
X770303Y314913D01*
X770307Y314831D01*
X770303Y314748D01*
X770299Y314665D01*
X770287Y314583D01*
X770272Y314504D01*
X770252Y314421D01*
X770228Y314342D01*
X770201Y314268D01*
X770169Y314189D01*
X770134Y314114D01*
X770094Y314043D01*
X770051Y313972D01*
X770008Y313906D01*
X769957Y313839D01*
X769902Y313776D01*
X769846Y313717D01*
X769787Y313661D01*
X769724Y313606D01*
X769658Y313555D01*
X769591Y313512D01*
X769520Y313469D01*
X769449Y313429D01*
X769374Y313394D01*
X769295Y313362D01*
X769220Y313335D01*
X769142Y313311D01*
X769059Y313291D01*
X768980Y313276D01*
X768898Y313264D01*
X768815Y313260D01*
X768732Y313256D01*
X763614D01*
X763531Y313260D01*
X763449Y313264D01*
X763366Y313276D01*
X763287Y313291D01*
X763205Y313311D01*
X763126Y313335D01*
X763051Y313362D01*
X762972Y313394D01*
X762898Y313429D01*
X762827Y313469D01*
X762756Y313512D01*
X762689Y313555D01*
X762622Y313606D01*
X762559Y313661D01*
X762500Y313717D01*
X762445Y313776D01*
X762390Y313839D01*
X762339Y313906D01*
X762295Y313972D01*
X762252Y314043D01*
X762213Y314114D01*
X762177Y314189D01*
X762146Y314268D01*
X762118Y314342D01*
X762094Y314421D01*
X762075Y314504D01*
X762059Y314583D01*
X762047Y314665D01*
X762043Y314748D01*
X762039Y314831D01*
X762043Y314913D01*
X762047Y314996D01*
X762059Y315079D01*
X762075Y315158D01*
X762094Y315240D01*
X762118Y315319D01*
X762146Y315394D01*
X762177Y315472D01*
X762213Y315547D01*
X762252Y315618D01*
X762295Y315689D01*
X762339Y315756D01*
X762390Y315823D01*
X762445Y315886D01*
X762500Y315945D01*
X762559Y316000D01*
X762622Y316055D01*
X762689Y316106D01*
X762756Y316150D01*
X762827Y316193D01*
X762898Y316232D01*
X762972Y316268D01*
X763051Y316299D01*
X763126Y316327D01*
X763205Y316350D01*
X763287Y316370D01*
X763366Y316386D01*
X763449Y316398D01*
X763531Y316402D01*
X763614Y316406D01*
X768732D01*
X768815Y316402D01*
D02*
G37*
G36*
X728657D02*
X728740Y316398D01*
X728823Y316386D01*
X728902Y316370D01*
X728984Y316350D01*
X729063Y316327D01*
X729138Y316299D01*
X729216Y316268D01*
X729291Y316232D01*
X729362Y316193D01*
X729433Y316150D01*
X729500Y316106D01*
X729567Y316055D01*
X729630Y316000D01*
X729689Y315945D01*
X729744Y315886D01*
X729799Y315823D01*
X729850Y315756D01*
X729894Y315689D01*
X729937Y315618D01*
X729976Y315547D01*
X730012Y315472D01*
X730043Y315394D01*
X730071Y315319D01*
X730094Y315240D01*
X730114Y315158D01*
X730130Y315079D01*
X730142Y314996D01*
X730146Y314913D01*
X730150Y314831D01*
X730146Y314748D01*
X730142Y314665D01*
X730130Y314583D01*
X730114Y314504D01*
X730094Y314421D01*
X730071Y314342D01*
X730043Y314268D01*
X730012Y314189D01*
X729976Y314114D01*
X729937Y314043D01*
X729894Y313972D01*
X729850Y313906D01*
X729799Y313839D01*
X729744Y313776D01*
X729689Y313717D01*
X729630Y313661D01*
X729567Y313606D01*
X729500Y313555D01*
X729433Y313512D01*
X729362Y313469D01*
X729291Y313429D01*
X729216Y313394D01*
X729138Y313362D01*
X729063Y313335D01*
X728984Y313311D01*
X728902Y313291D01*
X728823Y313276D01*
X728740Y313264D01*
X728657Y313260D01*
X728575Y313256D01*
X723457D01*
X723374Y313260D01*
X723291Y313264D01*
X723209Y313276D01*
X723130Y313291D01*
X723047Y313311D01*
X722968Y313335D01*
X722894Y313362D01*
X722815Y313394D01*
X722740Y313429D01*
X722669Y313469D01*
X722598Y313512D01*
X722532Y313555D01*
X722465Y313606D01*
X722402Y313661D01*
X722342Y313717D01*
X722287Y313776D01*
X722232Y313839D01*
X722181Y313906D01*
X722138Y313972D01*
X722094Y314043D01*
X722055Y314114D01*
X722020Y314189D01*
X721988Y314268D01*
X721961Y314342D01*
X721937Y314421D01*
X721917Y314504D01*
X721902Y314583D01*
X721890Y314665D01*
X721886Y314748D01*
X721882Y314831D01*
X721886Y314913D01*
X721890Y314996D01*
X721902Y315079D01*
X721917Y315158D01*
X721937Y315240D01*
X721961Y315319D01*
X721988Y315394D01*
X722020Y315472D01*
X722055Y315547D01*
X722094Y315618D01*
X722138Y315689D01*
X722181Y315756D01*
X722232Y315823D01*
X722287Y315886D01*
X722342Y315945D01*
X722402Y316000D01*
X722465Y316055D01*
X722532Y316106D01*
X722598Y316150D01*
X722669Y316193D01*
X722740Y316232D01*
X722815Y316268D01*
X722894Y316299D01*
X722968Y316327D01*
X723047Y316350D01*
X723130Y316370D01*
X723209Y316386D01*
X723291Y316398D01*
X723374Y316402D01*
X723457Y316406D01*
X728575D01*
X728657Y316402D01*
D02*
G37*
G36*
X768815Y312071D02*
X768898Y312067D01*
X768980Y312055D01*
X769059Y312039D01*
X769142Y312020D01*
X769220Y311996D01*
X769295Y311968D01*
X769374Y311937D01*
X769449Y311902D01*
X769520Y311862D01*
X769591Y311819D01*
X769658Y311776D01*
X769724Y311724D01*
X769787Y311669D01*
X769846Y311614D01*
X769902Y311555D01*
X769957Y311492D01*
X770008Y311425D01*
X770051Y311358D01*
X770094Y311287D01*
X770134Y311216D01*
X770169Y311142D01*
X770201Y311063D01*
X770228Y310988D01*
X770252Y310909D01*
X770272Y310827D01*
X770287Y310748D01*
X770299Y310665D01*
X770303Y310583D01*
X770307Y310500D01*
X770303Y310417D01*
X770299Y310335D01*
X770287Y310252D01*
X770272Y310173D01*
X770252Y310090D01*
X770228Y310012D01*
X770201Y309937D01*
X770169Y309858D01*
X770134Y309784D01*
X770094Y309713D01*
X770051Y309642D01*
X770008Y309575D01*
X769957Y309508D01*
X769902Y309445D01*
X769846Y309386D01*
X769787Y309331D01*
X769724Y309276D01*
X769658Y309224D01*
X769591Y309181D01*
X769520Y309138D01*
X769449Y309098D01*
X769374Y309063D01*
X769295Y309032D01*
X769220Y309004D01*
X769142Y308980D01*
X769059Y308961D01*
X768980Y308945D01*
X768898Y308933D01*
X768815Y308929D01*
X768732Y308925D01*
X763614D01*
X763531Y308929D01*
X763449Y308933D01*
X763366Y308945D01*
X763287Y308961D01*
X763205Y308980D01*
X763126Y309004D01*
X763051Y309032D01*
X762972Y309063D01*
X762898Y309098D01*
X762827Y309138D01*
X762756Y309181D01*
X762689Y309224D01*
X762622Y309276D01*
X762559Y309331D01*
X762500Y309386D01*
X762445Y309445D01*
X762390Y309508D01*
X762339Y309575D01*
X762295Y309642D01*
X762252Y309713D01*
X762213Y309784D01*
X762177Y309858D01*
X762146Y309937D01*
X762118Y310012D01*
X762094Y310090D01*
X762075Y310173D01*
X762059Y310252D01*
X762047Y310335D01*
X762043Y310417D01*
X762039Y310500D01*
X762043Y310583D01*
X762047Y310665D01*
X762059Y310748D01*
X762075Y310827D01*
X762094Y310909D01*
X762118Y310988D01*
X762146Y311063D01*
X762177Y311142D01*
X762213Y311216D01*
X762252Y311287D01*
X762295Y311358D01*
X762339Y311425D01*
X762390Y311492D01*
X762445Y311555D01*
X762500Y311614D01*
X762559Y311669D01*
X762622Y311724D01*
X762689Y311776D01*
X762756Y311819D01*
X762827Y311862D01*
X762898Y311902D01*
X762972Y311937D01*
X763051Y311968D01*
X763126Y311996D01*
X763205Y312020D01*
X763287Y312039D01*
X763366Y312055D01*
X763449Y312067D01*
X763531Y312071D01*
X763614Y312075D01*
X768732D01*
X768815Y312071D01*
D02*
G37*
G36*
X728657D02*
X728740Y312067D01*
X728823Y312055D01*
X728902Y312039D01*
X728984Y312020D01*
X729063Y311996D01*
X729138Y311968D01*
X729216Y311937D01*
X729291Y311902D01*
X729362Y311862D01*
X729433Y311819D01*
X729500Y311776D01*
X729567Y311724D01*
X729630Y311669D01*
X729689Y311614D01*
X729744Y311555D01*
X729799Y311492D01*
X729850Y311425D01*
X729894Y311358D01*
X729937Y311287D01*
X729976Y311216D01*
X730012Y311142D01*
X730043Y311063D01*
X730071Y310988D01*
X730094Y310909D01*
X730114Y310827D01*
X730130Y310748D01*
X730142Y310665D01*
X730146Y310583D01*
X730150Y310500D01*
X730146Y310417D01*
X730142Y310335D01*
X730130Y310252D01*
X730114Y310173D01*
X730094Y310090D01*
X730071Y310012D01*
X730043Y309937D01*
X730012Y309858D01*
X729976Y309784D01*
X729937Y309713D01*
X729894Y309642D01*
X729850Y309575D01*
X729799Y309508D01*
X729744Y309445D01*
X729689Y309386D01*
X729630Y309331D01*
X729567Y309276D01*
X729500Y309224D01*
X729433Y309181D01*
X729362Y309138D01*
X729291Y309098D01*
X729216Y309063D01*
X729138Y309032D01*
X729063Y309004D01*
X728984Y308980D01*
X728902Y308961D01*
X728823Y308945D01*
X728740Y308933D01*
X728657Y308929D01*
X728575Y308925D01*
X723457D01*
X723374Y308929D01*
X723291Y308933D01*
X723209Y308945D01*
X723130Y308961D01*
X723047Y308980D01*
X722968Y309004D01*
X722894Y309032D01*
X722815Y309063D01*
X722740Y309098D01*
X722669Y309138D01*
X722598Y309181D01*
X722532Y309224D01*
X722465Y309276D01*
X722402Y309331D01*
X722342Y309386D01*
X722287Y309445D01*
X722232Y309508D01*
X722181Y309575D01*
X722138Y309642D01*
X722094Y309713D01*
X722055Y309784D01*
X722020Y309858D01*
X721988Y309937D01*
X721961Y310012D01*
X721937Y310090D01*
X721917Y310173D01*
X721902Y310252D01*
X721890Y310335D01*
X721886Y310417D01*
X721882Y310500D01*
X721886Y310583D01*
X721890Y310665D01*
X721902Y310748D01*
X721917Y310827D01*
X721937Y310909D01*
X721961Y310988D01*
X721988Y311063D01*
X722020Y311142D01*
X722055Y311216D01*
X722094Y311287D01*
X722138Y311358D01*
X722181Y311425D01*
X722232Y311492D01*
X722287Y311555D01*
X722342Y311614D01*
X722402Y311669D01*
X722465Y311724D01*
X722532Y311776D01*
X722598Y311819D01*
X722669Y311862D01*
X722740Y311902D01*
X722815Y311937D01*
X722894Y311968D01*
X722968Y311996D01*
X723047Y312020D01*
X723130Y312039D01*
X723209Y312055D01*
X723291Y312067D01*
X723374Y312071D01*
X723457Y312075D01*
X728575D01*
X728657Y312071D01*
D02*
G37*
G36*
X768815Y307740D02*
X768898Y307736D01*
X768980Y307724D01*
X769059Y307709D01*
X769142Y307689D01*
X769220Y307665D01*
X769295Y307638D01*
X769374Y307606D01*
X769449Y307571D01*
X769520Y307531D01*
X769591Y307488D01*
X769658Y307445D01*
X769724Y307394D01*
X769787Y307339D01*
X769846Y307283D01*
X769902Y307224D01*
X769957Y307161D01*
X770008Y307095D01*
X770051Y307028D01*
X770094Y306957D01*
X770134Y306886D01*
X770169Y306811D01*
X770201Y306732D01*
X770228Y306658D01*
X770252Y306579D01*
X770272Y306496D01*
X770287Y306417D01*
X770299Y306335D01*
X770303Y306252D01*
X770307Y306169D01*
X770303Y306087D01*
X770299Y306004D01*
X770287Y305921D01*
X770272Y305842D01*
X770252Y305760D01*
X770228Y305681D01*
X770201Y305606D01*
X770169Y305528D01*
X770134Y305453D01*
X770094Y305382D01*
X770051Y305311D01*
X770008Y305244D01*
X769957Y305177D01*
X769902Y305114D01*
X769846Y305055D01*
X769787Y305000D01*
X769724Y304945D01*
X769658Y304894D01*
X769591Y304850D01*
X769520Y304807D01*
X769449Y304768D01*
X769374Y304732D01*
X769295Y304701D01*
X769220Y304673D01*
X769142Y304650D01*
X769059Y304630D01*
X768980Y304614D01*
X768898Y304602D01*
X768815Y304598D01*
X768732Y304594D01*
X763614D01*
X763531Y304598D01*
X763449Y304602D01*
X763366Y304614D01*
X763287Y304630D01*
X763205Y304650D01*
X763126Y304673D01*
X763051Y304701D01*
X762972Y304732D01*
X762898Y304768D01*
X762827Y304807D01*
X762756Y304850D01*
X762689Y304894D01*
X762622Y304945D01*
X762559Y305000D01*
X762500Y305055D01*
X762445Y305114D01*
X762390Y305177D01*
X762339Y305244D01*
X762295Y305311D01*
X762252Y305382D01*
X762213Y305453D01*
X762177Y305528D01*
X762146Y305606D01*
X762118Y305681D01*
X762094Y305760D01*
X762075Y305842D01*
X762059Y305921D01*
X762047Y306004D01*
X762043Y306087D01*
X762039Y306169D01*
X762043Y306252D01*
X762047Y306335D01*
X762059Y306417D01*
X762075Y306496D01*
X762094Y306579D01*
X762118Y306658D01*
X762146Y306732D01*
X762177Y306811D01*
X762213Y306886D01*
X762252Y306957D01*
X762295Y307028D01*
X762339Y307095D01*
X762390Y307161D01*
X762445Y307224D01*
X762500Y307283D01*
X762559Y307339D01*
X762622Y307394D01*
X762689Y307445D01*
X762756Y307488D01*
X762827Y307531D01*
X762898Y307571D01*
X762972Y307606D01*
X763051Y307638D01*
X763126Y307665D01*
X763205Y307689D01*
X763287Y307709D01*
X763366Y307724D01*
X763449Y307736D01*
X763531Y307740D01*
X763614Y307744D01*
X768732D01*
X768815Y307740D01*
D02*
G37*
G36*
X728657D02*
X728740Y307736D01*
X728823Y307724D01*
X728902Y307709D01*
X728984Y307689D01*
X729063Y307665D01*
X729138Y307638D01*
X729216Y307606D01*
X729291Y307571D01*
X729362Y307531D01*
X729433Y307488D01*
X729500Y307445D01*
X729567Y307394D01*
X729630Y307339D01*
X729689Y307283D01*
X729744Y307224D01*
X729799Y307161D01*
X729850Y307095D01*
X729894Y307028D01*
X729937Y306957D01*
X729976Y306886D01*
X730012Y306811D01*
X730043Y306732D01*
X730071Y306658D01*
X730094Y306579D01*
X730114Y306496D01*
X730130Y306417D01*
X730142Y306335D01*
X730146Y306252D01*
X730150Y306169D01*
X730146Y306087D01*
X730142Y306004D01*
X730130Y305921D01*
X730114Y305842D01*
X730094Y305760D01*
X730071Y305681D01*
X730043Y305606D01*
X730012Y305528D01*
X729976Y305453D01*
X729937Y305382D01*
X729894Y305311D01*
X729850Y305244D01*
X729799Y305177D01*
X729744Y305114D01*
X729689Y305055D01*
X729630Y305000D01*
X729567Y304945D01*
X729500Y304894D01*
X729433Y304850D01*
X729362Y304807D01*
X729291Y304768D01*
X729216Y304732D01*
X729138Y304701D01*
X729063Y304673D01*
X728984Y304650D01*
X728902Y304630D01*
X728823Y304614D01*
X728740Y304602D01*
X728657Y304598D01*
X728575Y304594D01*
X723457D01*
X723374Y304598D01*
X723291Y304602D01*
X723209Y304614D01*
X723130Y304630D01*
X723047Y304650D01*
X722968Y304673D01*
X722894Y304701D01*
X722815Y304732D01*
X722740Y304768D01*
X722669Y304807D01*
X722598Y304850D01*
X722532Y304894D01*
X722465Y304945D01*
X722402Y305000D01*
X722342Y305055D01*
X722287Y305114D01*
X722232Y305177D01*
X722181Y305244D01*
X722138Y305311D01*
X722094Y305382D01*
X722055Y305453D01*
X722020Y305528D01*
X721988Y305606D01*
X721961Y305681D01*
X721937Y305760D01*
X721917Y305842D01*
X721902Y305921D01*
X721890Y306004D01*
X721886Y306087D01*
X721882Y306169D01*
X721886Y306252D01*
X721890Y306335D01*
X721902Y306417D01*
X721917Y306496D01*
X721937Y306579D01*
X721961Y306658D01*
X721988Y306732D01*
X722020Y306811D01*
X722055Y306886D01*
X722094Y306957D01*
X722138Y307028D01*
X722181Y307095D01*
X722232Y307161D01*
X722287Y307224D01*
X722342Y307283D01*
X722402Y307339D01*
X722465Y307394D01*
X722532Y307445D01*
X722598Y307488D01*
X722669Y307531D01*
X722740Y307571D01*
X722815Y307606D01*
X722894Y307638D01*
X722968Y307665D01*
X723047Y307689D01*
X723130Y307709D01*
X723209Y307724D01*
X723291Y307736D01*
X723374Y307740D01*
X723457Y307744D01*
X728575D01*
X728657Y307740D01*
D02*
G37*
G36*
X768815Y303409D02*
X768898Y303405D01*
X768980Y303394D01*
X769059Y303378D01*
X769142Y303358D01*
X769220Y303335D01*
X769295Y303307D01*
X769374Y303276D01*
X769449Y303240D01*
X769520Y303201D01*
X769591Y303157D01*
X769658Y303114D01*
X769724Y303063D01*
X769787Y303008D01*
X769846Y302953D01*
X769902Y302894D01*
X769957Y302831D01*
X770008Y302764D01*
X770051Y302697D01*
X770094Y302626D01*
X770134Y302555D01*
X770169Y302480D01*
X770201Y302402D01*
X770228Y302327D01*
X770252Y302248D01*
X770272Y302165D01*
X770287Y302087D01*
X770299Y302004D01*
X770303Y301921D01*
X770307Y301839D01*
X770303Y301756D01*
X770299Y301673D01*
X770287Y301590D01*
X770272Y301512D01*
X770252Y301429D01*
X770228Y301350D01*
X770201Y301276D01*
X770169Y301197D01*
X770134Y301122D01*
X770094Y301051D01*
X770051Y300980D01*
X770008Y300913D01*
X769957Y300847D01*
X769902Y300783D01*
X769846Y300724D01*
X769787Y300669D01*
X769724Y300614D01*
X769658Y300563D01*
X769591Y300520D01*
X769520Y300476D01*
X769449Y300437D01*
X769374Y300402D01*
X769295Y300370D01*
X769220Y300342D01*
X769142Y300319D01*
X769059Y300299D01*
X768980Y300284D01*
X768898Y300272D01*
X768815Y300268D01*
X768732Y300264D01*
X763614D01*
X763531Y300268D01*
X763449Y300272D01*
X763366Y300284D01*
X763287Y300299D01*
X763205Y300319D01*
X763126Y300342D01*
X763051Y300370D01*
X762972Y300402D01*
X762898Y300437D01*
X762827Y300476D01*
X762756Y300520D01*
X762689Y300563D01*
X762622Y300614D01*
X762559Y300669D01*
X762500Y300724D01*
X762445Y300783D01*
X762390Y300847D01*
X762339Y300913D01*
X762295Y300980D01*
X762252Y301051D01*
X762213Y301122D01*
X762177Y301197D01*
X762146Y301276D01*
X762118Y301350D01*
X762094Y301429D01*
X762075Y301512D01*
X762059Y301590D01*
X762047Y301673D01*
X762043Y301756D01*
X762039Y301839D01*
X762043Y301921D01*
X762047Y302004D01*
X762059Y302087D01*
X762075Y302165D01*
X762094Y302248D01*
X762118Y302327D01*
X762146Y302402D01*
X762177Y302480D01*
X762213Y302555D01*
X762252Y302626D01*
X762295Y302697D01*
X762339Y302764D01*
X762390Y302831D01*
X762445Y302894D01*
X762500Y302953D01*
X762559Y303008D01*
X762622Y303063D01*
X762689Y303114D01*
X762756Y303157D01*
X762827Y303201D01*
X762898Y303240D01*
X762972Y303276D01*
X763051Y303307D01*
X763126Y303335D01*
X763205Y303358D01*
X763287Y303378D01*
X763366Y303394D01*
X763449Y303405D01*
X763531Y303409D01*
X763614Y303413D01*
X768732D01*
X768815Y303409D01*
D02*
G37*
G36*
X728657D02*
X728740Y303405D01*
X728823Y303394D01*
X728902Y303378D01*
X728984Y303358D01*
X729063Y303335D01*
X729138Y303307D01*
X729216Y303276D01*
X729291Y303240D01*
X729362Y303201D01*
X729433Y303157D01*
X729500Y303114D01*
X729567Y303063D01*
X729630Y303008D01*
X729689Y302953D01*
X729744Y302894D01*
X729799Y302831D01*
X729850Y302764D01*
X729894Y302697D01*
X729937Y302626D01*
X729976Y302555D01*
X730012Y302480D01*
X730043Y302402D01*
X730071Y302327D01*
X730094Y302248D01*
X730114Y302165D01*
X730130Y302087D01*
X730142Y302004D01*
X730146Y301921D01*
X730150Y301839D01*
X730146Y301756D01*
X730142Y301673D01*
X730130Y301590D01*
X730114Y301512D01*
X730094Y301429D01*
X730071Y301350D01*
X730043Y301276D01*
X730012Y301197D01*
X729976Y301122D01*
X729937Y301051D01*
X729894Y300980D01*
X729850Y300913D01*
X729799Y300847D01*
X729744Y300783D01*
X729689Y300724D01*
X729630Y300669D01*
X729567Y300614D01*
X729500Y300563D01*
X729433Y300520D01*
X729362Y300476D01*
X729291Y300437D01*
X729216Y300402D01*
X729138Y300370D01*
X729063Y300342D01*
X728984Y300319D01*
X728902Y300299D01*
X728823Y300284D01*
X728740Y300272D01*
X728657Y300268D01*
X728575Y300264D01*
X723457D01*
X723374Y300268D01*
X723291Y300272D01*
X723209Y300284D01*
X723130Y300299D01*
X723047Y300319D01*
X722968Y300342D01*
X722894Y300370D01*
X722815Y300402D01*
X722740Y300437D01*
X722669Y300476D01*
X722598Y300520D01*
X722532Y300563D01*
X722465Y300614D01*
X722402Y300669D01*
X722342Y300724D01*
X722287Y300783D01*
X722232Y300847D01*
X722181Y300913D01*
X722138Y300980D01*
X722094Y301051D01*
X722055Y301122D01*
X722020Y301197D01*
X721988Y301276D01*
X721961Y301350D01*
X721937Y301429D01*
X721917Y301512D01*
X721902Y301590D01*
X721890Y301673D01*
X721886Y301756D01*
X721882Y301839D01*
X721886Y301921D01*
X721890Y302004D01*
X721902Y302087D01*
X721917Y302165D01*
X721937Y302248D01*
X721961Y302327D01*
X721988Y302402D01*
X722020Y302480D01*
X722055Y302555D01*
X722094Y302626D01*
X722138Y302697D01*
X722181Y302764D01*
X722232Y302831D01*
X722287Y302894D01*
X722342Y302953D01*
X722402Y303008D01*
X722465Y303063D01*
X722532Y303114D01*
X722598Y303157D01*
X722669Y303201D01*
X722740Y303240D01*
X722815Y303276D01*
X722894Y303307D01*
X722968Y303335D01*
X723047Y303358D01*
X723130Y303378D01*
X723209Y303394D01*
X723291Y303405D01*
X723374Y303409D01*
X723457Y303413D01*
X728575D01*
X728657Y303409D01*
D02*
G37*
D23*
X722821Y404800D02*
D03*
X708600D02*
D03*
D24*
X686500Y426811D02*
D03*
Y403189D02*
D03*
D25*
X700500Y461799D02*
D03*
D26*
Y449201D02*
D03*
D27*
X691500Y459200D02*
D03*
Y451800D02*
D03*
X819000Y376800D02*
D03*
Y384200D02*
D03*
X734500Y367100D02*
D03*
Y374500D02*
D03*
X692500Y383000D02*
D03*
Y390400D02*
D03*
X682500Y383000D02*
D03*
Y390400D02*
D03*
X918000Y277300D02*
D03*
Y284700D02*
D03*
X912446Y277300D02*
D03*
Y284700D02*
D03*
X906892Y277300D02*
D03*
Y284700D02*
D03*
X901339Y277300D02*
D03*
Y284700D02*
D03*
X805000Y312821D02*
D03*
Y305421D02*
D03*
D28*
X699098Y437500D02*
D03*
D29*
X686500D02*
D03*
D30*
X708600Y416500D02*
D03*
Y428311D02*
D03*
D31*
X712800Y444500D02*
D03*
X720200D02*
D03*
X788700Y443500D02*
D03*
X781300D02*
D03*
X817700Y464000D02*
D03*
X810300D02*
D03*
X809500Y430000D02*
D03*
X802100D02*
D03*
X808800Y436000D02*
D03*
X816200D02*
D03*
X792000Y361000D02*
D03*
X799400D02*
D03*
X764000Y346500D02*
D03*
X771400D02*
D03*
X756720D02*
D03*
X749321D02*
D03*
X825520Y344000D02*
D03*
X818120D02*
D03*
X783300Y296500D02*
D03*
X790700D02*
D03*
D32*
X722405Y451760D02*
D03*
Y455500D02*
D03*
Y459240D02*
D03*
X710595D02*
D03*
Y451760D02*
D03*
D33*
X729500Y451851D02*
D03*
X729500Y459000D02*
D03*
X766001Y456851D02*
D03*
X766000Y464000D02*
D03*
X802500Y454000D02*
D03*
X802501Y446851D02*
D03*
X808500D02*
D03*
X808500Y454000D02*
D03*
X814500D02*
D03*
X814501Y446851D02*
D03*
X820500Y446851D02*
D03*
X820500Y454000D02*
D03*
X729499Y388649D02*
D03*
X729500Y381500D02*
D03*
X810000Y327800D02*
D03*
X809999Y334949D02*
D03*
X816000D02*
D03*
X816000Y327800D02*
D03*
X837500Y297917D02*
D03*
X837500Y305066D02*
D03*
X843499Y305088D02*
D03*
X843500Y297939D02*
D03*
X870000Y305987D02*
D03*
X870000Y298838D02*
D03*
X870500Y287487D02*
D03*
X870500Y280338D02*
D03*
X843499Y286566D02*
D03*
X843499Y279417D02*
D03*
X837000D02*
D03*
X837000Y286566D02*
D03*
X785500Y303000D02*
D03*
X785499Y310149D02*
D03*
X818999Y286649D02*
D03*
X819000Y279500D02*
D03*
X691501Y303351D02*
D03*
X691500Y310501D02*
D03*
D34*
X751236Y376059D02*
D03*
X753205D02*
D03*
X755173D02*
D03*
X757142D02*
D03*
X759110D02*
D03*
X761079D02*
D03*
X763047D02*
D03*
X765016D02*
D03*
X766984D02*
D03*
X768953D02*
D03*
X770921D02*
D03*
X772890D02*
D03*
X774858D02*
D03*
X776827D02*
D03*
X778795D02*
D03*
X780764D02*
D03*
Y420941D02*
D03*
X778795D02*
D03*
X776827D02*
D03*
X774858D02*
D03*
X772890D02*
D03*
X770921D02*
D03*
X768953D02*
D03*
X766984D02*
D03*
X765016D02*
D03*
X763047D02*
D03*
X761079D02*
D03*
X759110D02*
D03*
X757142D02*
D03*
X755173D02*
D03*
X753205D02*
D03*
X751236D02*
D03*
D35*
X788441Y383736D02*
D03*
Y385705D02*
D03*
Y387673D02*
D03*
Y389642D02*
D03*
Y391610D02*
D03*
Y393579D02*
D03*
Y395547D02*
D03*
Y397516D02*
D03*
Y399484D02*
D03*
Y401453D02*
D03*
Y403421D02*
D03*
Y405390D02*
D03*
Y407358D02*
D03*
Y409327D02*
D03*
Y411295D02*
D03*
Y413264D02*
D03*
X743559D02*
D03*
Y411295D02*
D03*
Y409327D02*
D03*
Y407358D02*
D03*
Y405390D02*
D03*
Y403421D02*
D03*
Y401453D02*
D03*
Y399484D02*
D03*
Y397516D02*
D03*
Y395547D02*
D03*
Y393579D02*
D03*
Y391610D02*
D03*
Y389642D02*
D03*
Y387673D02*
D03*
Y385705D02*
D03*
Y383736D02*
D03*
D36*
X795327Y459000D02*
D03*
Y464000D02*
D03*
Y454000D02*
D03*
Y449000D02*
D03*
X773673Y459000D02*
D03*
Y464000D02*
D03*
Y454000D02*
D03*
Y449000D02*
D03*
D37*
X821949Y430000D02*
D03*
X814800Y430000D02*
D03*
X786149Y361000D02*
D03*
X779000Y361000D02*
D03*
X733839Y355000D02*
D03*
X740988Y355000D02*
D03*
X783551Y279599D02*
D03*
X790700Y279600D02*
D03*
X870149Y340989D02*
D03*
X863000Y340989D02*
D03*
X870149Y346989D02*
D03*
X863000Y346989D02*
D03*
X870149Y353089D02*
D03*
X863000Y353089D02*
D03*
X953000Y347988D02*
D03*
X960149Y347989D02*
D03*
X790700Y286500D02*
D03*
X783551Y286500D02*
D03*
X703649Y310501D02*
D03*
X696500Y310500D02*
D03*
X803649Y296500D02*
D03*
X796500Y296500D02*
D03*
D38*
X816921Y407224D02*
D03*
X814953D02*
D03*
X812984D02*
D03*
X811016D02*
D03*
X809047D02*
D03*
X807079D02*
D03*
Y422776D02*
D03*
X809047D02*
D03*
X811016D02*
D03*
X812984D02*
D03*
X814953D02*
D03*
X816921D02*
D03*
D39*
X804126Y410079D02*
D03*
Y412047D02*
D03*
Y414016D02*
D03*
Y415984D02*
D03*
Y417953D02*
D03*
Y419921D02*
D03*
X819874D02*
D03*
Y417953D02*
D03*
Y415984D02*
D03*
Y414016D02*
D03*
Y412047D02*
D03*
Y410079D02*
D03*
D40*
X767800Y356500D02*
D03*
X752400D02*
D03*
D41*
X742839Y347910D02*
D03*
X733839D02*
D03*
D42*
X705000Y374500D02*
D03*
Y369500D02*
D03*
Y364500D02*
D03*
Y359500D02*
D03*
X724488Y374500D02*
D03*
Y369500D02*
D03*
Y364500D02*
D03*
Y359500D02*
D03*
D43*
X894677Y363539D02*
D03*
X899008D02*
D03*
X903339D02*
D03*
X907669D02*
D03*
X912000D02*
D03*
X916331D02*
D03*
X920661D02*
D03*
X924992D02*
D03*
X929323D02*
D03*
Y293461D02*
D03*
X924992D02*
D03*
X920661D02*
D03*
X916331D02*
D03*
X912000D02*
D03*
X907669D02*
D03*
X903339D02*
D03*
X899008D02*
D03*
X894677D02*
D03*
D44*
X943299Y352319D02*
D03*
Y347988D02*
D03*
Y343657D02*
D03*
Y339327D02*
D03*
Y334996D02*
D03*
Y330665D02*
D03*
Y326335D02*
D03*
Y322004D02*
D03*
Y317673D02*
D03*
Y313342D02*
D03*
Y309012D02*
D03*
Y304681D02*
D03*
X880701D02*
D03*
Y309012D02*
D03*
Y313342D02*
D03*
Y317673D02*
D03*
Y322004D02*
D03*
Y326335D02*
D03*
Y330665D02*
D03*
Y334996D02*
D03*
Y339327D02*
D03*
Y343657D02*
D03*
Y347988D02*
D03*
Y352319D02*
D03*
D45*
X825520Y337621D02*
D03*
X821800Y327800D02*
D03*
X829380Y327779D02*
D03*
X852520Y307760D02*
D03*
X848800Y297939D02*
D03*
X856380Y297917D02*
D03*
X853020Y289260D02*
D03*
X849300Y279439D02*
D03*
X856880Y279417D02*
D03*
X794720Y312821D02*
D03*
X791000Y303000D02*
D03*
X798580Y302979D02*
D03*
X800020Y289421D02*
D03*
X796300Y279600D02*
D03*
X803880Y279579D02*
D03*
D46*
X958000Y406700D02*
D03*
X958000Y377700D02*
D03*
X936000Y406700D02*
D03*
X936000Y377700D02*
D03*
D47*
X973952Y354477D02*
D03*
X973972Y341140D02*
D03*
X677854Y304012D02*
D03*
X677835Y317348D02*
D03*
D48*
X967306Y347989D02*
D03*
X708500Y297500D02*
D03*
X700600D02*
D03*
X684500Y310500D02*
D03*
D49*
X863000Y307039D02*
D03*
Y298039D02*
D03*
X863500Y288539D02*
D03*
Y279539D02*
D03*
X811000Y288500D02*
D03*
Y279500D02*
D03*
M02*
