G04*
G04 #@! TF.GenerationSoftware,Altium Limited,Altium Designer,18.1.6 (161)*
G04*
G04 Layer_Color=65535*
%FSLAX25Y25*%
%MOIN*%
G70*
G01*
G75*
%ADD10C,0.01000*%
%ADD11C,0.00984*%
%ADD12C,0.02362*%
%ADD13C,0.00700*%
%ADD14C,0.00000*%
%ADD15C,0.00787*%
%ADD16C,0.00241*%
%ADD17C,0.00100*%
%ADD18C,0.00295*%
%ADD19C,0.00500*%
%ADD20C,0.00400*%
%ADD21C,0.00394*%
%ADD22C,0.00591*%
G36*
X749300Y369200D02*
X751300Y371200D01*
X753300Y369200D01*
X749300D01*
D02*
G37*
D10*
X703500Y445000D02*
G03*
X704500Y446000I0J1000D01*
G01*
X696500D02*
G03*
X697500Y445000I1000J0D01*
G01*
Y466000D02*
G03*
X696500Y465000I0J-1000D01*
G01*
X704500D02*
G03*
X703500Y466000I-1000J0D01*
G01*
X682299Y434500D02*
G03*
X683299Y433500I1000J0D01*
G01*
Y441500D02*
G03*
X682299Y440500I0J-1000D01*
G01*
X703299D02*
G03*
X702299Y441500I-1000J0D01*
G01*
Y433500D02*
G03*
X703299Y434500I0J1000D01*
G01*
X968000Y410700D02*
G03*
X965500Y413200I-2500J0D01*
G01*
X950500D02*
G03*
X948000Y410700I0J-2500D01*
G01*
X965500Y371200D02*
G03*
X968000Y373700I0J2500D01*
G01*
X948000D02*
G03*
X950500Y371200I2500J0D01*
G01*
X946000Y410700D02*
G03*
X943500Y413200I-2500J0D01*
G01*
X928500D02*
G03*
X926000Y410700I0J-2500D01*
G01*
X943500Y371200D02*
G03*
X946000Y373700I0J2500D01*
G01*
X926000D02*
G03*
X928500Y371200I2500J0D01*
G01*
X697500Y445000D02*
X703500D01*
X696500Y446000D02*
Y465000D01*
X704500Y446000D02*
Y465000D01*
X697500Y466000D02*
X703500D01*
X682299Y434500D02*
Y440500D01*
X683299Y441500D02*
X702299D01*
X683299Y433500D02*
X702299D01*
X703299Y434500D02*
Y440500D01*
X692500Y369500D02*
Y374500D01*
X682500Y369500D02*
X692500D01*
X682500D02*
Y374500D01*
X692500Y339500D02*
Y369500D01*
X682500Y339500D02*
X692500D01*
X682500D02*
Y369500D01*
X825500Y470000D02*
X920500D01*
X825500Y384000D02*
Y470000D01*
Y384000D02*
X920500D01*
Y470000D01*
X923500Y415500D02*
Y469500D01*
Y415500D02*
X968300D01*
X923500D02*
Y469500D01*
X968500Y415500D02*
Y469500D01*
Y415500D02*
Y469500D01*
X923500D02*
X968500D01*
X933500Y469700D02*
Y482500D01*
X958500Y469700D02*
Y482500D01*
X933500D02*
X958500D01*
X948000Y384700D02*
X968000D01*
Y373700D02*
Y410700D01*
X950500Y413200D02*
X965500D01*
X948000Y373700D02*
Y410700D01*
X950500Y371200D02*
X965500D01*
X926000Y384700D02*
X946000D01*
Y373700D02*
Y410700D01*
X928500Y413200D02*
X943500D01*
X926000Y373700D02*
Y410700D01*
X928500Y371200D02*
X943500D01*
X666661Y273689D02*
Y470425D01*
X678500Y458614D02*
Y470425D01*
Y273689D02*
Y285500D01*
X666661Y273689D02*
X1005244D01*
X666661Y470425D02*
X1005244D01*
X997370D02*
X1005244D01*
Y458614D02*
Y470425D01*
X997370Y273689D02*
X1005244D01*
Y285500D01*
Y458614D01*
X978000D02*
X1005244D01*
X978000Y285500D02*
X1005244D01*
X997370Y273689D02*
Y285500D01*
Y458614D02*
Y470425D01*
X978000Y458614D02*
X997370D01*
Y437000D02*
Y458614D01*
Y285393D02*
Y307008D01*
X978000Y285500D02*
X997370D01*
D11*
X722898Y448413D02*
G03*
X722898Y448413I-492J0D01*
G01*
X748972Y374091D02*
G03*
X748972Y374091I-492J0D01*
G01*
X705492Y377847D02*
G03*
X705492Y377847I-492J0D01*
G01*
X823000Y332200D02*
G03*
X823000Y332200I-492J0D01*
G01*
X850000Y302339D02*
G03*
X850000Y302339I-492J0D01*
G01*
X850500Y283839D02*
G03*
X850500Y283839I-492J0D01*
G01*
X792200Y307400D02*
G03*
X792200Y307400I-492J0D01*
G01*
X797500Y284000D02*
G03*
X797500Y284000I-492J0D01*
G01*
D12*
X753205Y384524D02*
G03*
X753205Y384524I-1181J0D01*
G01*
D13*
X741636Y455174D02*
G03*
X741583Y456000I6447J826D01*
G01*
X795864Y345326D02*
G03*
X795917Y344500I-6447J-826D01*
G01*
X846326Y330135D02*
G03*
X845500Y330083I-826J6447D01*
G01*
X821326Y300135D02*
G03*
X820500Y300083I-826J6447D01*
G01*
X735500Y443500D02*
X760500D01*
X735500D02*
Y468500D01*
X760500D01*
Y443500D02*
Y468500D01*
X777000Y357000D02*
X802000D01*
Y332000D02*
Y357000D01*
X777000Y332000D02*
X802000D01*
X777000D02*
Y357000D01*
X858000Y324000D02*
Y349000D01*
X833000Y324000D02*
X858000D01*
X833000D02*
Y349000D01*
X858000D01*
X833000Y294000D02*
Y319000D01*
X808000Y294000D02*
X833000D01*
X808000D02*
Y319000D01*
X833000D01*
D14*
X779081Y463193D02*
G03*
X779081Y463193I-880J0D01*
G01*
X874614Y352909D02*
G03*
X874614Y352909I-1000J0D01*
G01*
D15*
X824205Y408110D02*
G03*
X824205Y408110I-394J0D01*
G01*
X772866Y278610D02*
G03*
X772866Y278610I-394J0D01*
G01*
X672130Y400630D02*
X682563D01*
X690437D02*
X700870D01*
X672130Y429370D02*
X682563D01*
X690437D02*
X700870D01*
Y400630D02*
Y429370D01*
X672130Y400630D02*
Y429370D01*
X783913Y380587D02*
Y416413D01*
X748087D02*
X783913D01*
X748087Y380587D02*
Y416413D01*
Y380587D02*
X783913D01*
X734515Y430500D02*
Y440500D01*
X776484D01*
X734515Y430500D02*
X776484D01*
Y440500D01*
X765500Y430500D02*
Y440500D01*
X710906Y357157D02*
Y376842D01*
X718583Y357157D02*
Y376842D01*
X710906D02*
X718583D01*
X710906Y357157D02*
X718583D01*
X992370Y309500D02*
Y442000D01*
Y302000D02*
Y309500D01*
Y302000D02*
X1002370D01*
Y442000D01*
X992370D02*
X1002370D01*
X992370Y312000D02*
X1002370D01*
D16*
X967553Y313406D02*
X967794D01*
X969000Y316059D02*
X969241D01*
X969724Y317023D02*
X969965D01*
X969724Y316782D02*
X969965D01*
X969724Y317506D02*
X969965D01*
Y317988D02*
X970206D01*
Y318471D02*
X970447D01*
X970929Y318712D02*
X971171D01*
X971412Y319435D02*
X971653D01*
X971894Y320159D02*
X972135D01*
X971412Y320641D02*
X971653D01*
Y321124D02*
X971894D01*
Y321606D02*
X972135D01*
Y322088D02*
X972376D01*
Y322570D02*
X972618D01*
X973823Y322812D02*
X974065D01*
X976717Y329564D02*
X976959D01*
X976717Y329323D02*
X976959D01*
X975753Y329564D02*
X975994D01*
X975753Y329323D02*
X975994D01*
X971894Y328117D02*
X972135D01*
X971894Y327876D02*
X972135D01*
X971412Y329564D02*
X971653D01*
X974065Y329323D02*
X974306D01*
X973341Y324259D02*
X973582D01*
X974065Y323535D02*
X974306D01*
X974547Y324259D02*
X974788D01*
X975512Y325706D02*
X975753D01*
Y325947D02*
X975994D01*
X975753Y326188D02*
X975994D01*
X975753Y326429D02*
X975994D01*
X974547D02*
X974788D01*
X958630Y300141D02*
X980817D01*
X980335Y300383D02*
X980817D01*
X958630D02*
X958871D01*
X980335Y300624D02*
X980817D01*
X958630D02*
X958871D01*
X980335Y300865D02*
X980817D01*
X958630D02*
X958871D01*
X980335Y301106D02*
X980817D01*
X958630D02*
X958871D01*
X980335Y301347D02*
X980817D01*
X977923D02*
X978647D01*
X976717D02*
X977441D01*
X975029D02*
X975994D01*
X973582D02*
X974306D01*
X972376D02*
X973100D01*
X971412D02*
X972135D01*
X970206D02*
X970929D01*
X968518D02*
X969241D01*
X967553D02*
X968035D01*
X965623D02*
X966588D01*
X964418D02*
X964900D01*
X963212D02*
X963935D01*
X961041D02*
X962488D01*
X958630D02*
X958871D01*
X980335Y301588D02*
X980817D01*
X977923D02*
X978647D01*
X976717D02*
X977441D01*
X974788D02*
X976235D01*
X973582D02*
X974306D01*
X972376D02*
X973100D01*
X971412D02*
X972135D01*
X970206D02*
X970929D01*
X968518D02*
X969241D01*
X967553D02*
X968035D01*
X965382D02*
X966829D01*
X964418D02*
X964900D01*
X963212D02*
X963935D01*
X961041D02*
X962729D01*
X958630D02*
X958871D01*
X980335Y301830D02*
X980817D01*
X977923D02*
X978647D01*
X976717D02*
X977441D01*
X974547D02*
X976476D01*
X973582D02*
X974306D01*
X972376D02*
X973100D01*
X971412D02*
X972135D01*
X970206D02*
X970929D01*
X968518D02*
X969241D01*
X967553D02*
X968035D01*
X965382D02*
X967071D01*
X964418D02*
X964900D01*
X963212D02*
X963935D01*
X961041D02*
X962729D01*
X958630D02*
X958871D01*
X980335Y302071D02*
X980817D01*
X976717D02*
X978647D01*
X975753D02*
X976476D01*
X974547D02*
X975512D01*
X973582D02*
X974306D01*
X972376D02*
X973100D01*
X971171D02*
X972135D01*
X970206D02*
X970929D01*
X968518D02*
X969241D01*
X967553D02*
X968035D01*
X966347D02*
X967071D01*
X965141D02*
X965865D01*
X963212D02*
X964900D01*
X962247D02*
X962729D01*
X961041D02*
X961765D01*
X958630D02*
X958871D01*
X980335Y302312D02*
X980817D01*
X976717D02*
X978647D01*
X975753D02*
X976476D01*
X974547D02*
X975512D01*
X973582D02*
X974306D01*
X972376D02*
X973100D01*
X971171D02*
X971894D01*
X970206D02*
X970929D01*
X968518D02*
X969241D01*
X967553D02*
X968035D01*
X966347D02*
X967071D01*
X965141D02*
X965865D01*
X963212D02*
X964900D01*
X962247D02*
X962729D01*
X961041D02*
X961765D01*
X958630D02*
X958871D01*
X980335Y302553D02*
X980817D01*
X977923D02*
X978647D01*
X976717D02*
X977441D01*
X975753D02*
X976476D01*
X974547D02*
X975512D01*
X973582D02*
X974306D01*
X972376D02*
X973100D01*
X970206D02*
X971894D01*
X968518D02*
X969241D01*
X967553D02*
X968035D01*
X966347D02*
X967071D01*
X965141D02*
X965865D01*
X964418D02*
X964900D01*
X963212D02*
X963935D01*
X962247D02*
X962729D01*
X961041D02*
X961765D01*
X958630D02*
X958871D01*
X980335Y302794D02*
X980817D01*
X977923D02*
X978647D01*
X976717D02*
X977441D01*
X975753D02*
X976476D01*
X974547D02*
X975512D01*
X972376D02*
X974306D01*
X970206D02*
X971894D01*
X967553D02*
X969241D01*
X965141D02*
X965865D01*
X964418D02*
X964900D01*
X963212D02*
X963935D01*
X961041D02*
X962729D01*
X958630D02*
X958871D01*
X980335Y303035D02*
X980817D01*
X977923D02*
X978647D01*
X976717D02*
X977441D01*
X975753D02*
X976476D01*
X974547D02*
X975512D01*
X972376D02*
X974306D01*
X970206D02*
X971894D01*
X967553D02*
X969241D01*
X965141D02*
X965865D01*
X964418D02*
X964900D01*
X963212D02*
X963935D01*
X961041D02*
X962729D01*
X958630D02*
X958871D01*
X980335Y303277D02*
X980817D01*
X977923D02*
X978647D01*
X976717D02*
X977441D01*
X975753D02*
X976476D01*
X974547D02*
X975512D01*
X972376D02*
X974306D01*
X970206D02*
X971894D01*
X967553D02*
X969241D01*
X966347D02*
X967071D01*
X965141D02*
X965865D01*
X964418D02*
X964900D01*
X963212D02*
X963935D01*
X961041D02*
X962729D01*
X958630D02*
X958871D01*
X980335Y303518D02*
X980817D01*
X976717D02*
X978647D01*
X975753D02*
X976476D01*
X974547D02*
X975512D01*
X972376D02*
X974306D01*
X970206D02*
X971894D01*
X967553D02*
X969241D01*
X966347D02*
X967071D01*
X965141D02*
X965865D01*
X963212D02*
X964900D01*
X962247D02*
X962729D01*
X961041D02*
X961765D01*
X958630D02*
X958871D01*
X980335Y303759D02*
X980817D01*
X976959D02*
X978406D01*
X975753D02*
X976476D01*
X974547D02*
X975512D01*
X973582D02*
X974306D01*
X972376D02*
X973100D01*
X971171D02*
X971894D01*
X970206D02*
X970929D01*
X968518D02*
X969241D01*
X967553D02*
X968035D01*
X966347D02*
X967071D01*
X965141D02*
X965865D01*
X963453D02*
X964659D01*
X962247D02*
X962729D01*
X961041D02*
X961765D01*
X958630D02*
X958871D01*
X980335Y304000D02*
X980817D01*
X977079D02*
X978285D01*
X975753D02*
X976476D01*
X974547D02*
X975512D01*
X973582D02*
X974306D01*
X972376D02*
X973100D01*
X971412D02*
X972135D01*
X970206D02*
X970929D01*
X968518D02*
X969241D01*
X967553D02*
X968035D01*
X966347D02*
X967071D01*
X965141D02*
X965865D01*
X963453D02*
X964659D01*
X962006D02*
X962729D01*
X961041D02*
X961765D01*
X958630D02*
X958871D01*
X980335Y304241D02*
X980817D01*
X977200D02*
X978164D01*
X974788D02*
X976476D01*
X973582D02*
X974306D01*
X972376D02*
X973100D01*
X971653D02*
X972135D01*
X970206D02*
X971171D01*
X968518D02*
X969241D01*
X967553D02*
X968035D01*
X965382D02*
X967071D01*
X963694D02*
X964418D01*
X961041D02*
X962729D01*
X958630D02*
X958871D01*
X980335Y304483D02*
X980817D01*
X977441D02*
X977923D01*
X974788D02*
X976235D01*
X973582D02*
X974306D01*
X972376D02*
X973100D01*
X971653D02*
X972135D01*
X970206D02*
X971171D01*
X968518D02*
X969241D01*
X967553D02*
X968035D01*
X965382D02*
X966829D01*
X963694D02*
X964418D01*
X961041D02*
X962488D01*
X958630D02*
X958871D01*
X980335Y304724D02*
X980817D01*
X963935Y304965D02*
X964418D01*
X958630Y304724D02*
X958871D01*
X980335Y304965D02*
X980817D01*
X964176Y305206D02*
X964659D01*
X958630Y304965D02*
X958871D01*
X980335Y305206D02*
X980817D01*
X964418Y305447D02*
X964900D01*
X958630Y305206D02*
X958871D01*
X980335Y305447D02*
X980817D01*
X958630D02*
X958871D01*
X980335Y305688D02*
X980817D01*
X958630D02*
X958871D01*
X980335Y305930D02*
X980817D01*
X958630D02*
X958871D01*
X980335Y306171D02*
X980817D01*
X958630D02*
X958871D01*
X980335Y306412D02*
X980817D01*
X958630D02*
X958871D01*
X967553Y306653D02*
X980817D01*
X958630D02*
X967553D01*
X980335Y306894D02*
X980817D01*
X958630D02*
X967553D01*
X980335Y307135D02*
X980817D01*
X958630D02*
X967553D01*
X980335Y307377D02*
X980817D01*
X958630D02*
X967553D01*
X980335Y307618D02*
X980817D01*
X958630D02*
X967553D01*
X980335Y307859D02*
X980817D01*
X958630D02*
X967553D01*
X980335Y308100D02*
X980817D01*
X958630D02*
X967553D01*
X980335Y308341D02*
X980817D01*
X958630D02*
X966829D01*
X980335Y308582D02*
X980817D01*
X958630D02*
X966829D01*
X980335Y308824D02*
X980817D01*
X958630D02*
X966829D01*
X980335Y309065D02*
X980817D01*
X958630D02*
X966347D01*
X980335Y309306D02*
X980817D01*
X958630D02*
X965623D01*
X980335Y309547D02*
X980817D01*
X966588D02*
X967553D01*
X958630D02*
X965382D01*
X980335Y309788D02*
X980817D01*
X965865D02*
X967553D01*
X958630D02*
X964900D01*
X980335Y310030D02*
X980817D01*
X965623D02*
X967553D01*
X964176D02*
X964659D01*
X958630D02*
X963694D01*
X980335Y310271D02*
X980817D01*
X965382D02*
X967553D01*
X958630D02*
X963694D01*
X980335Y310512D02*
X980817D01*
X964900D02*
X967553D01*
X958630D02*
X963453D01*
X980335Y310753D02*
X980817D01*
X964900D02*
X967553D01*
X958630D02*
X963453D01*
X980335Y310994D02*
X980817D01*
X964659D02*
X967553D01*
X958630D02*
X963212D01*
X980335Y311235D02*
X980817D01*
X964418D02*
X967553D01*
X958630D02*
X962971D01*
X980335Y311476D02*
X980817D01*
X964418D02*
X967553D01*
X958630D02*
X962971D01*
X980335Y311718D02*
X980817D01*
X964176D02*
X967553D01*
X958630D02*
X963453D01*
X980335Y311959D02*
X980817D01*
X964176D02*
X967553D01*
X958630D02*
X963453D01*
X980335Y312200D02*
X980817D01*
X964176D02*
X967553D01*
X958630D02*
X963453D01*
X980335Y312441D02*
X980817D01*
X963935D02*
X967553D01*
X958630D02*
X963453D01*
X980335Y312682D02*
X980817D01*
X963935D02*
X967553D01*
X958630D02*
X963453D01*
X980335Y312924D02*
X980817D01*
X963935D02*
X967553D01*
X958630D02*
X963453D01*
X980335Y313165D02*
X980817D01*
X963935D02*
X967794D01*
X958630D02*
X963453D01*
X980335Y313406D02*
X980817D01*
X963935D02*
X967553D01*
X958630D02*
X963453D01*
X980335Y313647D02*
X980817D01*
X967794D02*
X968035D01*
X963935D02*
X967553D01*
X958630D02*
X963453D01*
X980335Y313888D02*
X980817D01*
X968035D02*
X968276D01*
X964176D02*
X967553D01*
X958630D02*
X963453D01*
X980335Y314129D02*
X980817D01*
X968035D02*
X968276D01*
X964176D02*
X967553D01*
X958630D02*
X963453D01*
X980335Y314371D02*
X980817D01*
X968276D02*
X968518D01*
X964176D02*
X967553D01*
X958630D02*
X963212D01*
X980335Y314612D02*
X980817D01*
X968276D02*
X968759D01*
X964418D02*
X967553D01*
X958630D02*
X962971D01*
X980335Y314853D02*
X980817D01*
X968518D02*
X968759D01*
X964418D02*
X967553D01*
X958630D02*
X963212D01*
X980335Y315094D02*
X980817D01*
X968518D02*
X969000D01*
X964659D02*
X967553D01*
X958630D02*
X963212D01*
X980335Y315335D02*
X980817D01*
X968759D02*
X969000D01*
X964659D02*
X967553D01*
X958630D02*
X963453D01*
X980335Y315577D02*
X980817D01*
X968759D02*
X969241D01*
X964900D02*
X967553D01*
X958630D02*
X963453D01*
X980335Y315818D02*
X980817D01*
X969000D02*
X969482D01*
X965141D02*
X967553D01*
X958630D02*
X963694D01*
X980335Y316059D02*
X980817D01*
X969482D02*
X969724D01*
X965623D02*
X967553D01*
X964176D02*
X964659D01*
X958630D02*
X963694D01*
X980335Y316300D02*
X980817D01*
X969241D02*
X969724D01*
X966106D02*
X967553D01*
X958630D02*
X964900D01*
X980335Y316541D02*
X980817D01*
X969724D02*
X969965D01*
X969241D02*
X969482D01*
X966829D02*
X967553D01*
X958630D02*
X965382D01*
X980335Y316782D02*
X980817D01*
X969482D02*
X969724D01*
X958630D02*
X965623D01*
X980335Y317023D02*
X980817D01*
X969965D02*
X970206D01*
X958630D02*
X966347D01*
X980335Y317265D02*
X980817D01*
X970206D02*
X970447D01*
X969724D02*
X969965D01*
X958630D02*
X966588D01*
X980335Y317506D02*
X980817D01*
X970206D02*
X970447D01*
X958630D02*
X966588D01*
X980335Y317747D02*
X980817D01*
X970447D02*
X970688D01*
X969965D02*
X970206D01*
X958630D02*
X966588D01*
X980335Y317988D02*
X980817D01*
X970688D02*
X970929D01*
X958630D02*
X967553D01*
X980335Y318229D02*
X980817D01*
X970688D02*
X970929D01*
X970206D02*
X970447D01*
X958630D02*
X967553D01*
X980335Y318471D02*
X980817D01*
X970929D02*
X971171D01*
X958630D02*
X967553D01*
X980335Y318712D02*
X980817D01*
X970447D02*
X970688D01*
X958630D02*
X967553D01*
X980335Y318953D02*
X980817D01*
X971171D02*
X971412D01*
X970688D02*
X970929D01*
X958630D02*
X967553D01*
X980335Y319194D02*
X980817D01*
X971412D02*
X971653D01*
X970688D02*
X970929D01*
X958630D02*
X967553D01*
X980335Y319435D02*
X980817D01*
X970929D02*
X971171D01*
X958630D02*
X967553D01*
X980335Y319676D02*
X980817D01*
X971653D02*
X971894D01*
X970929D02*
X971171D01*
X958630D02*
X967553D01*
X980335Y319918D02*
X980817D01*
X971894D02*
X972135D01*
X971171D02*
X971412D01*
X958630D02*
X967553D01*
X980335Y320159D02*
X980817D01*
X971171D02*
X971412D01*
X958630D02*
X967553D01*
X980335Y320400D02*
X980817D01*
X972135D02*
X972376D01*
X971412D02*
X971653D01*
X958630D02*
X967553D01*
X980335Y320641D02*
X980817D01*
X972376D02*
X972618D01*
X958630D02*
X967553D01*
X980335Y320882D02*
X980817D01*
X972376D02*
X972618D01*
X971653D02*
X971894D01*
X958630D02*
X967553D01*
X980335Y321124D02*
X980817D01*
X972618D02*
X972859D01*
X958630D02*
X967553D01*
X980335Y321365D02*
X980817D01*
X972859D02*
X973100D01*
X971894D02*
X972135D01*
X967312D02*
X967553D01*
X958630D02*
X966829D01*
X980335Y321606D02*
X980817D01*
X972859D02*
X973100D01*
X967794D02*
X968035D01*
X958630D02*
X967312D01*
X980335Y321847D02*
X980817D01*
X973100D02*
X973341D01*
X972135D02*
X972376D01*
X968035D02*
X968518D01*
X958630D02*
X967794D01*
X980335Y322088D02*
X980817D01*
X973341D02*
X973582D01*
X968518D02*
X969000D01*
X967794D02*
X968035D01*
X958630D02*
X967553D01*
X980335Y322329D02*
X980817D01*
X973341D02*
X973582D01*
X972376D02*
X972618D01*
X969000D02*
X969482D01*
X968276D02*
X968518D01*
X958630D02*
X967553D01*
X980335Y322570D02*
X980817D01*
X973582D02*
X973823D01*
X969482D02*
X969724D01*
X968518D02*
X968759D01*
X958630D02*
X967553D01*
X980335Y322812D02*
X980817D01*
X972618D02*
X972859D01*
X969965D02*
X970206D01*
X969000D02*
X969241D01*
X958630D02*
X967553D01*
X980335Y323053D02*
X980817D01*
X973823D02*
X974065D01*
X972859D02*
X973100D01*
X970447D02*
X970688D01*
X969241D02*
X969482D01*
X958630D02*
X967553D01*
X980335Y323294D02*
X980817D01*
X974065D02*
X974306D01*
X972859D02*
X973100D01*
X970929D02*
X971171D01*
X969724D02*
X969965D01*
X958630D02*
X967553D01*
X980335Y323535D02*
X980817D01*
X973100D02*
X973341D01*
X971412D02*
X971653D01*
X969965D02*
X970447D01*
X958630D02*
X967553D01*
X980335Y323776D02*
X980817D01*
X974306D02*
X974547D01*
X973100D02*
X973341D01*
X971894D02*
X972135D01*
X970447D02*
X970688D01*
X958630D02*
X967553D01*
X980335Y324018D02*
X980817D01*
X974547D02*
X974788D01*
X973341D02*
X973582D01*
X972135D02*
X972618D01*
X970688D02*
X971171D01*
X958630D02*
X967553D01*
X980335Y324259D02*
X980817D01*
X972618D02*
X973100D01*
X971171D02*
X971412D01*
X958630D02*
X967553D01*
X980335Y324500D02*
X980817D01*
X974788D02*
X975029D01*
X973100D02*
X973823D01*
X971412D02*
X971894D01*
X958630D02*
X967553D01*
X980335Y324741D02*
X980817D01*
X975029D02*
X975270D01*
X971894D02*
X972135D01*
X958630D02*
X967553D01*
X980335Y324982D02*
X980817D01*
X975029D02*
X975270D01*
X972135D02*
X972618D01*
X958630D02*
X967553D01*
X980335Y325223D02*
X980817D01*
X975270D02*
X975512D01*
X974547D02*
X974788D01*
X972618D02*
X972859D01*
X958630D02*
X967553D01*
X980335Y325465D02*
X980817D01*
X975512D02*
X975753D01*
X974306D02*
X974547D01*
X973100D02*
X973341D01*
X958630D02*
X967553D01*
X980335Y325706D02*
X980817D01*
X973341D02*
X973582D01*
X958630D02*
X967553D01*
X980335Y325947D02*
X980817D01*
X973823D02*
X974065D01*
X958630D02*
X967553D01*
X980335Y326188D02*
X980817D01*
X974065D02*
X974306D01*
X958630D02*
X967553D01*
X980335Y326429D02*
X980817D01*
X975512D02*
X975753D01*
X974306D02*
X974547D01*
X958630D02*
X967553D01*
X980335Y326670D02*
X980817D01*
X974788D02*
X975512D01*
X958630D02*
X967553D01*
X980335Y326912D02*
X980817D01*
X958630D02*
X967553D01*
X980335Y327153D02*
X980817D01*
X958630D02*
X967553D01*
X980335Y327394D02*
X980817D01*
X958630D02*
X967553D01*
X980335Y327635D02*
X980817D01*
X958630D02*
X967553D01*
X980335Y327876D02*
X980817D01*
X976235D02*
X976476D01*
X963694D02*
X967553D01*
X958630D02*
X963694D01*
X980335Y328117D02*
X980817D01*
X976235D02*
X976476D01*
X963935D02*
X967553D01*
X962488D02*
X963212D01*
X958630D02*
X961765D01*
X980335Y328359D02*
X980817D01*
X963694D02*
X967553D01*
X962729D02*
X962971D01*
X958630D02*
X962006D01*
X980335Y328600D02*
X980817D01*
X977682D02*
X978406D01*
X975994D02*
X976959D01*
X975029D02*
X975270D01*
X974065D02*
X974306D01*
X972859D02*
X973100D01*
X972376D02*
X972618D01*
X971171D02*
X971412D01*
X969724D02*
X970688D01*
X963453D02*
X967553D01*
X958630D02*
X962247D01*
X980335Y328841D02*
X980817D01*
X978406D02*
X978647D01*
X977441D02*
X977682D01*
X976717D02*
X976959D01*
X975753D02*
X975994D01*
X975029D02*
X975270D01*
X974065D02*
X974306D01*
X972859D02*
X973100D01*
X972376D02*
X972618D01*
X971171D02*
X971653D01*
X970688D02*
X970929D01*
X969724D02*
X969965D01*
X963694D02*
X967553D01*
X958630D02*
X962006D01*
X980335Y329082D02*
X980817D01*
X977441D02*
X977682D01*
X976717D02*
X976959D01*
X975753D02*
X975994D01*
X975029D02*
X975270D01*
X974065D02*
X974306D01*
X972859D02*
X973100D01*
X971412D02*
X972376D01*
X970688D02*
X970929D01*
X969724D02*
X969965D01*
X963935D02*
X967553D01*
X958630D02*
X961765D01*
X980335Y329323D02*
X980817D01*
X977441D02*
X977682D01*
X975029D02*
X975270D01*
X972859D02*
X973100D01*
X972135D02*
X972376D01*
X971412D02*
X971653D01*
X970688D02*
X970929D01*
X969724D02*
X970206D01*
X964176D02*
X967553D01*
X958630D02*
X961524D01*
X980335Y329564D02*
X980817D01*
X977441D02*
X977682D01*
X974065D02*
X975270D01*
X972859D02*
X973100D01*
X972135D02*
X972376D01*
X970688D02*
X970929D01*
X969724D02*
X970206D01*
X963212D02*
X967553D01*
X958630D02*
X962247D01*
X980335Y329806D02*
X980817D01*
X977441D02*
X977682D01*
X976717D02*
X976959D01*
X975753D02*
X975994D01*
X975029D02*
X975270D01*
X974065D02*
X974306D01*
X972859D02*
X973100D01*
X971653D02*
X972135D01*
X970688D02*
X970929D01*
X969724D02*
X969965D01*
X962971D02*
X967553D01*
X958630D02*
X962488D01*
X980335Y330047D02*
X980817D01*
X978406D02*
X978647D01*
X977441D02*
X977682D01*
X976717D02*
X976959D01*
X975753D02*
X975994D01*
X975029D02*
X975270D01*
X974065D02*
X974306D01*
X972859D02*
X973100D01*
X971653D02*
X972135D01*
X970688D02*
X970929D01*
X969724D02*
X969965D01*
X962971D02*
X967553D01*
X958630D02*
X962488D01*
X980335Y330288D02*
X980817D01*
X977682D02*
X978406D01*
X975994D02*
X976959D01*
X975029D02*
X975270D01*
X974065D02*
X974306D01*
X972859D02*
X973100D01*
X971653D02*
X972135D01*
X969724D02*
X970929D01*
X958630D02*
X967553D01*
X980335Y330529D02*
X980817D01*
X958630D02*
X967553D01*
X980335Y330770D02*
X980817D01*
X958630D02*
X967553D01*
X980335Y331012D02*
X980817D01*
X958630D02*
X967553D01*
X980335Y331253D02*
X980817D01*
X958630D02*
X967553D01*
X980335Y331494D02*
X980817D01*
X958630D02*
X967553D01*
X980335Y331735D02*
X980817D01*
X958630D02*
X967553D01*
X980335Y331976D02*
X980817D01*
X958630D02*
X967553D01*
X980335Y332217D02*
X980817D01*
X958630D02*
X967553D01*
X958630Y332459D02*
X980817D01*
X958630Y332700D02*
X980817D01*
D17*
X835550Y360100D02*
X835950D01*
X844650Y366900D02*
X844950D01*
X844550Y366800D02*
X844950D01*
X844450Y366700D02*
X844850D01*
X844350Y366600D02*
X844850D01*
X844250Y366500D02*
X844850D01*
X844150Y366400D02*
X844750D01*
X844050Y366300D02*
X844750D01*
X843950Y366200D02*
X844750D01*
X843850Y366100D02*
X844750D01*
X843750Y366000D02*
X844650D01*
X843650Y365900D02*
X844650D01*
X843550Y365800D02*
X844650D01*
X843450Y365700D02*
X844550D01*
X846950D02*
X848250D01*
X853150D02*
X854250D01*
X819050Y365600D02*
X819950D01*
X821350D02*
X822250D01*
X827250D02*
X828050D01*
X829250D02*
X830050D01*
X831550D02*
X832850D01*
X843350D02*
X844550D01*
X846650D02*
X848450D01*
X849450D02*
X851750D01*
X852850D02*
X854550D01*
X818950Y365500D02*
X820150D01*
X821150D02*
X822450D01*
X824250D02*
X825350D01*
X827050D02*
X828250D01*
X829150D02*
X830150D01*
X831150D02*
X833150D01*
X835050D02*
X837350D01*
X837950D02*
X838650D01*
X840250D02*
X841050D01*
X843250D02*
X844550D01*
X846550D02*
X848550D01*
X849350D02*
X851850D01*
X852650D02*
X854750D01*
X818850Y365400D02*
X820250D01*
X821150D02*
X822550D01*
X824050D02*
X825550D01*
X826950D02*
X828350D01*
X829150D02*
X830250D01*
X830950D02*
X833450D01*
X834950D02*
X837450D01*
X837750D02*
X838750D01*
X840150D02*
X841150D01*
X843150D02*
X844450D01*
X846350D02*
X848650D01*
X849250D02*
X851850D01*
X852550D02*
X854850D01*
X818850Y365300D02*
X820250D01*
X821150D02*
X822550D01*
X824050D02*
X825650D01*
X826950D02*
X828450D01*
X829150D02*
X830250D01*
X830950D02*
X833550D01*
X834850D02*
X837450D01*
X837650D02*
X838850D01*
X840050D02*
X841250D01*
X842950D02*
X844450D01*
X846250D02*
X848750D01*
X849150D02*
X851850D01*
X852450D02*
X854850D01*
X818850Y365200D02*
X820350D01*
X821050D02*
X822550D01*
X823950D02*
X825650D01*
X826950D02*
X828450D01*
X829150D02*
X830250D01*
X830950D02*
X833750D01*
X834750D02*
X837450D01*
X837750D02*
X838850D01*
X840050D02*
X841250D01*
X842850D02*
X844450D01*
X846150D02*
X848750D01*
X849150D02*
X851850D01*
X852350D02*
X854950D01*
X818750Y365100D02*
X820350D01*
X821050D02*
X822550D01*
X823950D02*
X825750D01*
X826950D02*
X828550D01*
X829150D02*
X830250D01*
X830950D02*
X833850D01*
X834750D02*
X837450D01*
X837750D02*
X838950D01*
X840050D02*
X841250D01*
X842750D02*
X844450D01*
X846050D02*
X848750D01*
X849150D02*
X851850D01*
X852350D02*
X854950D01*
X818750Y365000D02*
X820350D01*
X821050D02*
X822550D01*
X823950D02*
X825750D01*
X826950D02*
X828550D01*
X829150D02*
X830250D01*
X830950D02*
X833950D01*
X834750D02*
X837450D01*
X837750D02*
X838950D01*
X840050D02*
X841250D01*
X842650D02*
X844350D01*
X845950D02*
X848750D01*
X849150D02*
X851750D01*
X852250D02*
X854950D01*
X818750Y364900D02*
X820450D01*
X820950D02*
X822550D01*
X823850D02*
X825750D01*
X826950D02*
X828550D01*
X829150D02*
X830250D01*
X830950D02*
X833950D01*
X834750D02*
X837350D01*
X837750D02*
X838950D01*
X839950D02*
X841250D01*
X842550D02*
X844350D01*
X845950D02*
X847450D01*
X848050D02*
X848650D01*
X849150D02*
X851650D01*
X852250D02*
X853650D01*
X818750Y364800D02*
X820450D01*
X820950D02*
X822550D01*
X823850D02*
X825850D01*
X826950D02*
X828650D01*
X829150D02*
X830250D01*
X830950D02*
X832050D01*
X832450D02*
X834050D01*
X834750D02*
X837250D01*
X839950D02*
X841150D01*
X842450D02*
X844350D01*
X845850D02*
X847250D01*
X848250D02*
X848550D01*
X849150D02*
X850250D01*
X852250D02*
X853450D01*
X818750Y364700D02*
X820450D01*
X820950D02*
X822650D01*
X823850D02*
X825850D01*
X826950D02*
X828650D01*
X829150D02*
X830250D01*
X830950D02*
X832050D01*
X832750D02*
X834150D01*
X834750D02*
X835850D01*
X839950D02*
X841150D01*
X842350D02*
X844250D01*
X845850D02*
X847050D01*
X849150D02*
X850250D01*
X852250D02*
X853350D01*
X818750Y364600D02*
X820550D01*
X820950D02*
X822650D01*
X823750D02*
X825850D01*
X826950D02*
X828750D01*
X829150D02*
X830250D01*
X830950D02*
X832050D01*
X832850D02*
X834150D01*
X834750D02*
X835850D01*
X837850D02*
X839050D01*
X839950D02*
X841150D01*
X842250D02*
X844250D01*
X845850D02*
X847050D01*
X849150D02*
X850250D01*
X852250D02*
X853450D01*
X818750Y364500D02*
X820550D01*
X820850D02*
X822650D01*
X823750D02*
X825950D01*
X826950D02*
X828750D01*
X829150D02*
X830250D01*
X830950D02*
X832050D01*
X832950D02*
X834150D01*
X834750D02*
X835850D01*
X837950D02*
X839050D01*
X839850D02*
X841150D01*
X842150D02*
X844250D01*
X845750D02*
X846950D01*
X849150D02*
X850250D01*
X852250D02*
X853550D01*
X818750Y364400D02*
X820550D01*
X820850D02*
X822650D01*
X823750D02*
X824750D01*
X824850D02*
X825950D01*
X826950D02*
X828850D01*
X829150D02*
X830250D01*
X830950D02*
X832050D01*
X833050D02*
X834250D01*
X834750D02*
X835850D01*
X837950D02*
X839150D01*
X839850D02*
X841050D01*
X842050D02*
X844150D01*
X845750D02*
X846950D01*
X849150D02*
X850250D01*
X852250D02*
X853850D01*
X818750Y364300D02*
X820650D01*
X820850D02*
X822650D01*
X823650D02*
X824750D01*
X824850D02*
X825950D01*
X826950D02*
X828850D01*
X829150D02*
X830250D01*
X830950D02*
X832050D01*
X833050D02*
X834250D01*
X834750D02*
X835850D01*
X837950D02*
X839150D01*
X839850D02*
X841050D01*
X841950D02*
X844150D01*
X845750D02*
X846850D01*
X849150D02*
X851650D01*
X852250D02*
X854150D01*
X818750Y364200D02*
X820650D01*
X820750D02*
X822650D01*
X823650D02*
X824750D01*
X824950D02*
X826050D01*
X826950D02*
X828950D01*
X829150D02*
X830250D01*
X830950D02*
X832050D01*
X833050D02*
X834250D01*
X834750D02*
X837250D01*
X838050D02*
X839150D01*
X839850D02*
X841050D01*
X841850D02*
X845650D01*
X845750D02*
X846850D01*
X849150D02*
X851650D01*
X852250D02*
X854350D01*
X818750Y364100D02*
X820650D01*
X820750D02*
X822650D01*
X823650D02*
X824650D01*
X824950D02*
X826050D01*
X826950D02*
X828950D01*
X829150D02*
X830250D01*
X830950D02*
X832050D01*
X833150D02*
X834250D01*
X834750D02*
X837250D01*
X838050D02*
X839150D01*
X839750D02*
X840950D01*
X841750D02*
X845650D01*
X845750D02*
X846850D01*
X849150D02*
X851650D01*
X852350D02*
X854550D01*
X818750Y364000D02*
X821550D01*
X821650D02*
X822650D01*
X823550D02*
X824650D01*
X824950D02*
X826050D01*
X826950D02*
X829050D01*
X829150D02*
X830250D01*
X830950D02*
X832050D01*
X833150D02*
X834250D01*
X834750D02*
X837250D01*
X838050D02*
X839250D01*
X839750D02*
X840950D01*
X841650D02*
X846850D01*
X849150D02*
X851650D01*
X852450D02*
X854750D01*
X818750Y363900D02*
X819750D01*
X819850D02*
X821550D01*
X821650D02*
X822650D01*
X823550D02*
X824650D01*
X825050D02*
X826050D01*
X826950D02*
X828050D01*
X828150D02*
X829050D01*
X829150D02*
X830250D01*
X830950D02*
X832050D01*
X833150D02*
X834250D01*
X834750D02*
X837250D01*
X838150D02*
X839250D01*
X839750D02*
X840950D01*
X841550D02*
X845550D01*
X845650D02*
X846850D01*
X849150D02*
X851650D01*
X852550D02*
X854850D01*
X818750Y363800D02*
X819750D01*
X819950D02*
X821550D01*
X821650D02*
X822650D01*
X823550D02*
X824550D01*
X825050D02*
X826150D01*
X826950D02*
X828050D01*
X828150D02*
X830250D01*
X830950D02*
X832050D01*
X833150D02*
X834350D01*
X834750D02*
X837250D01*
X838150D02*
X839250D01*
X839750D02*
X840850D01*
X841450D02*
X845450D01*
X845650D02*
X846850D01*
X849150D02*
X851650D01*
X852650D02*
X854950D01*
X818750Y363700D02*
X819750D01*
X819950D02*
X821450D01*
X821650D02*
X822650D01*
X823450D02*
X824550D01*
X825050D02*
X826150D01*
X826950D02*
X828050D01*
X828150D02*
X830250D01*
X830950D02*
X832050D01*
X833150D02*
X834250D01*
X834750D02*
X837250D01*
X838150D02*
X839350D01*
X839650D02*
X840850D01*
X841350D02*
X845350D01*
X845750D02*
X846850D01*
X849150D02*
X851650D01*
X852750D02*
X854950D01*
X818750Y363600D02*
X819750D01*
X819950D02*
X821450D01*
X821650D02*
X822750D01*
X823450D02*
X824550D01*
X825050D02*
X826150D01*
X826950D02*
X828050D01*
X828250D02*
X830250D01*
X830950D02*
X832050D01*
X833150D02*
X834250D01*
X834750D02*
X837250D01*
X838250D02*
X839350D01*
X839650D02*
X840850D01*
X841250D02*
X845250D01*
X845750D02*
X846850D01*
X849150D02*
X851550D01*
X853050D02*
X855050D01*
X818750Y363500D02*
X819750D01*
X820050D02*
X821450D01*
X821650D02*
X822750D01*
X823450D02*
X826250D01*
X826950D02*
X828050D01*
X828250D02*
X830250D01*
X830950D02*
X832050D01*
X833150D02*
X834250D01*
X834750D02*
X837150D01*
X838250D02*
X839350D01*
X839650D02*
X840750D01*
X841150D02*
X845150D01*
X845750D02*
X846950D01*
X849150D02*
X850250D01*
X853250D02*
X855050D01*
X818650Y363400D02*
X819750D01*
X820050D02*
X821350D01*
X821650D02*
X822750D01*
X823350D02*
X826250D01*
X826950D02*
X828050D01*
X828350D02*
X830250D01*
X830950D02*
X832050D01*
X833150D02*
X834250D01*
X834750D02*
X835850D01*
X838250D02*
X839450D01*
X839550D02*
X840750D01*
X841150D02*
X845050D01*
X845750D02*
X846950D01*
X849150D02*
X850250D01*
X853550D02*
X855050D01*
X818650Y363300D02*
X819750D01*
X820050D02*
X821350D01*
X821650D02*
X822750D01*
X823350D02*
X826250D01*
X826950D02*
X828050D01*
X828350D02*
X830250D01*
X830950D02*
X832050D01*
X833050D02*
X834250D01*
X834750D02*
X835850D01*
X838350D02*
X839450D01*
X839550D02*
X840750D01*
X841150D02*
X844950D01*
X845750D02*
X846950D01*
X849150D02*
X850250D01*
X853850D02*
X855150D01*
X818650Y363200D02*
X819750D01*
X820150D02*
X821350D01*
X821650D02*
X822750D01*
X823350D02*
X826250D01*
X826950D02*
X828050D01*
X828450D02*
X830250D01*
X830950D02*
X832050D01*
X833050D02*
X834250D01*
X834750D02*
X835850D01*
X838350D02*
X839450D01*
X839550D02*
X840650D01*
X842650D02*
X844850D01*
X845750D02*
X847050D01*
X849150D02*
X850250D01*
X853950D02*
X855150D01*
X818650Y363100D02*
X819750D01*
X820150D02*
X821350D01*
X821650D02*
X822750D01*
X823250D02*
X826350D01*
X826950D02*
X828050D01*
X828450D02*
X830250D01*
X830950D02*
X832050D01*
X832950D02*
X834250D01*
X834750D02*
X835850D01*
X838450D02*
X840650D01*
X842650D02*
X844750D01*
X845850D02*
X847150D01*
X849150D02*
X850250D01*
X852450D02*
X852750D01*
X853950D02*
X855150D01*
X818650Y363000D02*
X819750D01*
X820150D02*
X821250D01*
X821650D02*
X822750D01*
X823250D02*
X826350D01*
X826950D02*
X828050D01*
X828550D02*
X830250D01*
X830950D02*
X832050D01*
X832950D02*
X834150D01*
X834750D02*
X835850D01*
X838450D02*
X840550D01*
X842550D02*
X844650D01*
X845850D02*
X847250D01*
X848350D02*
X848550D01*
X849150D02*
X850250D01*
X852350D02*
X852850D01*
X853950D02*
X855150D01*
X818650Y362900D02*
X819750D01*
X820250D02*
X821150D01*
X821650D02*
X822750D01*
X823250D02*
X826350D01*
X826950D02*
X828050D01*
X828550D02*
X830250D01*
X830950D02*
X832050D01*
X832850D02*
X834150D01*
X834750D02*
X835850D01*
X838450D02*
X840550D01*
X842550D02*
X844550D01*
X845950D02*
X847450D01*
X848150D02*
X848650D01*
X849150D02*
X851750D01*
X852250D02*
X853150D01*
X853850D02*
X855050D01*
X818650Y362800D02*
X819750D01*
X820550D02*
X820850D01*
X821650D02*
X822750D01*
X823150D02*
X826450D01*
X826950D02*
X828050D01*
X828650D02*
X830250D01*
X830950D02*
X832050D01*
X832650D02*
X834050D01*
X834750D02*
X837350D01*
X838550D02*
X840550D01*
X842550D02*
X844450D01*
X845950D02*
X848750D01*
X849150D02*
X851850D01*
X852250D02*
X855050D01*
X818650Y362700D02*
X819750D01*
X821650D02*
X822750D01*
X823150D02*
X824350D01*
X825250D02*
X826450D01*
X826950D02*
X828050D01*
X828650D02*
X830250D01*
X830950D02*
X834050D01*
X834750D02*
X837450D01*
X838550D02*
X840450D01*
X842450D02*
X844350D01*
X846050D02*
X848750D01*
X849150D02*
X851850D01*
X852250D02*
X855050D01*
X818650Y362600D02*
X819750D01*
X821650D02*
X822750D01*
X823150D02*
X824350D01*
X825350D02*
X826450D01*
X826950D02*
X828050D01*
X828750D02*
X830250D01*
X830950D02*
X833950D01*
X834750D02*
X837450D01*
X838650D02*
X840450D01*
X842450D02*
X844250D01*
X846150D02*
X848750D01*
X849150D02*
X851850D01*
X852250D02*
X854950D01*
X818650Y362500D02*
X819750D01*
X821650D02*
X822750D01*
X823150D02*
X824250D01*
X825350D02*
X826450D01*
X826950D02*
X828050D01*
X828750D02*
X830250D01*
X830950D02*
X833850D01*
X834750D02*
X837450D01*
X838650D02*
X840350D01*
X842450D02*
X844150D01*
X846250D02*
X848750D01*
X849150D02*
X851850D01*
X852250D02*
X854850D01*
X818650Y362400D02*
X819750D01*
X821650D02*
X822850D01*
X823050D02*
X824250D01*
X825350D02*
X826550D01*
X826950D02*
X828050D01*
X828850D02*
X830250D01*
X830950D02*
X833750D01*
X834750D02*
X837450D01*
X838650D02*
X840350D01*
X842350D02*
X844050D01*
X846350D02*
X848750D01*
X849250D02*
X851850D01*
X852350D02*
X854750D01*
X818650Y362300D02*
X819750D01*
X821750D02*
X822850D01*
X823050D02*
X824250D01*
X825350D02*
X826550D01*
X826950D02*
X828050D01*
X828950D02*
X830250D01*
X830950D02*
X833650D01*
X834850D02*
X837450D01*
X838750D02*
X840250D01*
X842350D02*
X843850D01*
X846550D02*
X848650D01*
X849350D02*
X851850D01*
X852450D02*
X854650D01*
X818750Y362200D02*
X819750D01*
X821750D02*
X822850D01*
X823050D02*
X824250D01*
X825450D02*
X826550D01*
X827050D02*
X828050D01*
X828950D02*
X830250D01*
X831050D02*
X833450D01*
X834950D02*
X837450D01*
X838750D02*
X840250D01*
X842350D02*
X843750D01*
X846650D02*
X848450D01*
X849450D02*
X851750D01*
X852550D02*
X854450D01*
X818850Y362100D02*
X819750D01*
X821850D02*
X822750D01*
X823150D02*
X824150D01*
X825450D02*
X826550D01*
X827150D02*
X828050D01*
X829150D02*
X830150D01*
X831150D02*
X833250D01*
X835050D02*
X837350D01*
X838850D02*
X840150D01*
X842350D02*
X843650D01*
X846950D02*
X848250D01*
X852850D02*
X854250D01*
X823250Y362000D02*
X824150D01*
X825650D02*
X826450D01*
X831450D02*
X832950D01*
X839050D02*
X839950D01*
X842250D02*
X843550D01*
X842250Y361900D02*
X843450D01*
X842250Y361800D02*
X843350D01*
X842150Y361700D02*
X843250D01*
X842150Y361600D02*
X843150D01*
X842150Y361500D02*
X843050D01*
X842050Y361400D02*
X842950D01*
X842050Y361300D02*
X842850D01*
X842050Y361200D02*
X842750D01*
X842050Y361100D02*
X842650D01*
X841950Y361000D02*
X842550D01*
X849350D02*
X849850D01*
X823350Y360900D02*
X827950D01*
X829350D02*
X829950D01*
X831050D02*
X831450D01*
X841950D02*
X842450D01*
X849350D02*
X849850D01*
X823350Y360800D02*
X827950D01*
X829350D02*
X830050D01*
X831050D02*
X831450D01*
X841950D02*
X842350D01*
X843150D02*
X843450D01*
X849350D02*
X849850D01*
X823350Y360700D02*
X827950D01*
X829350D02*
X830050D01*
X831050D02*
X831450D01*
X841850D02*
X842250D01*
X843150D02*
X843450D01*
X849350D02*
X849850D01*
X823350Y360600D02*
X827950D01*
X829350D02*
X830150D01*
X831050D02*
X831450D01*
X841850D02*
X842150D01*
X843050D02*
X843450D01*
X849350D02*
X849850D01*
X823550Y360500D02*
X827850D01*
X829350D02*
X830150D01*
X831050D02*
X831450D01*
X843050D02*
X843450D01*
X849350D02*
X849850D01*
X829350Y360400D02*
X830250D01*
X831050D02*
X831450D01*
X843050D02*
X843450D01*
X849350D02*
X849850D01*
X829350Y360300D02*
X830250D01*
X831050D02*
X831450D01*
X843050D02*
X843450D01*
X849350D02*
X849850D01*
X829350Y360200D02*
X829750D01*
X829850D02*
X830350D01*
X831050D02*
X831450D01*
X832450D02*
X833250D01*
X834050D02*
X834350D01*
X835550D02*
X835850D01*
X836750D02*
X837550D01*
X838450D02*
X838850D01*
X839150D02*
X839650D01*
X841450D02*
X842350D01*
X842650D02*
X844050D01*
X844950D02*
X845850D01*
X846750D02*
X847150D01*
X847550D02*
X848250D01*
X849350D02*
X849850D01*
X823650Y360100D02*
X827150D01*
X829350D02*
X829750D01*
X829850D02*
X830350D01*
X831050D02*
X831450D01*
X832350D02*
X833450D01*
X833950D02*
X834350D01*
X836550D02*
X837650D01*
X838450D02*
X838850D01*
X838950D02*
X839650D01*
X841250D02*
X842550D01*
X842650D02*
X844050D01*
X844750D02*
X846050D01*
X846750D02*
X847250D01*
X847350D02*
X848450D01*
X849350D02*
X849850D01*
X823550Y360000D02*
X827250D01*
X829350D02*
X829750D01*
X829950D02*
X830450D01*
X831050D02*
X831450D01*
X832150D02*
X833550D01*
X833950D02*
X834450D01*
X835450D02*
X835950D01*
X836450D02*
X837750D01*
X838450D02*
X839650D01*
X840950D02*
X842450D01*
X842650D02*
X844050D01*
X844650D02*
X846150D01*
X846750D02*
X848550D01*
X849350D02*
X849850D01*
X823550Y359900D02*
X827350D01*
X829350D02*
X829750D01*
X830050D02*
X830450D01*
X831050D02*
X831450D01*
X832150D02*
X832750D01*
X833050D02*
X833650D01*
X833950D02*
X834450D01*
X835450D02*
X835850D01*
X836350D02*
X836950D01*
X837250D02*
X837850D01*
X838450D02*
X839250D01*
X841050D02*
X841650D01*
X842050D02*
X842450D01*
X843050D02*
X843450D01*
X844550D02*
X845250D01*
X845550D02*
X846250D01*
X846850D02*
X847650D01*
X848050D02*
X848650D01*
X849350D02*
X849850D01*
X823550Y359800D02*
X827350D01*
X829350D02*
X829750D01*
X830050D02*
X830550D01*
X831050D02*
X831450D01*
X832050D02*
X832550D01*
X833250D02*
X833750D01*
X834050D02*
X834550D01*
X835350D02*
X835850D01*
X836250D02*
X836750D01*
X837450D02*
X837950D01*
X838450D02*
X839050D01*
X841050D02*
X841550D01*
X843050D02*
X843450D01*
X844550D02*
X845050D01*
X845750D02*
X846350D01*
X846950D02*
X847450D01*
X848150D02*
X848750D01*
X849350D02*
X849850D01*
X823650Y359700D02*
X827250D01*
X829350D02*
X829750D01*
X830150D02*
X830550D01*
X831050D02*
X831450D01*
X831950D02*
X832450D01*
X833350D02*
X833750D01*
X834050D02*
X834550D01*
X835350D02*
X835850D01*
X836250D02*
X836650D01*
X837550D02*
X837950D01*
X838450D02*
X838950D01*
X841050D02*
X841450D01*
X843050D02*
X843450D01*
X844450D02*
X844950D01*
X845850D02*
X846350D01*
X846950D02*
X847350D01*
X848250D02*
X848750D01*
X849350D02*
X849850D01*
X829350Y359600D02*
X829750D01*
X830150D02*
X830650D01*
X831050D02*
X831450D01*
X831950D02*
X832350D01*
X833350D02*
X833750D01*
X834150D02*
X834550D01*
X835350D02*
X835750D01*
X836150D02*
X836650D01*
X837550D02*
X837950D01*
X838450D02*
X838950D01*
X841050D02*
X841550D01*
X843050D02*
X843450D01*
X844450D02*
X844850D01*
X845950D02*
X846450D01*
X846950D02*
X847350D01*
X848350D02*
X848850D01*
X849350D02*
X849850D01*
X829350Y359500D02*
X829750D01*
X830250D02*
X830750D01*
X831050D02*
X831450D01*
X831950D02*
X832350D01*
X833350D02*
X833750D01*
X834150D02*
X834650D01*
X835250D02*
X835750D01*
X836150D02*
X836550D01*
X837550D02*
X838050D01*
X838450D02*
X838850D01*
X841050D02*
X841750D01*
X843050D02*
X843450D01*
X844350D02*
X844850D01*
X845950D02*
X846450D01*
X846950D02*
X847350D01*
X848350D02*
X848850D01*
X849350D02*
X849850D01*
X829350Y359400D02*
X829750D01*
X830250D02*
X830750D01*
X831050D02*
X831450D01*
X831950D02*
X833750D01*
X834250D02*
X834650D01*
X835250D02*
X835650D01*
X836150D02*
X838050D01*
X838450D02*
X838850D01*
X841150D02*
X842050D01*
X843050D02*
X843450D01*
X844350D02*
X844850D01*
X846050D02*
X846450D01*
X846950D02*
X847350D01*
X848350D02*
X848850D01*
X849350D02*
X849750D01*
X829350Y359300D02*
X829750D01*
X830350D02*
X830850D01*
X831050D02*
X831450D01*
X831950D02*
X833750D01*
X834250D02*
X834750D01*
X835150D02*
X835650D01*
X836150D02*
X838050D01*
X838450D02*
X838850D01*
X841250D02*
X842250D01*
X843050D02*
X843450D01*
X844350D02*
X844850D01*
X846050D02*
X846450D01*
X846950D02*
X847350D01*
X848350D02*
X848850D01*
X849350D02*
X849750D01*
X824950Y359200D02*
X827650D01*
X829350D02*
X829750D01*
X830350D02*
X830850D01*
X831050D02*
X831450D01*
X831950D02*
X833750D01*
X834250D02*
X834750D01*
X835150D02*
X835550D01*
X836150D02*
X838050D01*
X838450D02*
X838850D01*
X841450D02*
X842350D01*
X843050D02*
X843450D01*
X844350D02*
X844850D01*
X846050D02*
X846450D01*
X846950D02*
X847350D01*
X848350D02*
X848850D01*
X849350D02*
X849750D01*
X824850Y359100D02*
X827750D01*
X829350D02*
X829750D01*
X830450D02*
X830950D01*
X831050D02*
X831450D01*
X831950D02*
X832350D01*
X834350D02*
X834750D01*
X835050D02*
X835550D01*
X836150D02*
X836550D01*
X838450D02*
X838850D01*
X841650D02*
X842450D01*
X843050D02*
X843450D01*
X844350D02*
X844850D01*
X846050D02*
X846450D01*
X846950D02*
X847350D01*
X848350D02*
X848850D01*
X849450D02*
X849750D01*
X824850Y359000D02*
X827750D01*
X829350D02*
X829750D01*
X830450D02*
X830950D01*
X831050D02*
X831450D01*
X831950D02*
X832350D01*
X834350D02*
X834850D01*
X835050D02*
X835450D01*
X836150D02*
X836650D01*
X838450D02*
X838850D01*
X841950D02*
X842550D01*
X843050D02*
X843450D01*
X844350D02*
X844850D01*
X845950D02*
X846450D01*
X846950D02*
X847350D01*
X848350D02*
X848850D01*
X849450D02*
X849750D01*
X824850Y358900D02*
X827750D01*
X829350D02*
X829750D01*
X830550D02*
X831450D01*
X831950D02*
X832450D01*
X834450D02*
X834850D01*
X835050D02*
X835450D01*
X836150D02*
X836650D01*
X838450D02*
X838850D01*
X842050D02*
X842550D01*
X843050D02*
X843450D01*
X844450D02*
X844950D01*
X845950D02*
X846450D01*
X846950D02*
X847350D01*
X848350D02*
X848750D01*
X824950Y358800D02*
X827650D01*
X829350D02*
X829750D01*
X830650D02*
X831450D01*
X831950D02*
X832450D01*
X834450D02*
X835450D01*
X836250D02*
X836750D01*
X838450D02*
X838850D01*
X842150D02*
X842550D01*
X843050D02*
X843550D01*
X844450D02*
X844950D01*
X845850D02*
X846350D01*
X846950D02*
X847350D01*
X848250D02*
X848750D01*
X829350Y358700D02*
X829750D01*
X830650D02*
X831450D01*
X832050D02*
X832550D01*
X834550D02*
X835350D01*
X836250D02*
X836750D01*
X838450D02*
X838850D01*
X841050D02*
X841250D01*
X842050D02*
X842550D01*
X843050D02*
X843550D01*
X844550D02*
X845050D01*
X845750D02*
X846350D01*
X846950D02*
X847450D01*
X848150D02*
X848750D01*
X849350D02*
X849850D01*
X829350Y358600D02*
X829750D01*
X830750D02*
X831450D01*
X832050D02*
X832750D01*
X833150D02*
X833650D01*
X834550D02*
X835350D01*
X836350D02*
X836950D01*
X837450D02*
X837850D01*
X838450D02*
X838850D01*
X841050D02*
X841550D01*
X841950D02*
X842550D01*
X843150D02*
X843650D01*
X843950D02*
X844150D01*
X844550D02*
X845250D01*
X845550D02*
X846250D01*
X846950D02*
X847650D01*
X847950D02*
X848650D01*
X849250D02*
X849850D01*
X829350Y358500D02*
X829750D01*
X830750D02*
X831450D01*
X832150D02*
X833650D01*
X834550D02*
X835250D01*
X836350D02*
X837850D01*
X838450D02*
X838850D01*
X840950D02*
X842450D01*
X843150D02*
X844250D01*
X844650D02*
X846150D01*
X846950D02*
X848550D01*
X849250D02*
X849850D01*
X829350Y358400D02*
X829750D01*
X830850D02*
X831450D01*
X832250D02*
X833650D01*
X834650D02*
X835250D01*
X836550D02*
X837850D01*
X838450D02*
X838850D01*
X841050D02*
X842350D01*
X843250D02*
X844250D01*
X844750D02*
X846050D01*
X846950D02*
X848450D01*
X849350D02*
X849850D01*
X825450Y358300D02*
X827350D01*
X829350D02*
X829750D01*
X830850D02*
X831450D01*
X832450D02*
X833450D01*
X834650D02*
X835150D01*
X836650D02*
X837650D01*
X838450D02*
X838850D01*
X841250D02*
X842150D01*
X843350D02*
X844150D01*
X844950D02*
X845850D01*
X846950D02*
X847350D01*
X847550D02*
X848250D01*
X849350D02*
X849850D01*
X825450Y358200D02*
X827450D01*
X846950D02*
X847350D01*
X825350Y358100D02*
X827450D01*
X846950D02*
X847350D01*
X825450Y358000D02*
X827350D01*
X846950D02*
X847350D01*
X825550Y357900D02*
X827250D01*
X846950D02*
X847350D01*
X846950Y357800D02*
X847350D01*
X846950Y357700D02*
X847350D01*
X846950Y357600D02*
X847350D01*
X825250Y357500D02*
X826050D01*
X846950D02*
X847350D01*
X825150Y357400D02*
X826150D01*
X846950D02*
X847350D01*
X825050Y357300D02*
X826250D01*
X825050Y357200D02*
X826250D01*
X825150Y357100D02*
X826150D01*
X841850D02*
X845750D01*
X837650Y357000D02*
X845850D01*
X829650Y356900D02*
X845850D01*
X828350Y356800D02*
X845850D01*
X827950Y356700D02*
X845850D01*
X827950Y356600D02*
X845550D01*
X827950Y356500D02*
X844650D01*
X827950Y356400D02*
X840350D01*
X828450Y356300D02*
X835350D01*
D18*
X837850Y364800D02*
X838950D01*
D19*
X718100Y397600D02*
Y411800D01*
X724430Y411826D02*
X727500D01*
Y397574D02*
Y411826D01*
X724430Y397574D02*
X727500D01*
X703170D02*
X724430D01*
X703170Y411826D02*
X724430D01*
X703170Y397574D02*
Y411826D01*
X776232Y447839D02*
Y465162D01*
Y447839D02*
X792768D01*
Y465162D01*
X776232D02*
X792768D01*
X804126Y407126D02*
Y408155D01*
Y407126D02*
X805155D01*
X804126Y422874D02*
X805155D01*
X804126Y421844D02*
Y422874D01*
X819874Y421844D02*
Y422874D01*
X818845D02*
X819874D01*
X818845Y407126D02*
X819874D01*
Y408155D01*
X881094Y363146D02*
X892315D01*
X931685D02*
X942906D01*
Y354681D02*
Y363146D01*
Y293854D02*
Y302319D01*
X931685Y293854D02*
X942906D01*
X881094D02*
X892315D01*
X881094D02*
Y302319D01*
Y354681D02*
Y363146D01*
X698000Y294900D02*
Y300100D01*
Y294900D02*
X711100D01*
Y300100D01*
X698000D02*
X711100D01*
X726705Y277331D02*
X765484D01*
X726705Y317685D02*
X765484D01*
D20*
X693100Y455100D02*
Y455900D01*
X689900Y455100D02*
Y455900D01*
X689200Y449300D02*
Y461700D01*
X693800D01*
Y449300D02*
Y461700D01*
X689200Y449300D02*
X693800D01*
X716100Y446100D02*
X716900D01*
X716100Y442900D02*
X716900D01*
X710300Y442200D02*
X722700D01*
X710300D02*
Y446800D01*
X722700D01*
Y442200D02*
Y446800D01*
X784600Y441900D02*
X785400D01*
X784600Y445100D02*
X785400D01*
X778800Y445800D02*
X791200D01*
Y441200D02*
Y445800D01*
X778800Y441200D02*
X791200D01*
X778800D02*
Y445800D01*
X813600Y462400D02*
X814400D01*
X813600Y465600D02*
X814400D01*
X807800Y466300D02*
X820200D01*
Y461700D02*
Y466300D01*
X807800Y461700D02*
X820200D01*
X807800D02*
Y466300D01*
X805400Y428400D02*
X806200D01*
X805400Y431600D02*
X806200D01*
X799600Y432300D02*
X812000D01*
Y427700D02*
Y432300D01*
X799600Y427700D02*
X812000D01*
X799600D02*
Y432300D01*
X806300Y433700D02*
Y438300D01*
Y433700D02*
X818700D01*
Y438300D01*
X806300D02*
X818700D01*
X812100Y437600D02*
X812900D01*
X812100Y434400D02*
X812900D01*
X817400Y380100D02*
Y380900D01*
X820600Y380100D02*
Y380900D01*
X821300Y374300D02*
Y386700D01*
X816700Y374300D02*
X821300D01*
X816700D02*
Y386700D01*
X821300D01*
X795300Y362600D02*
X796100D01*
X795300Y359400D02*
X796100D01*
X789500Y358700D02*
X801900D01*
X789500D02*
Y363300D01*
X801900D01*
Y358700D02*
Y363300D01*
X732900Y370400D02*
Y371200D01*
X736100Y370400D02*
Y371200D01*
X736800Y364600D02*
Y377000D01*
X732200Y364600D02*
X736800D01*
X732200D02*
Y377000D01*
X736800D01*
X767300Y348100D02*
X768100D01*
X767300Y344900D02*
X768100D01*
X761500Y344200D02*
X773900D01*
X761500D02*
Y348800D01*
X773900D01*
Y344200D02*
Y348800D01*
X752621Y344900D02*
X753420D01*
X752621Y348100D02*
X753420D01*
X746820Y348800D02*
X759221D01*
Y344200D02*
Y348800D01*
X746820Y344200D02*
X759221D01*
X746820D02*
Y348800D01*
X733839Y344410D02*
Y344910D01*
Y344410D02*
X742839D01*
Y344910D01*
X733839Y350910D02*
Y351410D01*
X742839D01*
Y350910D02*
Y351410D01*
X690900Y386300D02*
Y387100D01*
X694100Y386300D02*
Y387100D01*
X694800Y380500D02*
Y392900D01*
X690200Y380500D02*
X694800D01*
X690200D02*
Y392900D01*
X694800D01*
X680900Y386300D02*
Y387100D01*
X684100Y386300D02*
Y387100D01*
X684800Y380500D02*
Y392900D01*
X680200Y380500D02*
X684800D01*
X680200D02*
Y392900D01*
X684800D01*
X821420Y342400D02*
X822220D01*
X821420Y345600D02*
X822220D01*
X815620Y346300D02*
X828020D01*
Y341700D02*
Y346300D01*
X815620Y341700D02*
X828020D01*
X815620D02*
Y346300D01*
X916400Y280600D02*
Y281400D01*
X919600Y280600D02*
Y281400D01*
X920300Y274800D02*
Y287200D01*
X915700Y274800D02*
X920300D01*
X915700D02*
Y287200D01*
X920300D01*
X910846Y280600D02*
Y281400D01*
X914046Y280600D02*
Y281400D01*
X914746Y274800D02*
Y287200D01*
X910146Y274800D02*
X914746D01*
X910146D02*
Y287200D01*
X914746D01*
X905292Y280600D02*
Y281400D01*
X908492Y280600D02*
Y281400D01*
X909192Y274800D02*
Y287200D01*
X904592Y274800D02*
X909192D01*
X904592D02*
Y287200D01*
X909192D01*
X899739Y280600D02*
Y281400D01*
X902939Y280600D02*
Y281400D01*
X903639Y274800D02*
Y287200D01*
X899039Y274800D02*
X903639D01*
X899039D02*
Y287200D01*
X903639D01*
X866000Y298039D02*
X866500D01*
Y307039D01*
X866000D02*
X866500D01*
X859500Y298039D02*
X860000D01*
X859500D02*
Y307039D01*
X860000D01*
X866500Y279539D02*
X867000D01*
Y288539D01*
X866500D02*
X867000D01*
X860000Y279539D02*
X860500D01*
X860000D02*
Y288539D01*
X860500D01*
X806600Y308721D02*
Y309521D01*
X803400Y308721D02*
Y309521D01*
X802700Y302921D02*
Y315321D01*
X807300D01*
Y302921D02*
Y315321D01*
X802700Y302921D02*
X807300D01*
X814000Y279500D02*
X814500D01*
Y288500D01*
X814000D02*
X814500D01*
X807500Y279500D02*
X808000D01*
X807500D02*
Y288500D01*
X808000D01*
X786600Y298100D02*
X787400D01*
X786600Y294900D02*
X787400D01*
X780800Y294200D02*
X793200D01*
X780800D02*
Y298800D01*
X793200D01*
Y294200D02*
Y298800D01*
D21*
X713055Y449496D02*
X719945D01*
X713055Y461504D02*
X719945D01*
X731500Y454000D02*
Y457000D01*
X727500Y454000D02*
Y457000D01*
X732000Y450000D02*
Y461000D01*
X727000Y450000D02*
X732000D01*
X727000D02*
Y452000D01*
Y461000D01*
X732000D01*
X768000Y459000D02*
Y462000D01*
X764000Y459000D02*
Y462000D01*
X768500Y455000D02*
Y466000D01*
X763500Y455000D02*
X768500D01*
X763500D02*
Y457000D01*
Y466000D01*
X768500D01*
X800500Y448851D02*
Y451851D01*
X804500Y448851D02*
Y451851D01*
X800000Y444851D02*
Y455851D01*
X805000D01*
Y453851D02*
Y455851D01*
Y444851D02*
Y453851D01*
X800000Y444851D02*
X805000D01*
X810500Y449000D02*
Y452000D01*
X806500Y449000D02*
Y452000D01*
X811000Y445000D02*
Y456000D01*
X806000Y445000D02*
X811000D01*
X806000D02*
Y447000D01*
Y456000D01*
X811000D01*
X812500Y448851D02*
Y451851D01*
X816500Y448851D02*
Y451851D01*
X812000Y444851D02*
Y455851D01*
X817000D01*
Y453851D02*
Y455851D01*
Y444851D02*
Y453851D01*
X812000Y444851D02*
X817000D01*
X822500Y449000D02*
Y452000D01*
X818500Y449000D02*
Y452000D01*
X823000Y445000D02*
Y456000D01*
X818000Y445000D02*
X823000D01*
X818000D02*
Y447000D01*
Y456000D01*
X823000D01*
X816800Y432000D02*
X819800D01*
X816800Y428000D02*
X819800D01*
X812800Y432500D02*
X823800D01*
Y427500D02*
Y432500D01*
X821800Y427500D02*
X823800D01*
X812800D02*
X821800D01*
X812800D02*
Y432500D01*
X781000Y363000D02*
X784000D01*
X781000Y359000D02*
X784000D01*
X777000Y363500D02*
X788000D01*
Y358500D02*
Y363500D01*
X786000Y358500D02*
X788000D01*
X777000D02*
X786000D01*
X777000D02*
Y363500D01*
X727500Y383500D02*
Y386500D01*
X731500Y383500D02*
Y386500D01*
X727000Y379500D02*
Y390500D01*
X732000D01*
Y388500D02*
Y390500D01*
Y379500D02*
Y388500D01*
X727000Y379500D02*
X732000D01*
X769898Y350101D02*
Y362699D01*
X750213D02*
X769898D01*
X750200Y350102D02*
Y362700D01*
X750213Y350101D02*
X769898D01*
X735988Y353000D02*
X738988D01*
X735988Y357000D02*
X738988D01*
X731988Y352501D02*
X742988D01*
X731988D02*
Y357501D01*
X733988D01*
X742988D01*
Y352501D02*
Y357501D01*
X785700Y277600D02*
X788700D01*
X785700Y281600D02*
X788700D01*
X781700Y277100D02*
X792700D01*
X781700D02*
Y282100D01*
X783700D01*
X792700D01*
Y277100D02*
Y282100D01*
X865000Y342989D02*
X868000D01*
X865000Y338989D02*
X868000D01*
X861000Y343489D02*
X872000D01*
Y338489D02*
Y343489D01*
X870000Y338489D02*
X872000D01*
X861000D02*
X870000D01*
X861000D02*
Y343489D01*
X865000Y348989D02*
X868000D01*
X865000Y344989D02*
X868000D01*
X861000Y349489D02*
X872000D01*
Y344489D02*
Y349489D01*
X870000Y344489D02*
X872000D01*
X861000D02*
X870000D01*
X861000D02*
Y349489D01*
X865000Y355089D02*
X868000D01*
X865000Y351089D02*
X868000D01*
X861000Y355589D02*
X872000D01*
Y350589D02*
Y355589D01*
X870000Y350589D02*
X872000D01*
X861000D02*
X870000D01*
X861000D02*
Y355589D01*
X812000Y329949D02*
Y332949D01*
X808000Y329949D02*
Y332949D01*
X812500Y325949D02*
Y336949D01*
X807500Y325949D02*
X812500D01*
X807500D02*
Y327949D01*
Y336949D01*
X812500D01*
X814000Y329800D02*
Y332800D01*
X818000Y329800D02*
Y332800D01*
X813500Y325800D02*
Y336800D01*
X818500D01*
Y334800D02*
Y336800D01*
Y325800D02*
Y334800D01*
X813500Y325800D02*
X818500D01*
X966842Y354969D02*
X968145D01*
X966842Y350965D02*
Y354969D01*
X966877Y341154D02*
X968180D01*
X966877D02*
Y345158D01*
X981263Y341193D02*
Y354996D01*
X979834D02*
X981263D01*
X979834Y341193D02*
X981263D01*
X955149Y345989D02*
X958149D01*
X955149Y349989D02*
X958149D01*
X951149Y345489D02*
X962149D01*
X951149D02*
Y350489D01*
X953149D01*
X962149D01*
Y345489D02*
Y350489D01*
X839499Y300066D02*
Y303066D01*
X835499Y300066D02*
Y303066D01*
X839999Y296066D02*
Y307066D01*
X834999Y296066D02*
X839999D01*
X834999D02*
Y298066D01*
Y307066D01*
X839999D01*
X841500Y299939D02*
Y302939D01*
X845500Y299939D02*
Y302939D01*
X841000Y295939D02*
Y306939D01*
X846000D01*
Y304939D02*
Y306939D01*
Y295939D02*
Y304939D01*
X841000Y295939D02*
X846000D01*
X868000Y300838D02*
Y303838D01*
X872000Y300838D02*
Y303838D01*
X867500Y296838D02*
Y307838D01*
X872500D01*
Y305838D02*
Y307838D01*
Y296838D02*
Y305838D01*
X867500Y296838D02*
X872500D01*
X868500Y282338D02*
Y285338D01*
X872500Y282338D02*
Y285338D01*
X868000Y278338D02*
Y289338D01*
X873000D01*
Y287338D02*
Y289338D01*
Y278338D02*
Y287338D01*
X868000Y278338D02*
X873000D01*
X841500Y281417D02*
Y284417D01*
X845500Y281417D02*
Y284417D01*
X841000Y277417D02*
Y288417D01*
X846000D01*
Y286417D02*
Y288417D01*
Y277417D02*
Y286417D01*
X841000Y277417D02*
X846000D01*
X838999Y281566D02*
Y284566D01*
X834999Y281566D02*
Y284566D01*
X839499Y277566D02*
Y288566D01*
X834499Y277566D02*
X839499D01*
X834499D02*
Y279566D01*
Y288566D01*
X839499D01*
X787500Y305149D02*
Y308149D01*
X783499Y305149D02*
Y308149D01*
X787999Y301149D02*
Y312149D01*
X783000Y301149D02*
X787999D01*
X783000D02*
Y303149D01*
Y312149D01*
X787999D01*
X817000Y281500D02*
Y284500D01*
X821000Y281500D02*
Y284500D01*
X816500Y277500D02*
Y288500D01*
X821500D01*
Y286500D02*
Y288500D01*
Y277500D02*
Y286500D01*
X816500Y277500D02*
X821500D01*
X785551Y288499D02*
X788551D01*
X785551Y284500D02*
X788551D01*
X781551Y289000D02*
X792551D01*
Y283999D02*
Y289000D01*
X790551Y283999D02*
X792551D01*
X781551D02*
X790551D01*
X781551D02*
Y289000D01*
X698500Y312500D02*
X701500D01*
X698500Y308500D02*
X701500D01*
X694500Y313000D02*
X705500D01*
Y308000D02*
Y313000D01*
X703500Y308000D02*
X705500D01*
X694500D02*
X703500D01*
X694500D02*
Y313000D01*
X693500Y305501D02*
Y308501D01*
X689500Y305501D02*
Y308501D01*
X694000Y301501D02*
Y312501D01*
X689000Y301501D02*
X694000D01*
X689000D02*
Y303501D01*
Y312501D01*
X694000D01*
X683661Y303520D02*
X684965D01*
Y307524D01*
X683626Y317335D02*
X684929D01*
Y313331D02*
Y317335D01*
X670543Y303492D02*
Y317295D01*
Y303492D02*
X671973D01*
X670543Y317295D02*
X671973D01*
X798500Y298500D02*
X801500D01*
X798500Y294500D02*
X801500D01*
X794500Y299000D02*
X805500D01*
Y294000D02*
Y299000D01*
X803500Y294000D02*
X805500D01*
X794500D02*
X803500D01*
X794500D02*
Y299000D01*
X675800Y368268D02*
Y367940D01*
X676456Y367284D01*
X677112Y367940D01*
Y368268D01*
X676456Y367284D02*
Y366300D01*
X679080D02*
X677768D01*
X679080Y367612D01*
Y367940D01*
X678752Y368268D01*
X678096D01*
X677768Y367940D01*
X758100Y365568D02*
Y365240D01*
X758756Y364584D01*
X759412Y365240D01*
Y365568D01*
X758756Y364584D02*
Y363600D01*
X760068D02*
X760724D01*
X760396D01*
Y365568D01*
X760068Y365240D01*
X782900Y468368D02*
Y466728D01*
X783228Y466400D01*
X783884D01*
X784212Y466728D01*
Y468368D01*
X786180D02*
X784868D01*
Y467384D01*
X785524Y467712D01*
X785852D01*
X786180Y467384D01*
Y466728D01*
X785852Y466400D01*
X785196D01*
X784868Y466728D01*
X848000Y459968D02*
Y458328D01*
X848328Y458000D01*
X848984D01*
X849312Y458328D01*
Y459968D01*
X850952Y458000D02*
Y459968D01*
X849968Y458984D01*
X851280D01*
X879500Y368468D02*
Y366828D01*
X879828Y366500D01*
X880484D01*
X880812Y366828D01*
Y368468D01*
X881468Y368140D02*
X881796Y368468D01*
X882452D01*
X882780Y368140D01*
Y367812D01*
X882452Y367484D01*
X882124D01*
X882452D01*
X882780Y367156D01*
Y366828D01*
X882452Y366500D01*
X881796D01*
X881468Y366828D01*
X742988Y421468D02*
Y419828D01*
X743316Y419500D01*
X743972D01*
X744300Y419828D01*
Y421468D01*
X744956Y419500D02*
X745612D01*
X745284D01*
Y421468D01*
X744956Y421140D01*
X746812Y447440D02*
X746484Y447768D01*
X745828D01*
X745500Y447440D01*
Y447112D01*
X745828Y446784D01*
X746484D01*
X746812Y446456D01*
Y446128D01*
X746484Y445800D01*
X745828D01*
X745500Y446128D01*
X747468Y447768D02*
Y445800D01*
X748124Y446456D01*
X748780Y445800D01*
Y447768D01*
X750420Y445800D02*
Y447768D01*
X749436Y446784D01*
X750748D01*
X828860Y305512D02*
X828532Y305184D01*
Y304528D01*
X828860Y304200D01*
X829188D01*
X829516Y304528D01*
Y305184D01*
X829844Y305512D01*
X830172D01*
X830500Y305184D01*
Y304528D01*
X830172Y304200D01*
X828532Y306168D02*
X830500D01*
X829844Y306824D01*
X830500Y307480D01*
X828532D01*
X828860Y308136D02*
X828532Y308464D01*
Y309120D01*
X828860Y309448D01*
X829188D01*
X829516Y309120D01*
Y308792D01*
Y309120D01*
X829844Y309448D01*
X830172D01*
X830500Y309120D01*
Y308464D01*
X830172Y308136D01*
X835812Y347140D02*
X835484Y347468D01*
X834828D01*
X834500Y347140D01*
Y346812D01*
X834828Y346484D01*
X835484D01*
X835812Y346156D01*
Y345828D01*
X835484Y345500D01*
X834828D01*
X834500Y345828D01*
X836468Y347468D02*
Y345500D01*
X837124Y346156D01*
X837780Y345500D01*
Y347468D01*
X839748Y345500D02*
X838436D01*
X839748Y346812D01*
Y347140D01*
X839420Y347468D01*
X838764D01*
X838436Y347140D01*
X788412Y335040D02*
X788084Y335368D01*
X787428D01*
X787100Y335040D01*
Y334712D01*
X787428Y334384D01*
X788084D01*
X788412Y334056D01*
Y333728D01*
X788084Y333400D01*
X787428D01*
X787100Y333728D01*
X789068Y335368D02*
Y333400D01*
X789724Y334056D01*
X790380Y333400D01*
Y335368D01*
X791036Y333400D02*
X791692D01*
X791364D01*
Y335368D01*
X791036Y335040D01*
X726800Y446200D02*
Y448168D01*
X727784D01*
X728112Y447840D01*
Y447184D01*
X727784Y446856D01*
X726800D01*
X727456D02*
X728112Y446200D01*
X728768Y447840D02*
X729096Y448168D01*
X729752D01*
X730080Y447840D01*
Y447512D01*
X729752Y447184D01*
X729424D01*
X729752D01*
X730080Y446856D01*
Y446528D01*
X729752Y446200D01*
X729096D01*
X728768Y446528D01*
X730736Y447840D02*
X731064Y448168D01*
X731720D01*
X732048Y447840D01*
Y447512D01*
X731720Y447184D01*
X731392D01*
X731720D01*
X732048Y446856D01*
Y446528D01*
X731720Y446200D01*
X731064D01*
X730736Y446528D01*
X771500Y457500D02*
X769532D01*
Y458484D01*
X769860Y458812D01*
X770516D01*
X770844Y458484D01*
Y457500D01*
Y458156D02*
X771500Y458812D01*
X769860Y459468D02*
X769532Y459796D01*
Y460452D01*
X769860Y460780D01*
X770188D01*
X770516Y460452D01*
Y460124D01*
Y460452D01*
X770844Y460780D01*
X771172D01*
X771500Y460452D01*
Y459796D01*
X771172Y459468D01*
X771500Y462748D02*
Y461436D01*
X770188Y462748D01*
X769860D01*
X769532Y462420D01*
Y461764D01*
X769860Y461436D01*
X818200Y457000D02*
Y458968D01*
X819184D01*
X819512Y458640D01*
Y457984D01*
X819184Y457656D01*
X818200D01*
X818856D02*
X819512Y457000D01*
X820168Y458640D02*
X820496Y458968D01*
X821152D01*
X821480Y458640D01*
Y458312D01*
X821152Y457984D01*
X820824D01*
X821152D01*
X821480Y457656D01*
Y457328D01*
X821152Y457000D01*
X820496D01*
X820168Y457328D01*
X822136Y457000D02*
X822792D01*
X822464D01*
Y458968D01*
X822136Y458640D01*
X805900Y457000D02*
Y458968D01*
X806884D01*
X807212Y458640D01*
Y457984D01*
X806884Y457656D01*
X805900D01*
X806556D02*
X807212Y457000D01*
X807868Y458640D02*
X808196Y458968D01*
X808852D01*
X809180Y458640D01*
Y458312D01*
X808852Y457984D01*
X808524D01*
X808852D01*
X809180Y457656D01*
Y457328D01*
X808852Y457000D01*
X808196D01*
X807868Y457328D01*
X809836Y458640D02*
X810164Y458968D01*
X810820D01*
X811148Y458640D01*
Y457328D01*
X810820Y457000D01*
X810164D01*
X809836Y457328D01*
Y458640D01*
X812000Y457000D02*
Y458968D01*
X812984D01*
X813312Y458640D01*
Y457984D01*
X812984Y457656D01*
X812000D01*
X812656D02*
X813312Y457000D01*
X815280D02*
X813968D01*
X815280Y458312D01*
Y458640D01*
X814952Y458968D01*
X814296D01*
X813968Y458640D01*
X815936Y457328D02*
X816264Y457000D01*
X816920D01*
X817248Y457328D01*
Y458640D01*
X816920Y458968D01*
X816264D01*
X815936Y458640D01*
Y458312D01*
X816264Y457984D01*
X817248D01*
X799900Y457000D02*
Y458968D01*
X800884D01*
X801212Y458640D01*
Y457984D01*
X800884Y457656D01*
X799900D01*
X800556D02*
X801212Y457000D01*
X803180D02*
X801868D01*
X803180Y458312D01*
Y458640D01*
X802852Y458968D01*
X802196D01*
X801868Y458640D01*
X803836D02*
X804164Y458968D01*
X804820D01*
X805148Y458640D01*
Y458312D01*
X804820Y457984D01*
X805148Y457656D01*
Y457328D01*
X804820Y457000D01*
X804164D01*
X803836Y457328D01*
Y457656D01*
X804164Y457984D01*
X803836Y458312D01*
Y458640D01*
X804164Y457984D02*
X804820D01*
X819000Y424500D02*
Y426468D01*
X819984D01*
X820312Y426140D01*
Y425484D01*
X819984Y425156D01*
X819000D01*
X819656D02*
X820312Y424500D01*
X822280D02*
X820968D01*
X822280Y425812D01*
Y426140D01*
X821952Y426468D01*
X821296D01*
X820968Y426140D01*
X824248Y426468D02*
X823592Y426140D01*
X822936Y425484D01*
Y424828D01*
X823264Y424500D01*
X823920D01*
X824248Y424828D01*
Y425156D01*
X823920Y425484D01*
X822936D01*
X780000Y277100D02*
X778032D01*
Y278084D01*
X778360Y278412D01*
X779016D01*
X779344Y278084D01*
Y277100D01*
Y277756D02*
X780000Y278412D01*
Y280380D02*
Y279068D01*
X778688Y280380D01*
X778360D01*
X778032Y280052D01*
Y279396D01*
X778360Y279068D01*
X778032Y282348D02*
Y281036D01*
X779016D01*
X778688Y281692D01*
Y282020D01*
X779016Y282348D01*
X779672D01*
X780000Y282020D01*
Y281364D01*
X779672Y281036D01*
X780000Y284000D02*
X778032D01*
Y284984D01*
X778360Y285312D01*
X779016D01*
X779344Y284984D01*
Y284000D01*
Y284656D02*
X780000Y285312D01*
Y287280D02*
Y285968D01*
X778688Y287280D01*
X778360D01*
X778032Y286952D01*
Y286296D01*
X778360Y285968D01*
X780000Y288920D02*
X778032D01*
X779016Y287936D01*
Y289248D01*
X825000Y280400D02*
X823032D01*
Y281384D01*
X823360Y281712D01*
X824016D01*
X824344Y281384D01*
Y280400D01*
Y281056D02*
X825000Y281712D01*
Y283680D02*
Y282368D01*
X823688Y283680D01*
X823360D01*
X823032Y283352D01*
Y282696D01*
X823360Y282368D01*
Y284336D02*
X823032Y284664D01*
Y285320D01*
X823360Y285648D01*
X823688D01*
X824016Y285320D01*
Y284992D01*
Y285320D01*
X824344Y285648D01*
X824672D01*
X825000Y285320D01*
Y284664D01*
X824672Y284336D01*
X801500Y300135D02*
Y302103D01*
X802484D01*
X802812Y301775D01*
Y301119D01*
X802484Y300792D01*
X801500D01*
X802156D02*
X802812Y300135D01*
X804779D02*
X803467D01*
X804779Y301447D01*
Y301775D01*
X804451Y302103D01*
X803796D01*
X803467Y301775D01*
X806747Y300135D02*
X805435D01*
X806747Y301447D01*
Y301775D01*
X806419Y302103D01*
X805763D01*
X805435Y301775D01*
X783000Y313249D02*
Y315217D01*
X783984D01*
X784311Y314889D01*
Y314233D01*
X783984Y313905D01*
X783000D01*
X783656D02*
X784311Y313249D01*
X786279D02*
X784967D01*
X786279Y314561D01*
Y314889D01*
X785951Y315217D01*
X785295D01*
X784967Y314889D01*
X786935Y313249D02*
X787591D01*
X787263D01*
Y315217D01*
X786935Y314889D01*
X841000Y289579D02*
Y291547D01*
X841984D01*
X842311Y291219D01*
Y290563D01*
X841984Y290235D01*
X841000D01*
X841656D02*
X842311Y289579D01*
X844279D02*
X842967D01*
X844279Y290891D01*
Y291219D01*
X843951Y291547D01*
X843295D01*
X842967Y291219D01*
X844935D02*
X845263Y291547D01*
X845919D01*
X846247Y291219D01*
Y289907D01*
X845919Y289579D01*
X845263D01*
X844935Y289907D01*
Y291219D01*
X841000Y307979D02*
Y309947D01*
X841984D01*
X842312Y309619D01*
Y308963D01*
X841984Y308635D01*
X841000D01*
X841656D02*
X842312Y307979D01*
X842968D02*
X843624D01*
X843296D01*
Y309947D01*
X842968Y309619D01*
X844608Y308307D02*
X844936Y307979D01*
X845592D01*
X845920Y308307D01*
Y309619D01*
X845592Y309947D01*
X844936D01*
X844608Y309619D01*
Y309291D01*
X844936Y308963D01*
X845920D01*
X834499Y289727D02*
Y291695D01*
X835483D01*
X835811Y291367D01*
Y290711D01*
X835483Y290384D01*
X834499D01*
X835155D02*
X835811Y289727D01*
X836467D02*
X837123D01*
X836795D01*
Y291695D01*
X836467Y291367D01*
X838107D02*
X838435Y291695D01*
X839091D01*
X839419Y291367D01*
Y291039D01*
X839091Y290711D01*
X839419Y290384D01*
Y290055D01*
X839091Y289727D01*
X838435D01*
X838107Y290055D01*
Y290384D01*
X838435Y290711D01*
X838107Y291039D01*
Y291367D01*
X838435Y290711D02*
X839091D01*
X834999Y308106D02*
Y310074D01*
X835983D01*
X836311Y309746D01*
Y309090D01*
X835983Y308762D01*
X834999D01*
X835655D02*
X836311Y308106D01*
X836967D02*
X837623D01*
X837295D01*
Y310074D01*
X836967Y309746D01*
X838607Y310074D02*
X839919D01*
Y309746D01*
X838607Y308434D01*
Y308106D01*
X868000Y290500D02*
Y292468D01*
X868984D01*
X869312Y292140D01*
Y291484D01*
X868984Y291156D01*
X868000D01*
X868656D02*
X869312Y290500D01*
X869968D02*
X870624D01*
X870296D01*
Y292468D01*
X869968Y292140D01*
X872920Y292468D02*
X872264Y292140D01*
X871608Y291484D01*
Y290828D01*
X871936Y290500D01*
X872592D01*
X872920Y290828D01*
Y291156D01*
X872592Y291484D01*
X871608D01*
X867500Y309000D02*
Y310968D01*
X868484D01*
X868812Y310640D01*
Y309984D01*
X868484Y309656D01*
X867500D01*
X868156D02*
X868812Y309000D01*
X869468D02*
X870124D01*
X869796D01*
Y310968D01*
X869468Y310640D01*
X872420Y310968D02*
X871108D01*
Y309984D01*
X871764Y310312D01*
X872092D01*
X872420Y309984D01*
Y309328D01*
X872092Y309000D01*
X871436D01*
X871108Y309328D01*
X864000Y357000D02*
Y358968D01*
X864984D01*
X865312Y358640D01*
Y357984D01*
X864984Y357656D01*
X864000D01*
X864656D02*
X865312Y357000D01*
X865968D02*
X866624D01*
X866296D01*
Y358968D01*
X865968Y358640D01*
X868592Y357000D02*
Y358968D01*
X867608Y357984D01*
X868920D01*
X864000Y335000D02*
Y336967D01*
X864984D01*
X865312Y336640D01*
Y335984D01*
X864984Y335656D01*
X864000D01*
X864656D02*
X865312Y335000D01*
X865968D02*
X866624D01*
X866296D01*
Y336967D01*
X865968Y336640D01*
X867608D02*
X867936Y336967D01*
X868592D01*
X868920Y336640D01*
Y336312D01*
X868592Y335984D01*
X868264D01*
X868592D01*
X868920Y335656D01*
Y335328D01*
X868592Y335000D01*
X867936D01*
X867608Y335328D01*
X864000Y360500D02*
Y362468D01*
X864984D01*
X865312Y362140D01*
Y361484D01*
X864984Y361156D01*
X864000D01*
X864656D02*
X865312Y360500D01*
X865968D02*
X866624D01*
X866296D01*
Y362468D01*
X865968Y362140D01*
X868920Y360500D02*
X867608D01*
X868920Y361812D01*
Y362140D01*
X868592Y362468D01*
X867936D01*
X867608Y362140D01*
X814000Y322300D02*
Y324268D01*
X814984D01*
X815312Y323940D01*
Y323284D01*
X814984Y322956D01*
X814000D01*
X814656D02*
X815312Y322300D01*
X815968D02*
X816624D01*
X816296D01*
Y324268D01*
X815968Y323940D01*
X817608Y322300D02*
X818264D01*
X817936D01*
Y324268D01*
X817608Y323940D01*
X807500Y322449D02*
Y324417D01*
X808484D01*
X808811Y324089D01*
Y323433D01*
X808484Y323105D01*
X807500D01*
X808156D02*
X808811Y322449D01*
X809467D02*
X810123D01*
X809795D01*
Y324417D01*
X809467Y324089D01*
X811107D02*
X811435Y324417D01*
X812091D01*
X812419Y324089D01*
Y322777D01*
X812091Y322449D01*
X811435D01*
X811107Y322777D01*
Y324089D01*
X735600Y358700D02*
Y360668D01*
X736584D01*
X736912Y360340D01*
Y359684D01*
X736584Y359356D01*
X735600D01*
X736256D02*
X736912Y358700D01*
X738880Y360668D02*
X738224Y360340D01*
X737568Y359684D01*
Y359028D01*
X737896Y358700D01*
X738552D01*
X738880Y359028D01*
Y359356D01*
X738552Y359684D01*
X737568D01*
X725900Y383500D02*
X723932D01*
Y384484D01*
X724260Y384812D01*
X724916D01*
X725244Y384484D01*
Y383500D01*
Y384156D02*
X725900Y384812D01*
Y386780D02*
Y385468D01*
X724588Y386780D01*
X724260D01*
X723932Y386452D01*
Y385796D01*
X724260Y385468D01*
X781300Y364800D02*
Y366768D01*
X782284D01*
X782612Y366440D01*
Y365784D01*
X782284Y365456D01*
X781300D01*
X781956D02*
X782612Y364800D01*
X783268D02*
X783924D01*
X783596D01*
Y366768D01*
X783268Y366440D01*
X801312Y283667D02*
Y284979D01*
X800984Y285306D01*
X800328D01*
X800000Y284979D01*
Y283667D01*
X800328Y283339D01*
X800984D01*
X800656Y283995D02*
X801312Y283339D01*
X800984D02*
X801312Y283667D01*
X803280Y285306D02*
X801968D01*
Y284323D01*
X802624Y284650D01*
X802952D01*
X803280Y284323D01*
Y283667D01*
X802952Y283339D01*
X802296D01*
X801968Y283667D01*
X795812Y306911D02*
Y308223D01*
X795484Y308551D01*
X794828D01*
X794500Y308223D01*
Y306911D01*
X794828Y306583D01*
X795484D01*
X795156Y307239D02*
X795812Y306583D01*
X795484D02*
X795812Y306911D01*
X797451Y306583D02*
Y308551D01*
X796467Y307567D01*
X797779D01*
X854812Y283328D02*
Y284640D01*
X854484Y284968D01*
X853828D01*
X853500Y284640D01*
Y283328D01*
X853828Y283000D01*
X854484D01*
X854156Y283656D02*
X854812Y283000D01*
X854484D02*
X854812Y283328D01*
X855468Y284640D02*
X855796Y284968D01*
X856452D01*
X856780Y284640D01*
Y284312D01*
X856452Y283984D01*
X856124D01*
X856452D01*
X856780Y283656D01*
Y283328D01*
X856452Y283000D01*
X855796D01*
X855468Y283328D01*
X854312Y302328D02*
Y303640D01*
X853984Y303968D01*
X853328D01*
X853000Y303640D01*
Y302328D01*
X853328Y302000D01*
X853984D01*
X853656Y302656D02*
X854312Y302000D01*
X853984D02*
X854312Y302328D01*
X856280Y302000D02*
X854968D01*
X856280Y303312D01*
Y303640D01*
X855952Y303968D01*
X855296D01*
X854968Y303640D01*
X827812Y331828D02*
Y333140D01*
X827484Y333468D01*
X826828D01*
X826500Y333140D01*
Y331828D01*
X826828Y331500D01*
X827484D01*
X827156Y332156D02*
X827812Y331500D01*
X827484D02*
X827812Y331828D01*
X828468Y331500D02*
X829124D01*
X828796D01*
Y333468D01*
X828468Y333140D01*
X670543Y320900D02*
Y322868D01*
X671527D01*
X671855Y322540D01*
Y321884D01*
X671527Y321556D01*
X670543D01*
X673823Y320900D02*
X672511D01*
X673823Y322212D01*
Y322540D01*
X673495Y322868D01*
X672839D01*
X672511Y322540D01*
X980900Y357500D02*
Y359468D01*
X981884D01*
X982212Y359140D01*
Y358484D01*
X981884Y358156D01*
X980900D01*
X982868Y357500D02*
X983524D01*
X983196D01*
Y359468D01*
X982868Y359140D01*
X815500Y292468D02*
Y290500D01*
X816812D01*
X818780Y292468D02*
X817468D01*
Y290500D01*
X818780D01*
X817468Y291484D02*
X818124D01*
X819436Y292468D02*
Y290500D01*
X820420D01*
X820748Y290828D01*
Y292140D01*
X820420Y292468D01*
X819436D01*
X822388Y290500D02*
Y292468D01*
X821404Y291484D01*
X822715D01*
X860000Y294468D02*
Y292500D01*
X861312D01*
X863280Y294468D02*
X861968D01*
Y292500D01*
X863280D01*
X861968Y293484D02*
X862624D01*
X863936Y294468D02*
Y292500D01*
X864920D01*
X865248Y292828D01*
Y294140D01*
X864920Y294468D01*
X863936D01*
X865904Y294140D02*
X866232Y294468D01*
X866887D01*
X867216Y294140D01*
Y293812D01*
X866887Y293484D01*
X866560D01*
X866887D01*
X867216Y293156D01*
Y292828D01*
X866887Y292500D01*
X866232D01*
X865904Y292828D01*
X859000Y312968D02*
Y311000D01*
X860312D01*
X862280Y312968D02*
X860968D01*
Y311000D01*
X862280D01*
X860968Y311984D02*
X861624D01*
X862936Y312968D02*
Y311000D01*
X863920D01*
X864248Y311328D01*
Y312640D01*
X863920Y312968D01*
X862936D01*
X866216Y311000D02*
X864904D01*
X866216Y312312D01*
Y312640D01*
X865888Y312968D01*
X865232D01*
X864904Y312640D01*
X735400Y342868D02*
Y340900D01*
X736712D01*
X738680Y342868D02*
X737368D01*
Y340900D01*
X738680D01*
X737368Y341884D02*
X738024D01*
X739336Y342868D02*
Y340900D01*
X740320D01*
X740648Y341228D01*
Y342540D01*
X740320Y342868D01*
X739336D01*
X741304Y340900D02*
X741959D01*
X741632D01*
Y342868D01*
X741304Y342540D01*
X674300Y435168D02*
Y433200D01*
X675612D01*
X677580D02*
X676268D01*
X677580Y434512D01*
Y434840D01*
X677252Y435168D01*
X676596D01*
X676268Y434840D01*
X703200Y293168D02*
Y291200D01*
X704512D01*
X705168D02*
X705824D01*
X705496D01*
Y293168D01*
X705168Y292840D01*
X942312Y442468D02*
X941656D01*
X941984D01*
Y440828D01*
X941656Y440500D01*
X941328D01*
X941000Y440828D01*
X944280Y440500D02*
X942968D01*
X944280Y441812D01*
Y442140D01*
X943952Y442468D01*
X943296D01*
X942968Y442140D01*
X709800Y434768D02*
X710456D01*
X710128D01*
Y432800D01*
X709800D01*
X710456D01*
X712752Y434440D02*
X712424Y434768D01*
X711768D01*
X711440Y434440D01*
Y433128D01*
X711768Y432800D01*
X712424D01*
X712752Y433128D01*
X713408Y434768D02*
X714720D01*
Y434440D01*
X713408Y433128D01*
Y432800D01*
X714000Y465468D02*
X714656D01*
X714328D01*
Y463500D01*
X714000D01*
X714656D01*
X716952Y465140D02*
X716624Y465468D01*
X715968D01*
X715640Y465140D01*
Y463828D01*
X715968Y463500D01*
X716624D01*
X716952Y463828D01*
X718920Y465468D02*
X718264Y465140D01*
X717608Y464484D01*
Y463828D01*
X717936Y463500D01*
X718592D01*
X718920Y463828D01*
Y464156D01*
X718592Y464484D01*
X717608D01*
X818000Y403468D02*
X818656D01*
X818328D01*
Y401500D01*
X818000D01*
X818656D01*
X820952Y403140D02*
X820624Y403468D01*
X819968D01*
X819640Y403140D01*
Y401828D01*
X819968Y401500D01*
X820624D01*
X820952Y401828D01*
X822592Y401500D02*
Y403468D01*
X821608Y402484D01*
X822920D01*
X711500Y381368D02*
X712156D01*
X711828D01*
Y379400D01*
X711500D01*
X712156D01*
X714452Y381040D02*
X714124Y381368D01*
X713468D01*
X713140Y381040D01*
Y379728D01*
X713468Y379400D01*
X714124D01*
X714452Y379728D01*
X716420Y379400D02*
X715108D01*
X716420Y380712D01*
Y381040D01*
X716092Y381368D01*
X715436D01*
X715108Y381040D01*
X745300Y321068D02*
X745956D01*
X745628D01*
Y319100D01*
X745300D01*
X745956D01*
X748252Y320740D02*
X747924Y321068D01*
X747268D01*
X746940Y320740D01*
Y319428D01*
X747268Y319100D01*
X747924D01*
X748252Y319428D01*
X748908Y319100D02*
X749564D01*
X749236D01*
Y321068D01*
X748908Y320740D01*
X690112Y300068D02*
X688800D01*
Y299084D01*
X689456D01*
X688800D01*
Y298100D01*
X690768Y300068D02*
Y298100D01*
X691752D01*
X692080Y298428D01*
Y298756D01*
X691752Y299084D01*
X690768D01*
X691752D01*
X692080Y299412D01*
Y299740D01*
X691752Y300068D01*
X690768D01*
X692736Y299740D02*
X693064Y300068D01*
X693720D01*
X694048Y299740D01*
Y299412D01*
X693720Y299084D01*
X693392D01*
X693720D01*
X694048Y298756D01*
Y298428D01*
X693720Y298100D01*
X693064D01*
X692736Y298428D01*
X698612Y307168D02*
X697300D01*
Y306184D01*
X697956D01*
X697300D01*
Y305200D01*
X699268Y307168D02*
Y305200D01*
X700252D01*
X700580Y305528D01*
Y305856D01*
X700252Y306184D01*
X699268D01*
X700252D01*
X700580Y306512D01*
Y306840D01*
X700252Y307168D01*
X699268D01*
X702548Y305200D02*
X701236D01*
X702548Y306512D01*
Y306840D01*
X702220Y307168D01*
X701564D01*
X701236Y306840D01*
X955612Y344668D02*
X954300D01*
Y343684D01*
X954956D01*
X954300D01*
Y342700D01*
X956268Y344668D02*
Y342700D01*
X957252D01*
X957580Y343028D01*
Y343356D01*
X957252Y343684D01*
X956268D01*
X957252D01*
X957580Y344012D01*
Y344340D01*
X957252Y344668D01*
X956268D01*
X958236Y342700D02*
X958892D01*
X958564D01*
Y344668D01*
X958236Y344340D01*
X708300Y395768D02*
Y393800D01*
X709284D01*
X709612Y394128D01*
Y395440D01*
X709284Y395768D01*
X708300D01*
X710268Y393800D02*
X710924D01*
X710596D01*
Y395768D01*
X710268Y395440D01*
X738360Y369412D02*
X738032Y369084D01*
Y368428D01*
X738360Y368100D01*
X739672D01*
X740000Y368428D01*
Y369084D01*
X739672Y369412D01*
X738360Y370068D02*
X738032Y370396D01*
Y371052D01*
X738360Y371380D01*
X738688D01*
X739016Y371052D01*
Y370724D01*
Y371052D01*
X739344Y371380D01*
X739672D01*
X740000Y371052D01*
Y370396D01*
X739672Y370068D01*
X738032Y373348D02*
X738360Y372692D01*
X739016Y372036D01*
X739672D01*
X740000Y372364D01*
Y373020D01*
X739672Y373348D01*
X739344D01*
X739016Y373020D01*
Y372036D01*
X685912Y445740D02*
X685584Y446068D01*
X684928D01*
X684600Y445740D01*
Y444428D01*
X684928Y444100D01*
X685584D01*
X685912Y444428D01*
X686568Y445740D02*
X686896Y446068D01*
X687552D01*
X687880Y445740D01*
Y445412D01*
X687552Y445084D01*
X687224D01*
X687552D01*
X687880Y444756D01*
Y444428D01*
X687552Y444100D01*
X686896D01*
X686568Y444428D01*
X689848Y446068D02*
X688536D01*
Y445084D01*
X689192Y445412D01*
X689520D01*
X689848Y445084D01*
Y444428D01*
X689520Y444100D01*
X688864D01*
X688536Y444428D01*
X689712Y464833D02*
X689384Y465161D01*
X688728D01*
X688400Y464833D01*
Y463521D01*
X688728Y463193D01*
X689384D01*
X689712Y463521D01*
X690368Y464833D02*
X690696Y465161D01*
X691352D01*
X691680Y464833D01*
Y464505D01*
X691352Y464177D01*
X691024D01*
X691352D01*
X691680Y463849D01*
Y463521D01*
X691352Y463193D01*
X690696D01*
X690368Y463521D01*
X693648Y463193D02*
X692336D01*
X693648Y464505D01*
Y464833D01*
X693320Y465161D01*
X692664D01*
X692336Y464833D01*
X699512Y468740D02*
X699184Y469068D01*
X698528D01*
X698200Y468740D01*
Y467428D01*
X698528Y467100D01*
X699184D01*
X699512Y467428D01*
X700168Y468740D02*
X700496Y469068D01*
X701152D01*
X701480Y468740D01*
Y468412D01*
X701152Y468084D01*
X700824D01*
X701152D01*
X701480Y467756D01*
Y467428D01*
X701152Y467100D01*
X700496D01*
X700168Y467428D01*
X702136Y467100D02*
X702792D01*
X702464D01*
Y469068D01*
X702136Y468740D01*
X783612Y439940D02*
X783284Y440268D01*
X782628D01*
X782300Y439940D01*
Y438628D01*
X782628Y438300D01*
X783284D01*
X783612Y438628D01*
X784268Y439940D02*
X784596Y440268D01*
X785252D01*
X785580Y439940D01*
Y439612D01*
X785252Y439284D01*
X784924D01*
X785252D01*
X785580Y438956D01*
Y438628D01*
X785252Y438300D01*
X784596D01*
X784268Y438628D01*
X786236Y439940D02*
X786564Y440268D01*
X787220D01*
X787548Y439940D01*
Y438628D01*
X787220Y438300D01*
X786564D01*
X786236Y438628D01*
Y439940D01*
X812712Y468640D02*
X812384Y468968D01*
X811728D01*
X811400Y468640D01*
Y467328D01*
X811728Y467000D01*
X812384D01*
X812712Y467328D01*
X814680Y467000D02*
X813368D01*
X814680Y468312D01*
Y468640D01*
X814352Y468968D01*
X813696D01*
X813368Y468640D01*
X815336Y467328D02*
X815664Y467000D01*
X816320D01*
X816648Y467328D01*
Y468640D01*
X816320Y468968D01*
X815664D01*
X815336Y468640D01*
Y468312D01*
X815664Y467984D01*
X816648D01*
X715312Y440340D02*
X714984Y440668D01*
X714328D01*
X714000Y440340D01*
Y439028D01*
X714328Y438700D01*
X714984D01*
X715312Y439028D01*
X717280Y438700D02*
X715968D01*
X717280Y440012D01*
Y440340D01*
X716952Y440668D01*
X716296D01*
X715968Y440340D01*
X717936D02*
X718264Y440668D01*
X718920D01*
X719248Y440340D01*
Y440012D01*
X718920Y439684D01*
X719248Y439356D01*
Y439028D01*
X718920Y438700D01*
X718264D01*
X717936Y439028D01*
Y439356D01*
X718264Y439684D01*
X717936Y440012D01*
Y440340D01*
X718264Y439684D02*
X718920D01*
X801012Y435040D02*
X800684Y435368D01*
X800028D01*
X799700Y435040D01*
Y433728D01*
X800028Y433400D01*
X800684D01*
X801012Y433728D01*
X802980Y433400D02*
X801668D01*
X802980Y434712D01*
Y435040D01*
X802652Y435368D01*
X801996D01*
X801668Y435040D01*
X804948Y435368D02*
X803636D01*
Y434384D01*
X804292Y434712D01*
X804620D01*
X804948Y434384D01*
Y433728D01*
X804620Y433400D01*
X803964D01*
X803636Y433728D01*
X811012Y441140D02*
X810684Y441468D01*
X810028D01*
X809700Y441140D01*
Y439828D01*
X810028Y439500D01*
X810684D01*
X811012Y439828D01*
X812980Y439500D02*
X811668D01*
X812980Y440812D01*
Y441140D01*
X812652Y441468D01*
X811996D01*
X811668Y441140D01*
X813636D02*
X813964Y441468D01*
X814620D01*
X814948Y441140D01*
Y440812D01*
X814620Y440484D01*
X814292D01*
X814620D01*
X814948Y440156D01*
Y439828D01*
X814620Y439500D01*
X813964D01*
X813636Y439828D01*
X677360Y385312D02*
X677032Y384984D01*
Y384328D01*
X677360Y384000D01*
X678672D01*
X679000Y384328D01*
Y384984D01*
X678672Y385312D01*
X679000Y387280D02*
Y385968D01*
X677688Y387280D01*
X677360D01*
X677032Y386952D01*
Y386296D01*
X677360Y385968D01*
X679000Y389248D02*
Y387936D01*
X677688Y389248D01*
X677360D01*
X677032Y388920D01*
Y388264D01*
X677360Y387936D01*
X687560Y385912D02*
X687232Y385584D01*
Y384928D01*
X687560Y384600D01*
X688872D01*
X689200Y384928D01*
Y385584D01*
X688872Y385912D01*
X689200Y387880D02*
Y386568D01*
X687888Y387880D01*
X687560D01*
X687232Y387552D01*
Y386896D01*
X687560Y386568D01*
X689200Y388536D02*
Y389192D01*
Y388864D01*
X687232D01*
X687560Y388536D01*
X822660Y379812D02*
X822332Y379484D01*
Y378828D01*
X822660Y378500D01*
X823972D01*
X824300Y378828D01*
Y379484D01*
X823972Y379812D01*
X824300Y381780D02*
Y380468D01*
X822988Y381780D01*
X822660D01*
X822332Y381452D01*
Y380796D01*
X822660Y380468D01*
Y382436D02*
X822332Y382764D01*
Y383420D01*
X822660Y383748D01*
X823972D01*
X824300Y383420D01*
Y382764D01*
X823972Y382436D01*
X822660D01*
X786312Y292640D02*
X785984Y292968D01*
X785328D01*
X785000Y292640D01*
Y291328D01*
X785328Y291000D01*
X785984D01*
X786312Y291328D01*
X786968Y291000D02*
X787624D01*
X787296D01*
Y292968D01*
X786968Y292640D01*
X788608Y291328D02*
X788936Y291000D01*
X789592D01*
X789920Y291328D01*
Y292640D01*
X789592Y292968D01*
X788936D01*
X788608Y292640D01*
Y292312D01*
X788936Y291984D01*
X789920D01*
X803812Y317861D02*
X803484Y318189D01*
X802828D01*
X802500Y317861D01*
Y316549D01*
X802828Y316221D01*
X803484D01*
X803812Y316549D01*
X804468Y316221D02*
X805124D01*
X804796D01*
Y318189D01*
X804468Y317861D01*
X806108D02*
X806436Y318189D01*
X807092D01*
X807420Y317861D01*
Y317533D01*
X807092Y317205D01*
X807420Y316877D01*
Y316549D01*
X807092Y316221D01*
X806436D01*
X806108Y316549D01*
Y316877D01*
X806436Y317205D01*
X806108Y317533D01*
Y317861D01*
X806436Y317205D02*
X807092D01*
X820812Y349140D02*
X820484Y349468D01*
X819828D01*
X819500Y349140D01*
Y347828D01*
X819828Y347500D01*
X820484D01*
X820812Y347828D01*
X821468Y347500D02*
X822124D01*
X821796D01*
Y349468D01*
X821468Y349140D01*
X823108Y349468D02*
X824420D01*
Y349140D01*
X823108Y347828D01*
Y347500D01*
X956961Y394640D02*
X956633Y394968D01*
X955977D01*
X955649Y394640D01*
Y393328D01*
X955977Y393000D01*
X956633D01*
X956961Y393328D01*
X957617Y393000D02*
X958273D01*
X957945D01*
Y394968D01*
X957617Y394640D01*
X960569Y394968D02*
X959913Y394640D01*
X959257Y393984D01*
Y393328D01*
X959585Y393000D01*
X960241D01*
X960569Y393328D01*
Y393656D01*
X960241Y393984D01*
X959257D01*
X934812Y394640D02*
X934484Y394968D01*
X933828D01*
X933500Y394640D01*
Y393328D01*
X933828Y393000D01*
X934484D01*
X934812Y393328D01*
X935468Y393000D02*
X936124D01*
X935796D01*
Y394968D01*
X935468Y394640D01*
X938420Y394968D02*
X937108D01*
Y393984D01*
X937764Y394312D01*
X938092D01*
X938420Y393984D01*
Y393328D01*
X938092Y393000D01*
X937436D01*
X937108Y393328D01*
X922360Y279812D02*
X922032Y279484D01*
Y278828D01*
X922360Y278500D01*
X923672D01*
X924000Y278828D01*
Y279484D01*
X923672Y279812D01*
X924000Y280468D02*
Y281124D01*
Y280796D01*
X922032D01*
X922360Y280468D01*
X924000Y283092D02*
X922032D01*
X923016Y282108D01*
Y283420D01*
X895860Y279812D02*
X895532Y279484D01*
Y278828D01*
X895860Y278500D01*
X897172D01*
X897500Y278828D01*
Y279484D01*
X897172Y279812D01*
X897500Y280468D02*
Y281124D01*
Y280796D01*
X895532D01*
X895860Y280468D01*
Y282108D02*
X895532Y282436D01*
Y283092D01*
X895860Y283420D01*
X896188D01*
X896516Y283092D01*
Y282764D01*
Y283092D01*
X896844Y283420D01*
X897172D01*
X897500Y283092D01*
Y282436D01*
X897172Y282108D01*
X892360Y279812D02*
X892032Y279484D01*
Y278828D01*
X892360Y278500D01*
X893672D01*
X894000Y278828D01*
Y279484D01*
X893672Y279812D01*
X894000Y280468D02*
Y281124D01*
Y280796D01*
X892032D01*
X892360Y280468D01*
X894000Y283420D02*
Y282108D01*
X892688Y283420D01*
X892360D01*
X892032Y283092D01*
Y282436D01*
X892360Y282108D01*
X925860Y279812D02*
X925532Y279484D01*
Y278828D01*
X925860Y278500D01*
X927172D01*
X927500Y278828D01*
Y279484D01*
X927172Y279812D01*
X927500Y280468D02*
Y281124D01*
Y280796D01*
X925532D01*
X925860Y280468D01*
X927500Y282108D02*
Y282764D01*
Y282436D01*
X925532D01*
X925860Y282108D01*
X993712Y446768D02*
X993056D01*
X993384D01*
Y445128D01*
X993056Y444800D01*
X992728D01*
X992400Y445128D01*
X994368Y444800D02*
X995024D01*
X994696D01*
Y446768D01*
X994368Y446440D01*
X765512Y443640D02*
X765184Y443968D01*
X764528D01*
X764200Y443640D01*
Y442328D01*
X764528Y442000D01*
X765184D01*
X765512Y442328D01*
X767152Y442000D02*
Y443968D01*
X766168Y442984D01*
X767480D01*
X795212Y365940D02*
X794884Y366268D01*
X794228D01*
X793900Y365940D01*
Y364628D01*
X794228Y364300D01*
X794884D01*
X795212Y364628D01*
X795868Y365940D02*
X796196Y366268D01*
X796852D01*
X797180Y365940D01*
Y365612D01*
X796852Y365284D01*
X796524D01*
X796852D01*
X797180Y364956D01*
Y364628D01*
X796852Y364300D01*
X796196D01*
X795868Y364628D01*
X767212Y342940D02*
X766884Y343268D01*
X766228D01*
X765900Y342940D01*
Y341628D01*
X766228Y341300D01*
X766884D01*
X767212Y341628D01*
X769180Y341300D02*
X767868D01*
X769180Y342612D01*
Y342940D01*
X768852Y343268D01*
X768196D01*
X767868Y342940D01*
X752912D02*
X752584Y343268D01*
X751928D01*
X751600Y342940D01*
Y341628D01*
X751928Y341300D01*
X752584D01*
X752912Y341628D01*
X753568Y341300D02*
X754224D01*
X753896D01*
Y343268D01*
X753568Y342940D01*
D22*
X707191Y334302D02*
Y331350D01*
X708666D01*
X709158Y331842D01*
Y333810D01*
X708666Y334302D01*
X707191D01*
X712110D02*
X710142D01*
Y331350D01*
X712110D01*
X710142Y332826D02*
X711126D01*
X715062Y333810D02*
X714570Y334302D01*
X713586D01*
X713094Y333810D01*
Y333318D01*
X713586Y332826D01*
X714570D01*
X715062Y332334D01*
Y331842D01*
X714570Y331350D01*
X713586D01*
X713094Y331842D01*
X716046Y334302D02*
X717030D01*
X716538D01*
Y331350D01*
X716046D01*
X717030D01*
X720474Y333810D02*
X719982Y334302D01*
X718998D01*
X718506Y333810D01*
Y331842D01*
X718998Y331350D01*
X719982D01*
X720474Y331842D01*
Y332826D01*
X719490D01*
X721458Y331350D02*
Y334302D01*
X723425Y331350D01*
Y334302D01*
X727361Y331350D02*
Y334302D01*
X728837D01*
X729329Y333810D01*
Y332826D01*
X728837Y332334D01*
X727361D01*
X730313Y331350D02*
Y334302D01*
X731789D01*
X732281Y333810D01*
Y332826D01*
X731789Y332334D01*
X730313D01*
X731297D02*
X732281Y331350D01*
X734741Y334302D02*
X733757D01*
X733265Y333810D01*
Y331842D01*
X733757Y331350D01*
X734741D01*
X735233Y331842D01*
Y333810D01*
X734741Y334302D01*
X738184D02*
X737201D01*
X737693D01*
Y331842D01*
X737201Y331350D01*
X736709D01*
X736217Y331842D01*
X741136Y334302D02*
X739169D01*
Y331350D01*
X741136D01*
X739169Y332826D02*
X740152D01*
X744088Y333810D02*
X743596Y334302D01*
X742612D01*
X742120Y333810D01*
Y331842D01*
X742612Y331350D01*
X743596D01*
X744088Y331842D01*
X745072Y334302D02*
X747040D01*
X746056D01*
Y331350D01*
X752944D02*
X750976D01*
X752944Y333318D01*
Y333810D01*
X752452Y334302D01*
X751468D01*
X750976Y333810D01*
X753928D02*
X754420Y334302D01*
X755403D01*
X755895Y333810D01*
Y331842D01*
X755403Y331350D01*
X754420D01*
X753928Y331842D01*
Y333810D01*
X758847Y331350D02*
X756879D01*
X758847Y333318D01*
Y333810D01*
X758355Y334302D01*
X757371D01*
X756879Y333810D01*
X759831Y331350D02*
X760815D01*
X760323D01*
Y334302D01*
X759831Y333810D01*
X764259Y331350D02*
X762291D01*
X764259Y333318D01*
Y333810D01*
X763767Y334302D01*
X762783D01*
X762291Y333810D01*
X708666Y327375D02*
Y327866D01*
X708175D01*
Y327375D01*
X708666D01*
X709158Y327866D01*
Y328850D01*
X708666Y329342D01*
X707683D01*
X707191Y328850D01*
Y326883D01*
X707683Y326391D01*
X709158D01*
X710142Y329342D02*
Y327375D01*
X711126Y326391D01*
X712110Y327375D01*
Y329342D01*
X714570Y326391D02*
X713586D01*
X713094Y326883D01*
Y327866D01*
X713586Y328358D01*
X714570D01*
X715062Y327866D01*
Y327375D01*
X713094D01*
X716046Y326391D02*
Y328358D01*
X717522D01*
X718014Y327866D01*
Y326391D01*
M02*
