G04*
G04 #@! TF.GenerationSoftware,Altium Limited,Altium Designer,18.1.6 (161)*
G04*
G04 Layer_Color=16711935*
%FSLAX25Y25*%
%MOIN*%
G70*
G01*
G75*
%ADD15C,0.00787*%
%ADD19C,0.00500*%
%ADD21C,0.00394*%
G36*
X866014Y405000D02*
Y407000D01*
X862014D01*
Y405000D01*
X866014D01*
D02*
G37*
G36*
Y410000D02*
Y412000D01*
X862014D01*
Y410000D01*
X866014D01*
D02*
G37*
G36*
Y415000D02*
Y417000D01*
X862014D01*
Y415000D01*
X866014D01*
D02*
G37*
G36*
Y420000D02*
Y422000D01*
X862014D01*
Y420000D01*
X866014D01*
D02*
G37*
G36*
X888014Y405000D02*
Y407000D01*
X883964D01*
Y405000D01*
X888014D01*
D02*
G37*
G36*
Y410000D02*
Y412000D01*
X883964D01*
Y410000D01*
X888014D01*
D02*
G37*
G36*
Y415000D02*
Y417000D01*
X883964D01*
Y415000D01*
X888014D01*
D02*
G37*
G36*
Y420000D02*
Y422000D01*
X883964D01*
Y420000D01*
X888014D01*
D02*
G37*
G36*
X866014Y425000D02*
Y427000D01*
X862014D01*
Y425000D01*
X866014D01*
D02*
G37*
G36*
Y430000D02*
Y432000D01*
X862014D01*
Y430000D01*
X866014D01*
D02*
G37*
G36*
Y435000D02*
Y437000D01*
X862014D01*
Y435000D01*
X866014D01*
D02*
G37*
G36*
Y440000D02*
Y442000D01*
X861764D01*
Y440000D01*
X866014D01*
D02*
G37*
G36*
X888014Y425000D02*
Y427000D01*
X883964D01*
Y425000D01*
X888014D01*
D02*
G37*
G36*
Y430000D02*
Y432000D01*
X883964D01*
Y430000D01*
X888014D01*
D02*
G37*
G36*
Y435000D02*
Y437000D01*
X883964D01*
Y435000D01*
X888014D01*
D02*
G37*
G36*
Y440000D02*
Y442000D01*
X883964D01*
Y440000D01*
X888014D01*
D02*
G37*
D15*
X824205Y408110D02*
G03*
X824205Y408110I-394J0D01*
G01*
X772866Y278610D02*
G03*
X772866Y278610I-394J0D01*
G01*
D19*
X712537Y431264D02*
X722379D01*
Y413547D02*
Y431264D01*
X712537Y413547D02*
X722379D01*
X712537D02*
Y431264D01*
X819874Y407126D02*
Y422874D01*
X804126Y407126D02*
Y422874D01*
Y407126D02*
X819874D01*
X804126Y422874D02*
X819874D01*
X726705Y277331D02*
Y317685D01*
Y277331D02*
X765484D01*
Y317685D01*
X726705D02*
X765484D01*
D21*
X752220Y382752D02*
G03*
X752220Y382752I-1969J0D01*
G01*
X712579Y373102D02*
G03*
X712579Y373102I-1969J0D01*
G01*
X719450Y464925D02*
Y468075D01*
X713150Y464925D02*
Y468075D01*
X689925Y458450D02*
X693075D01*
X689925Y452150D02*
X693075D01*
X711925Y417050D02*
X715075D01*
X711925Y423350D02*
X715075D01*
X762550Y425425D02*
Y428575D01*
X768850Y425425D02*
Y428575D01*
X689925Y458850D02*
X693075D01*
X689925Y452550D02*
X693075D01*
X713150Y442925D02*
Y446075D01*
X719450Y442925D02*
Y446075D01*
X785685Y378815D02*
Y418185D01*
X746315D02*
X785685D01*
X746315Y378815D02*
Y418185D01*
Y378815D02*
X785685D01*
X788350Y441925D02*
Y445075D01*
X782050Y441925D02*
Y445075D01*
X817350Y462425D02*
Y465575D01*
X811050Y462425D02*
Y465575D01*
X809150Y428425D02*
Y431575D01*
X802850Y428425D02*
Y431575D01*
X809550Y434425D02*
Y437575D01*
X815850Y434425D02*
Y437575D01*
X817425Y377150D02*
X820575D01*
X817425Y383450D02*
X820575D01*
X792350Y359425D02*
Y362575D01*
X798650Y359425D02*
Y362575D01*
X732925Y367450D02*
X736075D01*
X732925Y373750D02*
X736075D01*
X764350Y344925D02*
Y348075D01*
X770650Y344925D02*
Y348075D01*
X756370Y344925D02*
Y348075D01*
X750071Y344925D02*
Y348075D01*
X706870Y357157D02*
Y376842D01*
X722618Y357157D02*
Y376842D01*
X706870D02*
X722618D01*
X706870Y357157D02*
X722618D01*
X690925Y383350D02*
X694075D01*
X690925Y389650D02*
X694075D01*
X680925Y383350D02*
X684075D01*
X680925Y389650D02*
X684075D01*
X808850Y398925D02*
Y402075D01*
X802550Y398925D02*
Y402075D01*
X797925Y388350D02*
X801075D01*
X797925Y382050D02*
X801075D01*
X727926Y382150D02*
X731075D01*
X727926Y388450D02*
X731075D01*
X796425Y415350D02*
X799575D01*
X796425Y409050D02*
X799575D01*
X773650Y383425D02*
Y386575D01*
X767350Y383425D02*
Y386575D01*
X825170Y342425D02*
Y345575D01*
X818871Y342425D02*
Y345575D01*
X916425Y277650D02*
X919575D01*
X916425Y283950D02*
X919575D01*
X910871Y277650D02*
X914021D01*
X910871Y283950D02*
X914021D01*
X905318Y277650D02*
X908467D01*
X905318Y283950D02*
X908467D01*
X899764Y277650D02*
X902913D01*
X899764Y283950D02*
X902913D01*
X803425Y312471D02*
X806575D01*
X803425Y306172D02*
X806575D01*
X783650Y294925D02*
Y298075D01*
X789950Y294925D02*
Y298075D01*
X892425Y425650D02*
X895575D01*
X892425Y419350D02*
X895575D01*
M02*
