G04*
G04 #@! TF.GenerationSoftware,Altium Limited,Altium Designer,18.1.6 (161)*
G04*
G04 Layer_Color=32896*
%FSLAX25Y25*%
%MOIN*%
G70*
G01*
G75*
%ADD10C,0.01000*%
%ADD11C,0.00984*%
%ADD13C,0.00700*%
%ADD15C,0.00787*%
%ADD19C,0.00500*%
%ADD20C,0.00400*%
%ADD21C,0.00394*%
%ADD96C,0.02000*%
%ADD124C,0.01500*%
%ADD132C,0.03500*%
%ADD133C,0.00800*%
%ADD134C,0.00600*%
G36*
X863931Y465516D02*
X866687Y463547D01*
Y467484D01*
X863931Y465516D01*
D02*
G37*
G36*
X869246Y460102D02*
X872199D01*
X872199Y463055D01*
X869246D01*
Y460102D01*
D02*
G37*
D10*
X703500Y445000D02*
G03*
X704500Y446000I0J1000D01*
G01*
X696500D02*
G03*
X697500Y445000I1000J0D01*
G01*
Y466000D02*
G03*
X696500Y465000I0J-1000D01*
G01*
X704500D02*
G03*
X703500Y466000I-1000J0D01*
G01*
X774500Y445500D02*
G03*
X777000Y443000I2500J0D01*
G01*
Y463000D02*
G03*
X774500Y460500I0J-2500D01*
G01*
X814000Y443000D02*
G03*
X816500Y445500I0J2500D01*
G01*
Y460500D02*
G03*
X814000Y463000I-2500J0D01*
G01*
X885514Y446000D02*
G03*
X885514Y446000I-500J0D01*
G01*
X697500Y445000D02*
X703500D01*
X704500Y446000D02*
Y465000D01*
X696500Y446000D02*
Y465000D01*
X697500Y466000D02*
X703500D01*
X803000Y443000D02*
Y463000D01*
X777000Y443000D02*
X814000D01*
X774500Y445500D02*
Y460500D01*
X777000Y463000D02*
X814000D01*
X816500Y445500D02*
Y460500D01*
X857452Y338531D02*
Y391484D01*
X804500Y338531D02*
Y391484D01*
Y338531D02*
X857452D01*
X804500Y391484D02*
X857452D01*
X804500Y338531D02*
Y349515D01*
D11*
X722898Y463563D02*
G03*
X722898Y463563I-492J0D01*
G01*
D13*
X689365Y389972D02*
G03*
X707834Y389972I9234J-25372D01*
G01*
X685200Y382200D02*
X692600D01*
X689000Y378500D02*
Y385600D01*
X679300Y390000D02*
Y391500D01*
X716300D01*
Y390000D02*
Y391500D01*
X679300Y390000D02*
X716300D01*
D15*
X804500Y349515D02*
X814500D01*
Y391484D01*
X804500Y349515D02*
Y391484D01*
X814500D01*
X804500Y380500D02*
X814500D01*
D19*
X863931Y465516D02*
X866687Y463547D01*
X863931Y465516D02*
X866687Y467484D01*
Y463547D02*
Y467484D01*
X869246Y463055D02*
X872199D01*
X872199Y460102D02*
X872199Y463055D01*
X869246Y460102D02*
X872199D01*
X869246D02*
Y463055D01*
D20*
X722700Y464200D02*
Y468800D01*
X710300Y464200D02*
X722700D01*
X710300D02*
Y468800D01*
X722700D01*
X716100Y468100D02*
X716900D01*
X716100Y464900D02*
X716900D01*
X689200Y461700D02*
X693800D01*
Y449300D02*
Y461700D01*
X689200Y449300D02*
X693800D01*
X689200D02*
Y461700D01*
X689900Y455100D02*
Y455900D01*
X693100Y455100D02*
Y455900D01*
X711200Y413800D02*
X715800D01*
X711200D02*
Y426200D01*
X715800D01*
Y413800D02*
Y426200D01*
X715100Y419600D02*
Y420400D01*
X711900Y419600D02*
Y420400D01*
X759300Y424700D02*
Y429300D01*
X771700D01*
Y424700D02*
Y429300D01*
X759300Y424700D02*
X771700D01*
X765100Y425400D02*
X765900D01*
X765100Y428600D02*
X765900D01*
X805100Y402100D02*
X805900D01*
X805100Y398900D02*
X805900D01*
X799300Y398200D02*
X811700D01*
Y402800D01*
X799300D02*
X811700D01*
X799300Y398200D02*
Y402800D01*
X797900Y384600D02*
Y385400D01*
X801100Y384600D02*
Y385400D01*
X801800Y378800D02*
Y391200D01*
X797200D02*
X801800D01*
X797200Y378800D02*
Y391200D01*
Y378800D02*
X801800D01*
X731101Y385100D02*
Y385900D01*
X727901Y385100D02*
Y385900D01*
X727201Y379300D02*
Y391700D01*
Y379300D02*
X731801D01*
Y391700D01*
X727201D02*
X731801D01*
X796400Y411600D02*
Y412400D01*
X799600Y411600D02*
Y412400D01*
X800300Y405800D02*
Y418200D01*
X795700D02*
X800300D01*
X795700Y405800D02*
Y418200D01*
Y405800D02*
X800300D01*
X769900Y386600D02*
X770700D01*
X769900Y383400D02*
X770700D01*
X764100Y382700D02*
X776500D01*
Y387300D01*
X764100D02*
X776500D01*
X764100Y382700D02*
Y387300D01*
X892400Y421900D02*
Y422700D01*
X895600Y421900D02*
Y422700D01*
X896300Y416100D02*
Y428500D01*
X891700D02*
X896300D01*
X891700Y416100D02*
Y428500D01*
Y416100D02*
X896300D01*
D21*
X713055Y450473D02*
X719945D01*
X713055Y462481D02*
X719945D01*
X727000Y450851D02*
X731999D01*
X727000D02*
Y459851D01*
Y461851D01*
X731999D01*
Y450851D02*
Y461851D01*
X727499Y454851D02*
Y457851D01*
X731499Y454851D02*
Y457851D01*
X717000Y438500D02*
X722000D01*
Y429500D02*
Y438500D01*
Y427500D02*
Y429500D01*
X717000Y427500D02*
X722000D01*
X717000D02*
Y438500D01*
X721500Y431500D02*
Y434500D01*
X717500Y431500D02*
Y434500D01*
X711000Y427351D02*
X716000D01*
X711000D02*
Y436350D01*
Y438350D01*
X716000D01*
Y427351D02*
Y438350D01*
X711500Y431351D02*
Y434350D01*
X715500Y431351D02*
Y434350D01*
X717000Y415203D02*
X722000D01*
X717000D02*
Y424203D01*
Y426203D01*
X722000D01*
Y415203D02*
Y426203D01*
X717500Y419203D02*
Y422203D01*
X721500Y419203D02*
Y422203D01*
X920756Y347500D02*
X925756D01*
X920756D02*
Y356500D01*
Y358500D01*
X925756D01*
Y347500D02*
Y358500D01*
X921256Y351500D02*
Y354500D01*
X925256Y351500D02*
Y354500D01*
X927256Y347500D02*
X932256D01*
X927256D02*
Y356500D01*
Y358500D01*
X932256D01*
Y347500D02*
Y358500D01*
X927756Y351500D02*
Y354500D01*
X931756Y351500D02*
Y354500D01*
X933756Y347500D02*
X938756D01*
X933756D02*
Y356500D01*
Y358500D01*
X938756D01*
Y347500D02*
Y358500D01*
X934256Y351500D02*
Y354500D01*
X938256Y351500D02*
Y354500D01*
X955996Y335984D02*
Y337165D01*
X913476D02*
X955996D01*
X913476D02*
Y343071D01*
X893791D02*
X913476D01*
X893791Y335984D02*
Y343071D01*
Y285984D02*
Y324961D01*
Y274173D02*
Y274961D01*
Y274173D02*
X955996Y273780D01*
Y274961D01*
Y285984D02*
Y324961D01*
X815288Y467868D02*
X815944D01*
X815616D01*
Y466228D01*
X815944Y465900D01*
X816272D01*
X816600Y466228D01*
X814632Y467540D02*
X814304Y467868D01*
X813648D01*
X813320Y467540D01*
Y467212D01*
X813648Y466884D01*
X813976D01*
X813648D01*
X813320Y466556D01*
Y466228D01*
X813648Y465900D01*
X814304D01*
X814632Y466228D01*
X888400Y451368D02*
Y449728D01*
X888072Y449400D01*
X887416D01*
X887088Y449728D01*
Y451368D01*
X885120D02*
X885776Y451040D01*
X886432Y450384D01*
Y449728D01*
X886104Y449400D01*
X885448D01*
X885120Y449728D01*
Y450056D01*
X885448Y450384D01*
X886432D01*
X965700Y307968D02*
Y306328D01*
X965372Y306000D01*
X964716D01*
X964388Y306328D01*
Y307968D01*
X962420Y306000D02*
X963732D01*
X962420Y307312D01*
Y307640D01*
X962748Y307968D01*
X963404D01*
X963732Y307640D01*
X735400Y458800D02*
X733432D01*
Y457816D01*
X733760Y457488D01*
X734416D01*
X734744Y457816D01*
Y458800D01*
Y458144D02*
X735400Y457488D01*
Y455520D02*
Y456832D01*
X734088Y455520D01*
X733760D01*
X733432Y455848D01*
Y456504D01*
X733760Y456832D01*
X733432Y454864D02*
Y453552D01*
X733760D01*
X735072Y454864D01*
X735400D01*
X937800Y360000D02*
Y361968D01*
X936816D01*
X936488Y361640D01*
Y360984D01*
X936816Y360656D01*
X937800D01*
X937144D02*
X936488Y360000D01*
X935832Y360328D02*
X935504Y360000D01*
X934848D01*
X934520Y360328D01*
Y361640D01*
X934848Y361968D01*
X935504D01*
X935832Y361640D01*
Y361312D01*
X935504Y360984D01*
X934520D01*
X925100Y360100D02*
Y362068D01*
X924116D01*
X923788Y361740D01*
Y361084D01*
X924116Y360756D01*
X925100D01*
X924444D02*
X923788Y360100D01*
X923132Y361740D02*
X922804Y362068D01*
X922148D01*
X921820Y361740D01*
Y361412D01*
X922148Y361084D01*
X921820Y360756D01*
Y360428D01*
X922148Y360100D01*
X922804D01*
X923132Y360428D01*
Y360756D01*
X922804Y361084D01*
X923132Y361412D01*
Y361740D01*
X922804Y361084D02*
X922148D01*
X931300Y360100D02*
Y362068D01*
X930316D01*
X929988Y361740D01*
Y361084D01*
X930316Y360756D01*
X931300D01*
X930644D02*
X929988Y360100D01*
X929332Y362068D02*
X928020D01*
Y361740D01*
X929332Y360428D01*
Y360100D01*
X709800Y434900D02*
X707832D01*
Y433916D01*
X708160Y433588D01*
X708816D01*
X709144Y433916D01*
Y434900D01*
Y434244D02*
X709800Y433588D01*
X707832Y431620D02*
Y432932D01*
X708816D01*
X708488Y432276D01*
Y431948D01*
X708816Y431620D01*
X709472D01*
X709800Y431948D01*
Y432604D01*
X709472Y432932D01*
X725500Y422203D02*
X723532D01*
Y421219D01*
X723860Y420891D01*
X724516D01*
X724844Y421219D01*
Y422203D01*
Y421547D02*
X725500Y420891D01*
Y419251D02*
X723532D01*
X724516Y420235D01*
Y418923D01*
X725400Y434800D02*
X723432D01*
Y433816D01*
X723760Y433488D01*
X724416D01*
X724744Y433816D01*
Y434800D01*
Y434144D02*
X725400Y433488D01*
X723760Y432832D02*
X723432Y432504D01*
Y431848D01*
X723760Y431520D01*
X724088D01*
X724416Y431848D01*
Y432176D01*
Y431848D01*
X724744Y431520D01*
X725072D01*
X725400Y431848D01*
Y432504D01*
X725072Y432832D01*
X856188Y453968D02*
X856844D01*
X856516D01*
Y452328D01*
X856844Y452000D01*
X857172D01*
X857500Y452328D01*
X854548Y452000D02*
Y453968D01*
X855532Y452984D01*
X854220D01*
X719000Y449168D02*
X718344D01*
X718672D01*
Y447200D01*
X719000D01*
X718344D01*
X716048Y448840D02*
X716376Y449168D01*
X717032D01*
X717360Y448840D01*
Y447528D01*
X717032Y447200D01*
X716376D01*
X716048Y447528D01*
X714080Y449168D02*
X715392D01*
Y448184D01*
X714736Y448512D01*
X714408D01*
X714080Y448184D01*
Y447528D01*
X714408Y447200D01*
X715064D01*
X715392Y447528D01*
X814500Y396268D02*
X813844D01*
X814172D01*
Y394300D01*
X814500D01*
X813844D01*
X811548Y395940D02*
X811876Y396268D01*
X812532D01*
X812860Y395940D01*
Y394628D01*
X812532Y394300D01*
X811876D01*
X811548Y394628D01*
X810892Y395940D02*
X810564Y396268D01*
X809908D01*
X809580Y395940D01*
Y395612D01*
X809908Y395284D01*
X810236D01*
X809908D01*
X809580Y394956D01*
Y394628D01*
X809908Y394300D01*
X810564D01*
X810892Y394628D01*
X894788Y432740D02*
X895116Y433068D01*
X895772D01*
X896100Y432740D01*
Y431428D01*
X895772Y431100D01*
X895116D01*
X894788Y431428D01*
X894132Y432740D02*
X893804Y433068D01*
X893148D01*
X892820Y432740D01*
Y432412D01*
X893148Y432084D01*
X893476D01*
X893148D01*
X892820Y431756D01*
Y431428D01*
X893148Y431100D01*
X893804D01*
X894132Y431428D01*
X891180Y431100D02*
Y433068D01*
X892164Y432084D01*
X890852D01*
X727988Y467240D02*
X728316Y467568D01*
X728972D01*
X729300Y467240D01*
Y465928D01*
X728972Y465600D01*
X728316D01*
X727988Y465928D01*
X727332Y467240D02*
X727004Y467568D01*
X726348D01*
X726020Y467240D01*
Y466912D01*
X726348Y466584D01*
X726676D01*
X726348D01*
X726020Y466256D01*
Y465928D01*
X726348Y465600D01*
X727004D01*
X727332Y465928D01*
X725364Y467240D02*
X725036Y467568D01*
X724380D01*
X724052Y467240D01*
Y466912D01*
X724380Y466584D01*
X724708D01*
X724380D01*
X724052Y466256D01*
Y465928D01*
X724380Y465600D01*
X725036D01*
X725364Y465928D01*
X692788Y464940D02*
X693116Y465268D01*
X693772D01*
X694100Y464940D01*
Y463628D01*
X693772Y463300D01*
X693116D01*
X692788Y463628D01*
X690820Y463300D02*
X692132D01*
X690820Y464612D01*
Y464940D01*
X691148Y465268D01*
X691804D01*
X692132Y464940D01*
X690164Y465268D02*
X688852D01*
Y464940D01*
X690164Y463628D01*
Y463300D01*
X701988Y468940D02*
X702316Y469268D01*
X702972D01*
X703300Y468940D01*
Y467628D01*
X702972Y467300D01*
X702316D01*
X701988Y467628D01*
X700020Y467300D02*
X701332D01*
X700020Y468612D01*
Y468940D01*
X700348Y469268D01*
X701004D01*
X701332Y468940D01*
X698052Y469268D02*
X698708Y468940D01*
X699364Y468284D01*
Y467628D01*
X699036Y467300D01*
X698380D01*
X698052Y467628D01*
Y467956D01*
X698380Y468284D01*
X699364D01*
X810188Y407040D02*
X810516Y407368D01*
X811172D01*
X811500Y407040D01*
Y405728D01*
X811172Y405400D01*
X810516D01*
X810188Y405728D01*
X808220Y405400D02*
X809532D01*
X808220Y406712D01*
Y407040D01*
X808548Y407368D01*
X809204D01*
X809532Y407040D01*
X806580Y405400D02*
Y407368D01*
X807564Y406384D01*
X806252D01*
X708160Y421288D02*
X707832Y421616D01*
Y422272D01*
X708160Y422600D01*
X709472D01*
X709800Y422272D01*
Y421616D01*
X709472Y421288D01*
X709800Y420632D02*
Y419976D01*
Y420304D01*
X707832D01*
X708160Y420632D01*
Y418992D02*
X707832Y418664D01*
Y418008D01*
X708160Y417680D01*
X709472D01*
X709800Y418008D01*
Y418664D01*
X709472Y418992D01*
X708160D01*
X798788Y422440D02*
X799116Y422768D01*
X799772D01*
X800100Y422440D01*
Y421128D01*
X799772Y420800D01*
X799116D01*
X798788Y421128D01*
X798132D02*
X797804Y420800D01*
X797148D01*
X796820Y421128D01*
Y422440D01*
X797148Y422768D01*
X797804D01*
X798132Y422440D01*
Y422112D01*
X797804Y421784D01*
X796820D01*
X800288Y395440D02*
X800616Y395768D01*
X801272D01*
X801600Y395440D01*
Y394128D01*
X801272Y393800D01*
X800616D01*
X800288Y394128D01*
X799632Y395440D02*
X799304Y395768D01*
X798648D01*
X798320Y395440D01*
Y395112D01*
X798648Y394784D01*
X798320Y394456D01*
Y394128D01*
X798648Y393800D01*
X799304D01*
X799632Y394128D01*
Y394456D01*
X799304Y394784D01*
X799632Y395112D01*
Y395440D01*
X799304Y394784D02*
X798648D01*
X765888Y423040D02*
X766216Y423368D01*
X766872D01*
X767200Y423040D01*
Y421728D01*
X766872Y421400D01*
X766216D01*
X765888Y421728D01*
X765232Y423368D02*
X763920D01*
Y423040D01*
X765232Y421728D01*
Y421400D01*
X730289Y395940D02*
X730617Y396268D01*
X731273D01*
X731601Y395940D01*
Y394628D01*
X731273Y394300D01*
X730617D01*
X730289Y394628D01*
X728321Y396268D02*
X728977Y395940D01*
X729633Y395284D01*
Y394628D01*
X729305Y394300D01*
X728649D01*
X728321Y394628D01*
Y394956D01*
X728649Y395284D01*
X729633D01*
X774988Y391540D02*
X775316Y391868D01*
X775972D01*
X776300Y391540D01*
Y390228D01*
X775972Y389900D01*
X775316D01*
X774988Y390228D01*
X773020Y391868D02*
X774332D01*
Y390884D01*
X773676Y391212D01*
X773348D01*
X773020Y390884D01*
Y390228D01*
X773348Y389900D01*
X774004D01*
X774332Y390228D01*
X716000Y397368D02*
Y395400D01*
X715016D01*
X714688Y395728D01*
Y396056D01*
X715016Y396384D01*
X716000D01*
X715016D01*
X714688Y396712D01*
Y397040D01*
X715016Y397368D01*
X716000D01*
X714032D02*
X712720D01*
X713376D01*
Y395400D01*
X712064D02*
X711408D01*
X711736D01*
Y397368D01*
X712064Y397040D01*
D96*
X873380Y469437D02*
G03*
X873380Y469437I-787J0D01*
G01*
X865699Y465516D02*
X883199D01*
D124*
X876796Y468699D02*
G03*
X875014Y469437I-1783J-1783D01*
G01*
X872683Y461579D02*
G03*
X874466Y462317I0J2521D01*
G01*
X872699Y469437D02*
X875014D01*
X870699Y461579D02*
X872683D01*
X876796Y468699D02*
X880233Y465262D01*
X874466Y462317D02*
X877418Y465270D01*
D132*
X884356Y465516D02*
G03*
X884356Y465516I-1000J0D01*
G01*
D133*
X872614Y444000D02*
G03*
X877614Y444000I2500J0D01*
G01*
X882675Y442691D02*
G03*
X881579Y444199I-1302J206D01*
G01*
X867351Y404300D02*
G03*
X868851Y402800I1500J0D01*
G01*
X869256Y444199D02*
G03*
X867352Y442712I-208J-1695D01*
G01*
X881167Y402802D02*
G03*
X882675Y403897I206J1302D01*
G01*
X877614Y444200D02*
X881570D01*
X869295D02*
X872614D01*
X868851Y402800D02*
X881176D01*
X882676Y403906D02*
Y442700D01*
X867351Y404300D02*
Y442700D01*
D134*
X859449Y453716D02*
Y460796D01*
Y453716D02*
X867449Y453716D01*
X890449Y460796D02*
X890449Y453816D01*
X882449D02*
X890449D01*
X890449Y470300D02*
Y475316D01*
X859449D02*
X890449D01*
X859449Y470300D02*
Y475316D01*
M02*
