G04*
G04 #@! TF.GenerationSoftware,Altium Limited,Altium Designer,18.1.6 (161)*
G04*
G04 Layer_Color=16711935*
%FSLAX25Y25*%
%MOIN*%
G70*
G01*
G75*
G04:AMPARAMS|DCode=52|XSize=68mil|YSize=68mil|CornerRadius=19mil|HoleSize=0mil|Usage=FLASHONLY|Rotation=90.000|XOffset=0mil|YOffset=0mil|HoleType=Round|Shape=RoundedRectangle|*
%AMROUNDEDRECTD52*
21,1,0.06800,0.03000,0,0,90.0*
21,1,0.03000,0.06800,0,0,90.0*
1,1,0.03800,0.01500,0.01500*
1,1,0.03800,0.01500,-0.01500*
1,1,0.03800,-0.01500,-0.01500*
1,1,0.03800,-0.01500,0.01500*
%
%ADD52ROUNDEDRECTD52*%
%ADD53R,0.06800X0.06800*%
%ADD54R,0.04340X0.04537*%
%ADD58R,0.04537X0.04340*%
%ADD59R,0.06706X0.03162*%
%ADD60R,0.04343X0.03162*%
%ADD79R,0.06784X0.06784*%
%ADD80C,0.06784*%
%ADD81C,0.08300*%
%ADD82C,0.06706*%
%ADD83R,0.06706X0.06706*%
%ADD84R,0.06784X0.06784*%
%ADD85C,0.07887*%
%ADD86O,0.08800X0.12800*%
%ADD87O,0.12800X0.08800*%
%ADD88O,0.15800X0.08800*%
%ADD89C,0.15800*%
%ADD90C,0.07099*%
%ADD91R,0.07099X0.07099*%
%ADD92C,0.05918*%
%ADD93C,0.03600*%
%ADD94C,0.03162*%
%ADD125R,0.10642X0.16548*%
%ADD126R,0.02375X0.08674*%
%ADD127R,0.08280X0.08280*%
%ADD128R,0.06942X0.11076*%
%ADD129R,0.04343X0.06115*%
G04:AMPARAMS|DCode=130|XSize=106.42mil|YSize=177.29mil|CornerRadius=28.61mil|HoleSize=0mil|Usage=FLASHONLY|Rotation=180.000|XOffset=0mil|YOffset=0mil|HoleType=Round|Shape=RoundedRectangle|*
%AMROUNDEDRECTD130*
21,1,0.10642,0.12008,0,0,180.0*
21,1,0.04921,0.17729,0,0,180.0*
1,1,0.05721,-0.02461,0.06004*
1,1,0.05721,0.02461,0.06004*
1,1,0.05721,0.02461,-0.06004*
1,1,0.05721,-0.02461,-0.06004*
%
%ADD130ROUNDEDRECTD130*%
%ADD131R,0.05524X0.03162*%
D52*
X700500Y449201D02*
D03*
D53*
Y461799D02*
D03*
D54*
X691500Y459200D02*
D03*
Y451800D02*
D03*
X713500Y416300D02*
D03*
Y423700D02*
D03*
X799500Y388700D02*
D03*
Y381300D02*
D03*
X729500Y381800D02*
D03*
Y389200D02*
D03*
X798000Y415700D02*
D03*
Y408300D02*
D03*
X894000Y426000D02*
D03*
Y418600D02*
D03*
D58*
X720200Y466500D02*
D03*
X712800D02*
D03*
X761800Y427000D02*
D03*
X769200D02*
D03*
X809200Y400500D02*
D03*
X801800D02*
D03*
X774000Y385000D02*
D03*
X766600D02*
D03*
D59*
X710595Y460217D02*
D03*
Y452737D02*
D03*
X722405D02*
D03*
Y456477D02*
D03*
Y460217D02*
D03*
D60*
X729499Y452851D02*
D03*
X729500Y460000D02*
D03*
X719500Y436500D02*
D03*
X719499Y429351D02*
D03*
X713500D02*
D03*
X713500Y436500D02*
D03*
X719500Y417203D02*
D03*
X719500Y424352D02*
D03*
X923256Y349500D02*
D03*
X923256Y356649D02*
D03*
X929756Y349500D02*
D03*
X929756Y356649D02*
D03*
X936256Y349500D02*
D03*
X936256Y356649D02*
D03*
D79*
X770500Y435500D02*
D03*
D80*
X760500D02*
D03*
X750500D02*
D03*
X740500D02*
D03*
X809500Y375500D02*
D03*
Y365500D02*
D03*
Y355500D02*
D03*
D81*
X758000Y456000D02*
D03*
X738000D02*
D03*
X779500Y344500D02*
D03*
X799500D02*
D03*
X845500Y346500D02*
D03*
Y326500D02*
D03*
X820500Y316500D02*
D03*
Y296500D02*
D03*
D82*
X682500Y374500D02*
D03*
X698600Y381300D02*
D03*
D83*
X692500Y374500D02*
D03*
D84*
X809500Y385500D02*
D03*
D85*
X909500Y394000D02*
D03*
Y404000D02*
D03*
Y414000D02*
D03*
Y424000D02*
D03*
Y434000D02*
D03*
Y444000D02*
D03*
Y454000D02*
D03*
Y464000D02*
D03*
X839500D02*
D03*
Y454000D02*
D03*
Y444000D02*
D03*
Y434000D02*
D03*
Y424000D02*
D03*
Y414000D02*
D03*
Y404000D02*
D03*
Y394000D02*
D03*
D86*
X965500Y432500D02*
D03*
X954500Y438500D02*
D03*
X926500Y448500D02*
D03*
D87*
X928500Y418500D02*
D03*
D88*
X946000Y464500D02*
D03*
D89*
X678500Y285500D02*
D03*
Y458614D02*
D03*
X978000D02*
D03*
Y285500D02*
D03*
D90*
X997370Y437000D02*
D03*
Y427000D02*
D03*
Y417000D02*
D03*
Y407000D02*
D03*
Y397000D02*
D03*
Y387000D02*
D03*
Y377000D02*
D03*
Y367000D02*
D03*
Y357000D02*
D03*
Y347000D02*
D03*
Y337000D02*
D03*
Y327000D02*
D03*
Y317000D02*
D03*
D91*
Y307000D02*
D03*
D92*
X698700Y352000D02*
D03*
D93*
X791900Y431400D02*
D03*
X793500Y421500D02*
D03*
X794500Y417000D02*
D03*
X795327Y439500D02*
D03*
X791500D02*
D03*
X788000D02*
D03*
X951500Y342500D02*
D03*
X954500Y354113D02*
D03*
X977000Y354000D02*
D03*
X960500Y354113D02*
D03*
X966000D02*
D03*
X971341Y354000D02*
D03*
X977000Y342500D02*
D03*
X971341D02*
D03*
X966000D02*
D03*
X960500D02*
D03*
X943000Y416000D02*
D03*
X828500Y434500D02*
D03*
X737000Y404500D02*
D03*
X735500Y411000D02*
D03*
X780250Y437500D02*
D03*
X795327Y443500D02*
D03*
X743000Y379500D02*
D03*
X720200Y440750D02*
D03*
X821949Y434051D02*
D03*
X716500Y411000D02*
D03*
X854500Y445500D02*
D03*
X696000Y330472D02*
D03*
Y336000D02*
D03*
Y325500D02*
D03*
X701000Y330500D02*
D03*
Y325500D02*
D03*
Y336000D02*
D03*
X776500Y385000D02*
D03*
X745000Y325500D02*
D03*
X752000Y325000D02*
D03*
X710000Y359500D02*
D03*
X723758Y381500D02*
D03*
X936256Y355000D02*
D03*
X700500Y459200D02*
D03*
Y463000D02*
D03*
X696000Y459200D02*
D03*
Y463000D02*
D03*
X691500D02*
D03*
Y459200D02*
D03*
X720200Y437000D02*
D03*
X880500Y431000D02*
D03*
X893000Y436000D02*
D03*
X734500Y362500D02*
D03*
X739000Y379500D02*
D03*
X750000Y387000D02*
D03*
X710595Y444500D02*
D03*
X706500D02*
D03*
Y440500D02*
D03*
X710595D02*
D03*
X793574Y379000D02*
D03*
X778795Y369500D02*
D03*
X783000Y371000D02*
D03*
X779500Y309012D02*
D03*
X696500Y396500D02*
D03*
X701000D02*
D03*
Y404000D02*
D03*
X696500D02*
D03*
X809047Y402500D02*
D03*
X859903Y346989D02*
D03*
X955756Y340256D02*
D03*
X917500Y288000D02*
D03*
X907500Y287500D02*
D03*
X902000Y288000D02*
D03*
D94*
X732284Y318898D02*
D03*
X734252Y314961D02*
D03*
Y307087D02*
D03*
X728347Y318898D02*
D03*
X724410D02*
D03*
X720473D02*
D03*
Y303150D02*
D03*
X716536Y318898D02*
D03*
X718504Y314961D02*
D03*
X716536Y303150D02*
D03*
X712599Y318898D02*
D03*
X714567Y314961D02*
D03*
X712599Y303150D02*
D03*
X708662Y318898D02*
D03*
X710630Y314961D02*
D03*
X708662Y303150D02*
D03*
X704725Y318898D02*
D03*
X706693Y314961D02*
D03*
X704725Y303150D02*
D03*
X700788Y318898D02*
D03*
X702756Y314961D02*
D03*
X700788Y303150D02*
D03*
X696851Y318898D02*
D03*
X698819Y314961D02*
D03*
X696851Y303150D02*
D03*
X692914Y318898D02*
D03*
X694882Y314961D02*
D03*
X688977Y318898D02*
D03*
X690945Y314961D02*
D03*
X685040Y318898D02*
D03*
X687008Y314961D02*
D03*
X685040Y303150D02*
D03*
D125*
X698600Y400100D02*
D03*
Y330700D02*
D03*
D126*
X869831Y453816D02*
D03*
X872390D02*
D03*
X874949D02*
D03*
X877508D02*
D03*
X880149D02*
D03*
D127*
X859398Y465500D02*
D03*
X890500D02*
D03*
D128*
X893772Y280472D02*
D03*
Y330472D02*
D03*
X955898Y280472D02*
D03*
Y330472D02*
D03*
D129*
X924756Y340256D02*
D03*
X929756D02*
D03*
X934756D02*
D03*
X939756D02*
D03*
X944756D02*
D03*
X949756D02*
D03*
D130*
X781000Y453000D02*
D03*
X810000Y453000D02*
D03*
D131*
X863990Y441000D02*
D03*
Y436000D02*
D03*
Y431000D02*
D03*
Y426000D02*
D03*
Y421000D02*
D03*
Y416000D02*
D03*
Y411000D02*
D03*
Y406000D02*
D03*
X886037D02*
D03*
Y411000D02*
D03*
Y416000D02*
D03*
Y421000D02*
D03*
Y426000D02*
D03*
Y431000D02*
D03*
Y436000D02*
D03*
Y441000D02*
D03*
M02*
