G04*
G04 #@! TF.GenerationSoftware,Altium Limited,Altium Designer,18.1.6 (161)*
G04*
G04 Layer_Physical_Order=3*
G04 Layer_Color=7058166*
%FSLAX25Y25*%
%MOIN*%
G70*
G01*
G75*
%ADD95C,0.01200*%
%ADD96C,0.02000*%
%ADD99C,0.04000*%
%ADD101R,0.05984X0.05984*%
%ADD103C,0.07500*%
%ADD107C,0.07087*%
%ADD112C,0.06299*%
%ADD113R,0.06299X0.06299*%
%ADD115C,0.02800*%
G36*
X733913Y465564D02*
X733814Y465460D01*
X733726Y465356D01*
X733649Y465252D01*
X733582Y465147D01*
X733526Y465043D01*
X733479Y464937D01*
X733444Y464832D01*
X733419Y464726D01*
X733404Y464620D01*
X733400Y464514D01*
X732014Y465900D01*
X732120Y465904D01*
X732226Y465919D01*
X732332Y465944D01*
X732437Y465979D01*
X732543Y466025D01*
X732648Y466082D01*
X732752Y466149D01*
X732856Y466226D01*
X732960Y466314D01*
X733064Y466413D01*
X733913Y465564D01*
D02*
G37*
G36*
X740078Y465408D02*
X740163Y465343D01*
X740256Y465286D01*
X740355Y465237D01*
X740462Y465195D01*
X740576Y465161D01*
X740698Y465134D01*
X740826Y465115D01*
X740962Y465104D01*
X741105Y465100D01*
Y463900D01*
X740962Y463896D01*
X740826Y463885D01*
X740698Y463866D01*
X740576Y463839D01*
X740462Y463805D01*
X740355Y463763D01*
X740256Y463714D01*
X740163Y463657D01*
X740078Y463592D01*
X740000Y463520D01*
Y465480D01*
X740078Y465408D01*
D02*
G37*
G36*
X844293Y458292D02*
X844253Y458313D01*
X844175Y458331D01*
X844060Y458347D01*
X843716Y458373D01*
X842200Y458400D01*
Y459600D01*
X844293Y459707D01*
Y458292D01*
D02*
G37*
G36*
X834656Y459687D02*
X834734Y459669D01*
X834849Y459653D01*
X835193Y459627D01*
X836709Y459600D01*
Y458400D01*
X834616Y458292D01*
Y459707D01*
X834656Y459687D01*
D02*
G37*
G36*
X708500Y456500D02*
X689000D01*
Y467916D01*
X708500D01*
Y456500D01*
D02*
G37*
G36*
X703000Y445500D02*
X689000D01*
Y454000D01*
X703000D01*
Y445500D01*
D02*
G37*
G36*
X819540Y444064D02*
X819644Y443976D01*
X819748Y443899D01*
X819853Y443832D01*
X819957Y443776D01*
X820063Y443729D01*
X820168Y443694D01*
X820274Y443669D01*
X820380Y443654D01*
X820486Y443650D01*
X819100Y442264D01*
X819096Y442370D01*
X819081Y442476D01*
X819056Y442582D01*
X819021Y442687D01*
X818974Y442793D01*
X818918Y442898D01*
X818851Y443002D01*
X818774Y443106D01*
X818686Y443210D01*
X818587Y443314D01*
X819436Y444163D01*
X819540Y444064D01*
D02*
G37*
G36*
X807540D02*
X807644Y443976D01*
X807748Y443899D01*
X807852Y443832D01*
X807957Y443776D01*
X808063Y443729D01*
X808168Y443694D01*
X808274Y443669D01*
X808380Y443654D01*
X808486Y443650D01*
X807100Y442264D01*
X807096Y442370D01*
X807081Y442476D01*
X807056Y442582D01*
X807021Y442687D01*
X806975Y442793D01*
X806918Y442898D01*
X806851Y443002D01*
X806774Y443106D01*
X806686Y443210D01*
X806587Y443314D01*
X807436Y444163D01*
X807540Y444064D01*
D02*
G37*
G36*
X833313Y426464D02*
X833214Y426360D01*
X833126Y426256D01*
X833049Y426152D01*
X832982Y426048D01*
X832925Y425943D01*
X832879Y425837D01*
X832844Y425732D01*
X832819Y425626D01*
X832804Y425520D01*
X832800Y425414D01*
X831414Y426800D01*
X831520Y426804D01*
X831626Y426819D01*
X831732Y426844D01*
X831837Y426879D01*
X831943Y426926D01*
X832047Y426982D01*
X832152Y427049D01*
X832256Y427126D01*
X832360Y427214D01*
X832464Y427313D01*
X833313Y426464D01*
D02*
G37*
G36*
X995121Y424795D02*
X994882Y425024D01*
X994638Y425229D01*
X994388Y425410D01*
X994134Y425566D01*
X993874Y425699D01*
X993608Y425807D01*
X993338Y425892D01*
X993062Y425952D01*
X992780Y425988D01*
X992494Y426000D01*
Y428000D01*
X992780Y428012D01*
X993062Y428048D01*
X993338Y428108D01*
X993608Y428193D01*
X993874Y428301D01*
X994134Y428434D01*
X994388Y428590D01*
X994638Y428771D01*
X994882Y428976D01*
X995121Y429205D01*
Y424795D01*
D02*
G37*
G36*
X793314Y429986D02*
X792977Y429608D01*
X792759Y429271D01*
X792662Y428973D01*
X792683Y428715D01*
X792825Y428497D01*
X793086Y428318D01*
X793467Y428179D01*
X793968Y428079D01*
X794588Y428020D01*
X795328Y428000D01*
X786500Y424000D01*
X781672Y428000D01*
X782460Y428028D01*
X783225Y428113D01*
X783966Y428255D01*
X784684Y428452D01*
X785379Y428707D01*
X786050Y429018D01*
X786697Y429386D01*
X787322Y429810D01*
X787923Y430291D01*
X788500Y430828D01*
X793314Y429986D01*
D02*
G37*
G36*
X828078Y423408D02*
X828163Y423343D01*
X828256Y423286D01*
X828355Y423237D01*
X828462Y423195D01*
X828576Y423161D01*
X828698Y423134D01*
X828826Y423115D01*
X828962Y423104D01*
X829105Y423100D01*
Y421900D01*
X828962Y421896D01*
X828826Y421885D01*
X828698Y421866D01*
X828576Y421839D01*
X828462Y421805D01*
X828355Y421763D01*
X828256Y421714D01*
X828163Y421657D01*
X828078Y421592D01*
X828000Y421520D01*
Y423480D01*
X828078Y423408D01*
D02*
G37*
G36*
X943604Y417962D02*
X943615Y417826D01*
X943634Y417698D01*
X943661Y417576D01*
X943695Y417462D01*
X943737Y417355D01*
X943786Y417256D01*
X943843Y417163D01*
X943908Y417078D01*
X943980Y417000D01*
X942020D01*
X942092Y417078D01*
X942157Y417163D01*
X942214Y417256D01*
X942263Y417355D01*
X942305Y417462D01*
X942339Y417576D01*
X942366Y417698D01*
X942385Y417826D01*
X942396Y417962D01*
X942400Y418105D01*
X943600D01*
X943604Y417962D01*
D02*
G37*
G36*
X995121Y414795D02*
X994882Y415024D01*
X994638Y415229D01*
X994388Y415410D01*
X994134Y415566D01*
X993874Y415699D01*
X993608Y415807D01*
X993338Y415892D01*
X993062Y415952D01*
X992780Y415988D01*
X992494Y416000D01*
Y418000D01*
X992780Y418012D01*
X993062Y418048D01*
X993338Y418108D01*
X993608Y418193D01*
X993874Y418301D01*
X994134Y418434D01*
X994388Y418590D01*
X994638Y418771D01*
X994882Y418976D01*
X995121Y419205D01*
Y414795D01*
D02*
G37*
G36*
X718413Y412064D02*
X718314Y411960D01*
X718226Y411856D01*
X718149Y411752D01*
X718082Y411648D01*
X718025Y411543D01*
X717979Y411437D01*
X717944Y411332D01*
X717919Y411226D01*
X717904Y411120D01*
X717900Y411014D01*
X716514Y412400D01*
X716620Y412404D01*
X716726Y412419D01*
X716832Y412444D01*
X716937Y412479D01*
X717043Y412526D01*
X717147Y412582D01*
X717252Y412649D01*
X717356Y412726D01*
X717460Y412814D01*
X717564Y412913D01*
X718413Y412064D01*
D02*
G37*
G36*
X926040Y408814D02*
X926144Y408726D01*
X926248Y408649D01*
X926353Y408582D01*
X926457Y408526D01*
X926563Y408479D01*
X926668Y408444D01*
X926774Y408419D01*
X926880Y408404D01*
X926986Y408400D01*
X925600Y407014D01*
X925596Y407120D01*
X925581Y407226D01*
X925556Y407332D01*
X925521Y407437D01*
X925475Y407543D01*
X925418Y407647D01*
X925351Y407752D01*
X925274Y407856D01*
X925186Y407960D01*
X925087Y408064D01*
X925936Y408913D01*
X926040Y408814D01*
D02*
G37*
G36*
X768104Y407962D02*
X768115Y407826D01*
X768134Y407698D01*
X768161Y407576D01*
X768195Y407462D01*
X768237Y407355D01*
X768286Y407256D01*
X768343Y407163D01*
X768408Y407078D01*
X768480Y407000D01*
X766520D01*
X766592Y407078D01*
X766657Y407163D01*
X766714Y407256D01*
X766763Y407355D01*
X766805Y407462D01*
X766839Y407576D01*
X766866Y407698D01*
X766885Y407826D01*
X766896Y407962D01*
X766900Y408105D01*
X768100D01*
X768104Y407962D01*
D02*
G37*
G36*
X777604Y406654D02*
X777615Y406519D01*
X777634Y406390D01*
X777661Y406269D01*
X777695Y406154D01*
X777737Y406048D01*
X777786Y405948D01*
X777843Y405855D01*
X777908Y405770D01*
X777980Y405692D01*
X776020D01*
X776092Y405770D01*
X776157Y405855D01*
X776214Y405948D01*
X776263Y406048D01*
X776305Y406154D01*
X776339Y406269D01*
X776366Y406390D01*
X776385Y406519D01*
X776396Y406654D01*
X776400Y406797D01*
X777600D01*
X777604Y406654D01*
D02*
G37*
G36*
X777587Y397361D02*
X777691Y397274D01*
X777795Y397196D01*
X777900Y397129D01*
X778005Y397073D01*
X778110Y397027D01*
X778215Y396991D01*
X778321Y396966D01*
X778427Y396951D01*
X778533Y396947D01*
X777147Y395561D01*
X777143Y395668D01*
X777129Y395774D01*
X777103Y395879D01*
X777068Y395985D01*
X777022Y396090D01*
X776965Y396195D01*
X776898Y396299D01*
X776821Y396404D01*
X776733Y396508D01*
X776635Y396611D01*
X777483Y397460D01*
X777587Y397361D01*
D02*
G37*
G36*
X995121Y394795D02*
X994882Y395024D01*
X994638Y395229D01*
X994388Y395410D01*
X994134Y395566D01*
X993874Y395699D01*
X993608Y395807D01*
X993338Y395892D01*
X993062Y395952D01*
X992780Y395988D01*
X992494Y396000D01*
Y398000D01*
X992780Y398012D01*
X993062Y398048D01*
X993338Y398108D01*
X993608Y398193D01*
X993874Y398301D01*
X994134Y398434D01*
X994388Y398590D01*
X994638Y398771D01*
X994882Y398976D01*
X995121Y399205D01*
Y394795D01*
D02*
G37*
G36*
X937501Y387409D02*
X937458Y387395D01*
X937390Y387353D01*
X937297Y387282D01*
X937035Y387058D01*
X935944Y386005D01*
X935096Y386853D01*
X936500Y388409D01*
X937501Y387409D01*
D02*
G37*
G36*
X797000Y447000D02*
X834000Y410000D01*
Y404692D01*
X833909Y404000D01*
X834000Y403308D01*
Y394692D01*
X833909Y394000D01*
X834000Y393308D01*
Y388500D01*
X838808D01*
X839500Y388409D01*
X840192Y388500D01*
X893500Y388500D01*
X903500Y398500D01*
X908808D01*
X909500Y398409D01*
X910192Y398500D01*
X921000D01*
Y384000D01*
X828000Y384000D01*
X828000Y406000D01*
X796500Y437500D01*
X786000D01*
X774500Y449000D01*
X751000D01*
Y462500D01*
X781500D01*
X797000Y447000D01*
D02*
G37*
G36*
X781904Y384388D02*
X781915Y384252D01*
X781934Y384123D01*
X781961Y384002D01*
X781995Y383888D01*
X782037Y383781D01*
X782086Y383681D01*
X782143Y383589D01*
X782208Y383504D01*
X782280Y383425D01*
X780320D01*
X780392Y383504D01*
X780457Y383589D01*
X780514Y383681D01*
X780563Y383781D01*
X780605Y383888D01*
X780639Y384002D01*
X780666Y384123D01*
X780685Y384252D01*
X780696Y384388D01*
X780700Y384530D01*
X781900D01*
X781904Y384388D01*
D02*
G37*
G36*
X926001Y384000D02*
X925958Y383986D01*
X925890Y383944D01*
X925797Y383874D01*
X925535Y383649D01*
X924444Y382596D01*
X923596Y383444D01*
X925000Y385001D01*
X926001Y384000D01*
D02*
G37*
G36*
X943986Y375600D02*
X943880Y375596D01*
X943774Y375581D01*
X943668Y375556D01*
X943563Y375521D01*
X943457Y375475D01*
X943353Y375418D01*
X943248Y375351D01*
X943144Y375274D01*
X943040Y375186D01*
X942936Y375087D01*
X942087Y375936D01*
X942186Y376040D01*
X942274Y376144D01*
X942351Y376248D01*
X942418Y376353D01*
X942475Y376457D01*
X942521Y376563D01*
X942556Y376668D01*
X942581Y376774D01*
X942596Y376880D01*
X942600Y376986D01*
X943986Y375600D01*
D02*
G37*
G36*
X775950Y381621D02*
X775426Y381070D01*
X774988Y380546D01*
X774635Y380051D01*
X774366Y379585D01*
X774182Y379147D01*
X774083Y378736D01*
X774069Y378355D01*
X774139Y378001D01*
X774292Y377681D01*
X775565Y376349D01*
X774151Y374935D01*
X773662Y375417D01*
X771767Y377076D01*
X771498Y377257D01*
X771265Y377389D01*
X771069Y377471D01*
X770909Y377502D01*
X772192Y378785D01*
X771000Y379500D01*
X766172Y381500D01*
X766960Y381528D01*
X767725Y381613D01*
X768466Y381755D01*
X769184Y381953D01*
X769879Y382207D01*
X770550Y382518D01*
X771198Y382886D01*
X771822Y383310D01*
X772423Y383791D01*
X773000Y384328D01*
X775950Y381621D01*
D02*
G37*
G36*
X703500Y394000D02*
X713500D01*
Y374500D01*
X697500Y358500D01*
X689500D01*
Y366500D01*
X697500D01*
X705000Y374000D01*
Y387000D01*
X693500D01*
Y408000D01*
X703500D01*
Y394000D01*
D02*
G37*
G36*
X994232Y303862D02*
X994193Y304079D01*
X994073Y304272D01*
X993873Y304443D01*
X993592Y304591D01*
X993233Y304716D01*
X992793Y304818D01*
X992272Y304898D01*
X991673Y304955D01*
X990232Y305000D01*
Y309000D01*
X990993Y309011D01*
X992272Y309102D01*
X992793Y309182D01*
X993233Y309284D01*
X993592Y309409D01*
X993873Y309557D01*
X994073Y309728D01*
X994193Y309922D01*
X994232Y310138D01*
Y303862D01*
D02*
G37*
D95*
X792500Y414000D02*
X814500D01*
X833500Y419000D02*
X915000D01*
X830000Y422500D02*
X833500Y419000D01*
X827000Y422500D02*
X830000D01*
X831400Y425400D02*
X835000Y429000D01*
X872000D01*
X939500Y372500D02*
X944000Y377000D01*
X822500Y372500D02*
X939500D01*
X816500Y378500D02*
X822500Y372500D01*
X816500Y378500D02*
Y401000D01*
X810500Y407000D02*
X816500Y401000D01*
X790500Y407000D02*
X810500D01*
X785000Y412500D02*
X790500Y407000D01*
X779000Y412500D02*
X785000D01*
X777000Y410500D02*
X779000Y412500D01*
X777000Y404692D02*
Y410500D01*
X943000Y416000D02*
Y419500D01*
X933500Y429000D02*
X943000Y419500D01*
X891000Y429000D02*
X933500D01*
X827500Y380500D02*
X921500D01*
X824500Y383500D02*
X827500Y380500D01*
X921500D02*
X926000Y385000D01*
X915000Y419000D02*
X927000Y407000D01*
X885500Y434500D02*
X891000Y429000D01*
X877500Y434500D02*
X885500D01*
X872000Y429000D02*
X877500Y434500D01*
X925591Y376500D02*
X937500Y388409D01*
X825000Y376500D02*
X925591D01*
X820500Y381000D02*
X825000Y376500D01*
X820500Y381000D02*
Y402500D01*
X812500Y410500D02*
X820500Y402500D01*
X790500Y410500D02*
X812500D01*
X785500Y415500D02*
X790500Y410500D01*
X775000Y415500D02*
X785500D01*
X772000Y412500D02*
X775000Y415500D01*
X772000Y402095D02*
Y412500D01*
Y402095D02*
X778547Y395547D01*
X824500Y383500D02*
Y404000D01*
X814500Y414000D02*
X824500Y404000D01*
X787500Y419000D02*
X792500Y414000D01*
X769000Y419000D02*
X787500D01*
X767500Y417500D02*
X769000Y419000D01*
X767500Y406000D02*
Y417500D01*
X781300Y382426D02*
Y386700D01*
X752500Y415500D02*
X781300Y386700D01*
X721000Y415500D02*
X752500D01*
X716500Y411000D02*
X721000Y415500D01*
X732000Y464500D02*
X735451Y467951D01*
X794799D01*
X739000Y464500D02*
X748743D01*
X749743Y465500D02*
X785250D01*
X748743Y464500D02*
X749743Y465500D01*
X794799Y467951D02*
X820500Y442250D01*
X785250Y465500D02*
X808500Y442250D01*
X833909Y459000D02*
X845000D01*
D96*
X966091Y417000D02*
X997370D01*
X937500Y388409D02*
X966091Y417000D01*
X970000Y421500D02*
X975500Y427000D01*
X962500Y421500D02*
X970000D01*
X926000Y385000D02*
X962500Y421500D01*
X975500Y427000D02*
X997370D01*
X783500Y409000D02*
X789000Y403500D01*
X781300Y409000D02*
X783500D01*
X789000Y340000D02*
Y403500D01*
Y340000D02*
X794051Y334949D01*
X799500Y355000D02*
Y391000D01*
Y355000D02*
X818500Y336000D01*
X931000D01*
X992000Y397000D01*
X997370D01*
X794051Y334949D02*
X805000D01*
X807500Y464000D02*
X811000D01*
X813000D01*
X771000Y379500D02*
X774858Y375642D01*
Y362000D02*
Y375642D01*
X854500Y445500D02*
Y454500D01*
X818000Y459000D02*
X833909D01*
X845000D02*
X850000D01*
X854500Y454500D01*
X813000Y464000D02*
X818000Y459000D01*
X731500Y379000D02*
Y404800D01*
Y379000D02*
X736000Y374500D01*
X736500D01*
D99*
X786500Y426000D02*
X798200D01*
X801400Y422800D01*
X786500Y426000D02*
X791900Y431400D01*
X735500Y426000D02*
X786500D01*
X743000Y379500D02*
X744500D01*
X739000D02*
X743000D01*
X744500D02*
X771000D01*
X848500Y307000D02*
X997370D01*
X828000Y327500D02*
X848500Y307000D01*
X781500Y327500D02*
X828000D01*
X763000Y346000D02*
X781500Y327500D01*
X763000Y346000D02*
Y361000D01*
X744500Y379500D02*
X763000Y361000D01*
X700500Y451500D02*
X720258D01*
X729500Y442257D01*
Y432000D02*
Y442257D01*
Y432000D02*
X735500Y426000D01*
X720200Y437000D02*
Y440750D01*
Y434700D02*
Y437000D01*
X712311Y426811D02*
X720200Y434700D01*
X738500Y444000D02*
X765500D01*
X723300Y459200D02*
X738500Y444000D01*
X700500Y459200D02*
X723300D01*
X770500Y435500D02*
Y439000D01*
X765500Y444000D02*
X770500Y439000D01*
X682000Y447500D02*
X691500D01*
X674000Y439500D02*
X682000Y447500D01*
X674000Y364500D02*
Y439500D01*
Y364500D02*
X695000Y343500D01*
X747000D01*
X774500Y316000D01*
Y310500D02*
Y316000D01*
Y304500D02*
Y310500D01*
Y304500D02*
X791331Y287669D01*
X825000D01*
X771000Y379500D02*
X776500Y385000D01*
X686500Y426811D02*
X712311D01*
X686500D02*
Y437500D01*
D101*
X770500Y435500D02*
D03*
D103*
X758000Y456000D02*
D03*
D107*
X909500Y394000D02*
D03*
D112*
X997370Y427000D02*
D03*
Y417000D02*
D03*
Y397000D02*
D03*
D113*
Y307000D02*
D03*
D115*
X801400Y422800D02*
D03*
X791900Y431400D02*
D03*
X795327Y439500D02*
D03*
X791500D02*
D03*
X788000D02*
D03*
X831400Y425400D02*
D03*
X827000Y422500D02*
D03*
X944000Y377000D02*
D03*
X943000Y416000D02*
D03*
X927000Y407000D02*
D03*
X781300Y409000D02*
D03*
X777000Y404692D02*
D03*
X799500Y391000D02*
D03*
X767500Y406000D02*
D03*
X778547Y395547D02*
D03*
X732000Y464500D02*
D03*
X739000D02*
D03*
X795327Y443500D02*
D03*
X820500Y442250D02*
D03*
X808500D02*
D03*
X743000Y379500D02*
D03*
X805000Y334949D02*
D03*
X720200Y440750D02*
D03*
X700500Y447500D02*
D03*
Y451500D02*
D03*
X696000Y447500D02*
D03*
Y451500D02*
D03*
X691500Y447500D02*
D03*
Y451500D02*
D03*
X807500Y464000D02*
D03*
X811000D02*
D03*
X716500Y411000D02*
D03*
X781300Y382426D02*
D03*
X774858Y362000D02*
D03*
X854500Y445500D02*
D03*
X731500Y404800D02*
D03*
X736500Y374500D02*
D03*
X774500Y310500D02*
D03*
X917000Y394000D02*
D03*
Y386500D02*
D03*
X909500D02*
D03*
X776500Y385000D02*
D03*
X700500Y459200D02*
D03*
Y463000D02*
D03*
X696000Y459200D02*
D03*
Y463000D02*
D03*
X691500D02*
D03*
Y459200D02*
D03*
X720200Y437000D02*
D03*
X686500Y426811D02*
D03*
Y437500D02*
D03*
X825000Y287669D02*
D03*
X739000Y379500D02*
D03*
X696500Y396500D02*
D03*
X701000D02*
D03*
Y404000D02*
D03*
X696500D02*
D03*
X691500Y364500D02*
D03*
Y360500D02*
D03*
X695500D02*
D03*
Y364500D02*
D03*
M02*
