G04*
G04 #@! TF.GenerationSoftware,Altium Limited,Altium Designer,18.1.6 (161)*
G04*
G04 Layer_Color=2752767*
%FSLAX25Y25*%
%MOIN*%
G70*
G01*
G75*
%ADD138C,0.00200*%
%ADD139C,0.00267*%
%ADD140C,0.00133*%
D138*
X769700Y434700D02*
Y436300D01*
X771300D01*
Y434700D01*
X769700D01*
X759700D02*
Y436300D01*
X761300D01*
Y434700D01*
X759700D01*
X749700D02*
Y436300D01*
X751300D01*
Y434700D01*
X749700D01*
X739700D02*
Y436300D01*
X741300D01*
Y434700D01*
X739700D01*
X682500Y373700D02*
X681700Y375300D01*
X683300D01*
X682500Y373700D01*
X692500D02*
X691700Y375300D01*
X693300D01*
X692500Y373700D01*
X808700Y384700D02*
Y386300D01*
X810300D01*
Y384700D01*
X808700D01*
Y374700D02*
Y376300D01*
X810300D01*
Y374700D01*
X808700D01*
Y364700D02*
Y366300D01*
X810300D01*
Y364700D01*
X808700D01*
Y354700D02*
Y356300D01*
X810300D01*
Y354700D01*
X808700D01*
X909500Y393200D02*
X908700Y394800D01*
X910300D01*
X909500Y393200D01*
Y403200D02*
X908700Y404800D01*
X910300D01*
X909500Y403200D01*
Y413200D02*
X908700Y414800D01*
X910300D01*
X909500Y413200D01*
Y423200D02*
X908700Y424800D01*
X910300D01*
X909500Y423200D01*
Y433200D02*
X908700Y434800D01*
X910300D01*
X909500Y433200D01*
Y443200D02*
X908700Y444800D01*
X910300D01*
X909500Y443200D01*
Y453200D02*
X908700Y454800D01*
X910300D01*
X909500Y453200D01*
Y463200D02*
X908700Y464800D01*
X910300D01*
X909500Y463200D01*
X839500D02*
X838700Y464800D01*
X840300D01*
X839500Y463200D01*
Y453200D02*
X838700Y454800D01*
X840300D01*
X839500Y453200D01*
Y443200D02*
X838700Y444800D01*
X840300D01*
X839500Y443200D01*
Y433200D02*
X838700Y434800D01*
X840300D01*
X839500Y433200D01*
Y423200D02*
X838700Y424800D01*
X840300D01*
X839500Y423200D01*
Y413200D02*
X838700Y414800D01*
X840300D01*
X839500Y413200D01*
Y403200D02*
X838700Y404800D01*
X840300D01*
X839500Y403200D01*
Y393200D02*
X838700Y394800D01*
X840300D01*
X839500Y393200D01*
X965500Y431700D02*
X965900Y432100D01*
X966300D01*
X965900Y432500D01*
X966300Y432900D01*
X965900D01*
X965500Y433300D01*
X965100Y432900D01*
X964700D01*
X965100Y432500D01*
X964700Y432100D01*
X965100D01*
X965500Y431700D01*
X954500Y437700D02*
X954900Y438100D01*
X955300D01*
X954900Y438500D01*
X955300Y438900D01*
X954900D01*
X954500Y439300D01*
X954100Y438900D01*
X953700D01*
X954100Y438500D01*
X953700Y438100D01*
X954100D01*
X954500Y437700D01*
X928500Y417700D02*
X928900Y418100D01*
X929300D01*
X928900Y418500D01*
X929300Y418900D01*
X928900D01*
X928500Y419300D01*
X928100Y418900D01*
X927700D01*
X928100Y418500D01*
X927700Y418100D01*
X928100D01*
X928500Y417700D01*
X926500Y447700D02*
X926900Y448100D01*
X927300D01*
X926900Y448500D01*
X927300Y448900D01*
X926900D01*
X926500Y449300D01*
X926100Y448900D01*
X925700D01*
X926100Y448500D01*
X925700Y448100D01*
X926100D01*
X926500Y447700D01*
X945200Y463700D02*
X945600Y464500D01*
X945200Y465300D01*
X946000Y464900D01*
X946800Y465300D01*
X946400Y464500D01*
X946800Y463700D01*
X946000Y464100D01*
X945200Y463700D01*
X678100Y285100D02*
Y284700D01*
X678900D01*
Y285100D01*
X679300D01*
Y285900D01*
X678900D01*
Y286300D01*
X678100D01*
Y285900D01*
X677700D01*
Y285100D01*
X678100D01*
Y458214D02*
Y457814D01*
X678900D01*
Y458214D01*
X679300D01*
Y459014D01*
X678900D01*
Y459414D01*
X678100D01*
Y459014D01*
X677700D01*
Y458214D01*
X678100D01*
X977600D02*
Y457814D01*
X978400D01*
Y458214D01*
X978800D01*
Y459014D01*
X978400D01*
Y459414D01*
X977600D01*
Y459014D01*
X977200D01*
Y458214D01*
X977600D01*
Y285100D02*
Y284700D01*
X978400D01*
Y285100D01*
X978800D01*
Y285900D01*
X978400D01*
Y286300D01*
X977600D01*
Y285900D01*
X977200D01*
Y285100D01*
X977600D01*
X996570Y436200D02*
X996970D01*
X997370Y436600D01*
X997770Y436200D01*
X998170D01*
Y436600D01*
X997770Y437000D01*
X998170Y437400D01*
Y437800D01*
X997770D01*
X997370Y437400D01*
X996970Y437800D01*
X996570D01*
Y437400D01*
X996970Y437000D01*
X996570Y436600D01*
Y436200D01*
Y426200D02*
X996970D01*
X997370Y426600D01*
X997770Y426200D01*
X998170D01*
Y426600D01*
X997770Y427000D01*
X998170Y427400D01*
Y427800D01*
X997770D01*
X997370Y427400D01*
X996970Y427800D01*
X996570D01*
Y427400D01*
X996970Y427000D01*
X996570Y426600D01*
Y426200D01*
Y416200D02*
X996970D01*
X997370Y416600D01*
X997770Y416200D01*
X998170D01*
Y416600D01*
X997770Y417000D01*
X998170Y417400D01*
Y417800D01*
X997770D01*
X997370Y417400D01*
X996970Y417800D01*
X996570D01*
Y417400D01*
X996970Y417000D01*
X996570Y416600D01*
Y416200D01*
Y406200D02*
X996970D01*
X997370Y406600D01*
X997770Y406200D01*
X998170D01*
Y406600D01*
X997770Y407000D01*
X998170Y407400D01*
Y407800D01*
X997770D01*
X997370Y407400D01*
X996970Y407800D01*
X996570D01*
Y407400D01*
X996970Y407000D01*
X996570Y406600D01*
Y406200D01*
Y396200D02*
X996970D01*
X997370Y396600D01*
X997770Y396200D01*
X998170D01*
Y396600D01*
X997770Y397000D01*
X998170Y397400D01*
Y397800D01*
X997770D01*
X997370Y397400D01*
X996970Y397800D01*
X996570D01*
Y397400D01*
X996970Y397000D01*
X996570Y396600D01*
Y396200D01*
Y386200D02*
X996970D01*
X997370Y386600D01*
X997770Y386200D01*
X998170D01*
Y386600D01*
X997770Y387000D01*
X998170Y387400D01*
Y387800D01*
X997770D01*
X997370Y387400D01*
X996970Y387800D01*
X996570D01*
Y387400D01*
X996970Y387000D01*
X996570Y386600D01*
Y386200D01*
Y376200D02*
X996970D01*
X997370Y376600D01*
X997770Y376200D01*
X998170D01*
Y376600D01*
X997770Y377000D01*
X998170Y377400D01*
Y377800D01*
X997770D01*
X997370Y377400D01*
X996970Y377800D01*
X996570D01*
Y377400D01*
X996970Y377000D01*
X996570Y376600D01*
Y376200D01*
Y366200D02*
X996970D01*
X997370Y366600D01*
X997770Y366200D01*
X998170D01*
Y366600D01*
X997770Y367000D01*
X998170Y367400D01*
Y367800D01*
X997770D01*
X997370Y367400D01*
X996970Y367800D01*
X996570D01*
Y367400D01*
X996970Y367000D01*
X996570Y366600D01*
Y366200D01*
Y356200D02*
X996970D01*
X997370Y356600D01*
X997770Y356200D01*
X998170D01*
Y356600D01*
X997770Y357000D01*
X998170Y357400D01*
Y357800D01*
X997770D01*
X997370Y357400D01*
X996970Y357800D01*
X996570D01*
Y357400D01*
X996970Y357000D01*
X996570Y356600D01*
Y356200D01*
Y346200D02*
X996970D01*
X997370Y346600D01*
X997770Y346200D01*
X998170D01*
Y346600D01*
X997770Y347000D01*
X998170Y347400D01*
Y347800D01*
X997770D01*
X997370Y347400D01*
X996970Y347800D01*
X996570D01*
Y347400D01*
X996970Y347000D01*
X996570Y346600D01*
Y346200D01*
Y336200D02*
X996970D01*
X997370Y336600D01*
X997770Y336200D01*
X998170D01*
Y336600D01*
X997770Y337000D01*
X998170Y337400D01*
Y337800D01*
X997770D01*
X997370Y337400D01*
X996970Y337800D01*
X996570D01*
Y337400D01*
X996970Y337000D01*
X996570Y336600D01*
Y336200D01*
Y326200D02*
X996970D01*
X997370Y326600D01*
X997770Y326200D01*
X998170D01*
Y326600D01*
X997770Y327000D01*
X998170Y327400D01*
Y327800D01*
X997770D01*
X997370Y327400D01*
X996970Y327800D01*
X996570D01*
Y327400D01*
X996970Y327000D01*
X996570Y326600D01*
Y326200D01*
Y316200D02*
X996970D01*
X997370Y316600D01*
X997770Y316200D01*
X998170D01*
Y316600D01*
X997770Y317000D01*
X998170Y317400D01*
Y317800D01*
X997770D01*
X997370Y317400D01*
X996970Y317800D01*
X996570D01*
Y317400D01*
X996970Y317000D01*
X996570Y316600D01*
Y316200D01*
Y306200D02*
X996970D01*
X997370Y306600D01*
X997770Y306200D01*
X998170D01*
Y306600D01*
X997770Y307000D01*
X998170Y307400D01*
Y307800D01*
X997770D01*
X997370Y307400D01*
X996970Y307800D01*
X996570D01*
Y307400D01*
X996970Y307000D01*
X996570Y306600D01*
Y306200D01*
X697900Y352000D02*
X698700Y352800D01*
X699500Y352000D01*
X698700Y351200D01*
X697900Y352000D01*
X697800Y380500D02*
Y382100D01*
X699400D01*
Y380500D01*
X697800D01*
X698200Y380900D02*
Y381700D01*
X699000D01*
Y380900D01*
X698200D01*
X732284Y318098D02*
X731484Y319698D01*
X733084D01*
X732284Y318098D01*
Y318498D02*
X731884Y319298D01*
X732684D01*
X732284Y318498D01*
X734252Y314161D02*
X733452Y315761D01*
X735052D01*
X734252Y314161D01*
Y314561D02*
X733852Y315361D01*
X734652D01*
X734252Y314561D01*
Y306287D02*
X733452Y307887D01*
X735052D01*
X734252Y306287D01*
Y306687D02*
X733852Y307487D01*
X734652D01*
X734252Y306687D01*
X728347Y318098D02*
X727547Y319698D01*
X729147D01*
X728347Y318098D01*
Y318498D02*
X727947Y319298D01*
X728747D01*
X728347Y318498D01*
X724410Y318098D02*
X723610Y319698D01*
X725210D01*
X724410Y318098D01*
Y318498D02*
X724010Y319298D01*
X724810D01*
X724410Y318498D01*
X720473Y318098D02*
X719673Y319698D01*
X721273D01*
X720473Y318098D01*
Y318498D02*
X720073Y319298D01*
X720873D01*
X720473Y318498D01*
Y302350D02*
X719673Y303950D01*
X721273D01*
X720473Y302350D01*
Y302750D02*
X720073Y303550D01*
X720873D01*
X720473Y302750D01*
X716536Y318098D02*
X715736Y319698D01*
X717336D01*
X716536Y318098D01*
Y318498D02*
X716136Y319298D01*
X716936D01*
X716536Y318498D01*
X718504Y314161D02*
X717704Y315761D01*
X719304D01*
X718504Y314161D01*
Y314561D02*
X718104Y315361D01*
X718904D01*
X718504Y314561D01*
X716536Y302350D02*
X715736Y303950D01*
X717336D01*
X716536Y302350D01*
Y302750D02*
X716136Y303550D01*
X716936D01*
X716536Y302750D01*
X712599Y318098D02*
X711799Y319698D01*
X713399D01*
X712599Y318098D01*
Y318498D02*
X712199Y319298D01*
X712999D01*
X712599Y318498D01*
X714567Y314161D02*
X713767Y315761D01*
X715367D01*
X714567Y314161D01*
Y314561D02*
X714167Y315361D01*
X714967D01*
X714567Y314561D01*
X712599Y302350D02*
X711799Y303950D01*
X713399D01*
X712599Y302350D01*
Y302750D02*
X712199Y303550D01*
X712999D01*
X712599Y302750D01*
X708662Y318098D02*
X707862Y319698D01*
X709462D01*
X708662Y318098D01*
Y318498D02*
X708262Y319298D01*
X709062D01*
X708662Y318498D01*
X710630Y314161D02*
X709830Y315761D01*
X711430D01*
X710630Y314161D01*
Y314561D02*
X710230Y315361D01*
X711030D01*
X710630Y314561D01*
X708662Y302350D02*
X707862Y303950D01*
X709462D01*
X708662Y302350D01*
Y302750D02*
X708262Y303550D01*
X709062D01*
X708662Y302750D01*
X704725Y318098D02*
X703925Y319698D01*
X705525D01*
X704725Y318098D01*
Y318498D02*
X704325Y319298D01*
X705125D01*
X704725Y318498D01*
X706693Y314161D02*
X705893Y315761D01*
X707493D01*
X706693Y314161D01*
Y314561D02*
X706293Y315361D01*
X707093D01*
X706693Y314561D01*
X704725Y302350D02*
X703925Y303950D01*
X705525D01*
X704725Y302350D01*
Y302750D02*
X704325Y303550D01*
X705125D01*
X704725Y302750D01*
X700788Y318098D02*
X699988Y319698D01*
X701588D01*
X700788Y318098D01*
Y318498D02*
X700388Y319298D01*
X701188D01*
X700788Y318498D01*
X702756Y314161D02*
X701956Y315761D01*
X703556D01*
X702756Y314161D01*
Y314561D02*
X702356Y315361D01*
X703156D01*
X702756Y314561D01*
X700788Y302350D02*
X699988Y303950D01*
X701588D01*
X700788Y302350D01*
Y302750D02*
X700388Y303550D01*
X701188D01*
X700788Y302750D01*
X696851Y318098D02*
X696051Y319698D01*
X697651D01*
X696851Y318098D01*
Y318498D02*
X696451Y319298D01*
X697251D01*
X696851Y318498D01*
X698819Y314161D02*
X698019Y315761D01*
X699619D01*
X698819Y314161D01*
Y314561D02*
X698419Y315361D01*
X699219D01*
X698819Y314561D01*
X696851Y302350D02*
X696051Y303950D01*
X697651D01*
X696851Y302350D01*
Y302750D02*
X696451Y303550D01*
X697251D01*
X696851Y302750D01*
X692914Y318098D02*
X692114Y319698D01*
X693714D01*
X692914Y318098D01*
Y318498D02*
X692514Y319298D01*
X693314D01*
X692914Y318498D01*
X694882Y314161D02*
X694082Y315761D01*
X695682D01*
X694882Y314161D01*
Y314561D02*
X694482Y315361D01*
X695282D01*
X694882Y314561D01*
X688977Y318098D02*
X688177Y319698D01*
X689777D01*
X688977Y318098D01*
Y318498D02*
X688577Y319298D01*
X689377D01*
X688977Y318498D01*
X690945Y314161D02*
X690145Y315761D01*
X691745D01*
X690945Y314161D01*
Y314561D02*
X690545Y315361D01*
X691345D01*
X690945Y314561D01*
X685040Y318098D02*
X684240Y319698D01*
X685840D01*
X685040Y318098D01*
Y318498D02*
X684640Y319298D01*
X685440D01*
X685040Y318498D01*
X687008Y314161D02*
X686208Y315761D01*
X687808D01*
X687008Y314161D01*
Y314561D02*
X686608Y315361D01*
X687408D01*
X687008Y314561D01*
X685040Y302350D02*
X684240Y303950D01*
X685840D01*
X685040Y302350D01*
Y302750D02*
X684640Y303550D01*
X685440D01*
X685040Y302750D01*
D139*
X758800Y456000D02*
G03*
X758800Y456000I-800J0D01*
G01*
X738800D02*
G03*
X738800Y456000I-800J0D01*
G01*
X780300Y344500D02*
G03*
X780300Y344500I-800J0D01*
G01*
X800300D02*
G03*
X800300Y344500I-800J0D01*
G01*
X846300Y346500D02*
G03*
X846300Y346500I-800J0D01*
G01*
Y326500D02*
G03*
X846300Y326500I-800J0D01*
G01*
X821300Y316500D02*
G03*
X821300Y316500I-800J0D01*
G01*
Y296500D02*
G03*
X821300Y296500I-800J0D01*
G01*
X795300Y417000D02*
G03*
X795300Y417000I-800J0D01*
G01*
X796127Y439500D02*
G03*
X796127Y439500I-800J0D01*
G01*
X792300D02*
G03*
X792300Y439500I-800J0D01*
G01*
X788800D02*
G03*
X788800Y439500I-800J0D01*
G01*
X952300Y342500D02*
G03*
X952300Y342500I-800J0D01*
G01*
X955300Y354113D02*
G03*
X955300Y354113I-800J0D01*
G01*
X977800Y354000D02*
G03*
X977800Y354000I-800J0D01*
G01*
X961300Y354113D02*
G03*
X961300Y354113I-800J0D01*
G01*
X966800D02*
G03*
X966800Y354113I-800J0D01*
G01*
X972141Y354000D02*
G03*
X972141Y354000I-800J0D01*
G01*
X977800Y342500D02*
G03*
X977800Y342500I-800J0D01*
G01*
X972141D02*
G03*
X972141Y342500I-800J0D01*
G01*
X966800D02*
G03*
X966800Y342500I-800J0D01*
G01*
X961300D02*
G03*
X961300Y342500I-800J0D01*
G01*
X829300Y434500D02*
G03*
X829300Y434500I-800J0D01*
G01*
X737800Y404500D02*
G03*
X737800Y404500I-800J0D01*
G01*
X736300Y411000D02*
G03*
X736300Y411000I-800J0D01*
G01*
X796127Y443500D02*
G03*
X796127Y443500I-800J0D01*
G01*
X743800Y379500D02*
G03*
X743800Y379500I-800J0D01*
G01*
X721000Y440750D02*
G03*
X721000Y440750I-800J0D01*
G01*
X822749Y434051D02*
G03*
X822749Y434051I-800J0D01*
G01*
X696800Y330472D02*
G03*
X696800Y330472I-800J0D01*
G01*
Y336000D02*
G03*
X696800Y336000I-800J0D01*
G01*
Y325500D02*
G03*
X696800Y325500I-800J0D01*
G01*
X701800Y330500D02*
G03*
X701800Y330500I-800J0D01*
G01*
Y325500D02*
G03*
X701800Y325500I-800J0D01*
G01*
Y336000D02*
G03*
X701800Y336000I-800J0D01*
G01*
X777300Y385000D02*
G03*
X777300Y385000I-800J0D01*
G01*
X745800Y325500D02*
G03*
X745800Y325500I-800J0D01*
G01*
X752800Y325000D02*
G03*
X752800Y325000I-800J0D01*
G01*
X710800Y359500D02*
G03*
X710800Y359500I-800J0D01*
G01*
X724557Y381500D02*
G03*
X724557Y381500I-800J0D01*
G01*
X937056Y355000D02*
G03*
X937056Y355000I-800J0D01*
G01*
X721000Y437000D02*
G03*
X721000Y437000I-800J0D01*
G01*
X735300Y362500D02*
G03*
X735300Y362500I-800J0D01*
G01*
X739800Y379500D02*
G03*
X739800Y379500I-800J0D01*
G01*
X750800Y387000D02*
G03*
X750800Y387000I-800J0D01*
G01*
X711395Y444500D02*
G03*
X711395Y444500I-800J0D01*
G01*
X707300D02*
G03*
X707300Y444500I-800J0D01*
G01*
Y440500D02*
G03*
X707300Y440500I-800J0D01*
G01*
X711395D02*
G03*
X711395Y440500I-800J0D01*
G01*
X794374Y379000D02*
G03*
X794374Y379000I-800J0D01*
G01*
X779595Y369500D02*
G03*
X779595Y369500I-800J0D01*
G01*
X783800Y371000D02*
G03*
X783800Y371000I-800J0D01*
G01*
X780301Y309012D02*
G03*
X780301Y309012I-800J0D01*
G01*
X809847Y402500D02*
G03*
X809847Y402500I-800J0D01*
G01*
X860703Y346989D02*
G03*
X860703Y346989I-800J0D01*
G01*
X956556Y340256D02*
G03*
X956556Y340256I-800J0D01*
G01*
X918300Y288000D02*
G03*
X918300Y288000I-800J0D01*
G01*
X908300Y287500D02*
G03*
X908300Y287500I-800J0D01*
G01*
X902800Y288000D02*
G03*
X902800Y288000I-800J0D01*
G01*
D140*
X794900Y417000D02*
G03*
X794900Y417000I-400J0D01*
G01*
X795727Y439500D02*
G03*
X795727Y439500I-400J0D01*
G01*
X791900D02*
G03*
X791900Y439500I-400J0D01*
G01*
X788400D02*
G03*
X788400Y439500I-400J0D01*
G01*
X951900Y342500D02*
G03*
X951900Y342500I-400J0D01*
G01*
X954900Y354113D02*
G03*
X954900Y354113I-400J0D01*
G01*
X977400Y354000D02*
G03*
X977400Y354000I-400J0D01*
G01*
X960900Y354113D02*
G03*
X960900Y354113I-400J0D01*
G01*
X966400D02*
G03*
X966400Y354113I-400J0D01*
G01*
X971741Y354000D02*
G03*
X971741Y354000I-400J0D01*
G01*
X977400Y342500D02*
G03*
X977400Y342500I-400J0D01*
G01*
X971741D02*
G03*
X971741Y342500I-400J0D01*
G01*
X966400D02*
G03*
X966400Y342500I-400J0D01*
G01*
X960900D02*
G03*
X960900Y342500I-400J0D01*
G01*
X828900Y434500D02*
G03*
X828900Y434500I-400J0D01*
G01*
X737400Y404500D02*
G03*
X737400Y404500I-400J0D01*
G01*
X735900Y411000D02*
G03*
X735900Y411000I-400J0D01*
G01*
X795727Y443500D02*
G03*
X795727Y443500I-400J0D01*
G01*
X743400Y379500D02*
G03*
X743400Y379500I-400J0D01*
G01*
X720600Y440750D02*
G03*
X720600Y440750I-400J0D01*
G01*
X822349Y434051D02*
G03*
X822349Y434051I-400J0D01*
G01*
X696400Y330472D02*
G03*
X696400Y330472I-400J0D01*
G01*
Y336000D02*
G03*
X696400Y336000I-400J0D01*
G01*
Y325500D02*
G03*
X696400Y325500I-400J0D01*
G01*
X701400Y330500D02*
G03*
X701400Y330500I-400J0D01*
G01*
Y325500D02*
G03*
X701400Y325500I-400J0D01*
G01*
Y336000D02*
G03*
X701400Y336000I-400J0D01*
G01*
X776900Y385000D02*
G03*
X776900Y385000I-400J0D01*
G01*
X745400Y325500D02*
G03*
X745400Y325500I-400J0D01*
G01*
X752400Y325000D02*
G03*
X752400Y325000I-400J0D01*
G01*
X710400Y359500D02*
G03*
X710400Y359500I-400J0D01*
G01*
X724157Y381500D02*
G03*
X724157Y381500I-400J0D01*
G01*
X936656Y355000D02*
G03*
X936656Y355000I-400J0D01*
G01*
X720600Y437000D02*
G03*
X720600Y437000I-400J0D01*
G01*
X734900Y362500D02*
G03*
X734900Y362500I-400J0D01*
G01*
X739400Y379500D02*
G03*
X739400Y379500I-400J0D01*
G01*
X750400Y387000D02*
G03*
X750400Y387000I-400J0D01*
G01*
X710994Y444500D02*
G03*
X710994Y444500I-400J0D01*
G01*
X706900D02*
G03*
X706900Y444500I-400J0D01*
G01*
Y440500D02*
G03*
X706900Y440500I-400J0D01*
G01*
X710994D02*
G03*
X710994Y440500I-400J0D01*
G01*
X793974Y379000D02*
G03*
X793974Y379000I-400J0D01*
G01*
X779195Y369500D02*
G03*
X779195Y369500I-400J0D01*
G01*
X783400Y371000D02*
G03*
X783400Y371000I-400J0D01*
G01*
X779901Y309012D02*
G03*
X779901Y309012I-400J0D01*
G01*
X809447Y402500D02*
G03*
X809447Y402500I-400J0D01*
G01*
X860303Y346989D02*
G03*
X860303Y346989I-400J0D01*
G01*
X956156Y340256D02*
G03*
X956156Y340256I-400J0D01*
G01*
X917900Y288000D02*
G03*
X917900Y288000I-400J0D01*
G01*
X907900Y287500D02*
G03*
X907900Y287500I-400J0D01*
G01*
X902400Y288000D02*
G03*
X902400Y288000I-400J0D01*
G01*
M02*
