M48
;Layer_Color=9474304
;FILE_FORMAT=2:5
INCH,TZ
;TYPE=PLATED
T1F00S00C0.01575
T2F00S00C0.01600
T4F00S00C0.03100
T5F00S00C0.03543
T7F00S00C0.04016
T8F00S00C0.04331
T9F00S00C0.05118
T10F00S00C0.05906
T11F00S00C0.12000
%
T01
X685040Y303150
X696851
X700788
X704725
X708662
X712599
X716536
X720473
X734252Y307087
Y314961
X732284Y318898
X728347
X724410
X720473
X716536
X712599
X708662
X704725
X700788
X696851
X692914
X688977
X685040
X687008Y314961
X690945
X694882
X698819
X702756
X706693
X710630
X714567
X718504
T02
X902000Y288000
X907500Y287500
X917500Y288000
X779500Y309012
X752000Y325000
X745000Y325500
X701000
X696000
Y330472
X701000Y330500
Y336000
X696000
X710000Y359500
X734500Y362500
X739000Y379500
X743000
X750000Y387000
X776500Y385000
X778795Y369500
X723758Y381500
X737000Y404500
X735500Y411000
X720200Y437000
Y440750
X710595Y440500
Y444500
X706500
Y440500
X788000Y439500
X791500
X795327
Y443500
X794500Y417000
X809047Y402500
X793574Y379000
X783000Y371000
X859903Y346989
X936256Y355000
X828500Y434500
X821949Y434051
X954500Y354113
X960500
X966000
X971341Y354000
X977000
Y342500
X971341
X966000
X960500
X955756Y340256
X951500Y342500
T04
X820500Y296500
X779500Y344500
X758000Y456000
X738000
X799500Y344500
X845500Y346500
Y326500
X820500Y316500
T05
X682500Y374500
X692500
X839500Y394000
Y404000
Y414000
Y424000
Y434000
Y444000
Y454000
Y464000
X909500
Y454000
Y444000
Y434000
Y424000
Y414000
Y404000
Y394000
T07
X740500Y435500
X750500
X760500
X770500
X809500Y385500
Y375500
Y365500
Y355500
T08
X997370Y307000
Y317000
Y327000
Y337000
Y347000
Y357000
Y367000
Y377000
Y387000
Y397000
Y407000
Y417000
Y427000
Y437000
T09
X698700Y352000
T10
X698600Y381300
T11
X978000Y285500
X678500
Y458614
X978000
M30
