G04*
G04 #@! TF.GenerationSoftware,Altium Limited,Altium Designer,18.1.6 (161)*
G04*
G04 Layer_Color=255*
%FSLAX25Y25*%
%MOIN*%
G70*
G01*
G75*
G04:AMPARAMS|DCode=25|XSize=60mil|YSize=60mil|CornerRadius=15mil|HoleSize=0mil|Usage=FLASHONLY|Rotation=90.000|XOffset=0mil|YOffset=0mil|HoleType=Round|Shape=RoundedRectangle|*
%AMROUNDEDRECTD25*
21,1,0.06000,0.03000,0,0,90.0*
21,1,0.03000,0.06000,0,0,90.0*
1,1,0.03000,0.01500,0.01500*
1,1,0.03000,0.01500,-0.01500*
1,1,0.03000,-0.01500,-0.01500*
1,1,0.03000,-0.01500,0.01500*
%
%ADD25ROUNDEDRECTD25*%
%ADD26R,0.06000X0.06000*%
%ADD27R,0.03740X0.03937*%
%ADD31R,0.03937X0.03740*%
%ADD32R,0.05906X0.02362*%
%ADD33R,0.03543X0.02362*%
%ADD101R,0.05984X0.05984*%
%ADD102C,0.05984*%
%ADD103C,0.07500*%
%ADD104C,0.05906*%
%ADD105R,0.05906X0.05906*%
%ADD106R,0.05984X0.05984*%
%ADD107C,0.07087*%
%ADD108O,0.08000X0.12000*%
%ADD109O,0.12000X0.08000*%
%ADD110O,0.15000X0.08000*%
%ADD111C,0.15000*%
%ADD112C,0.06299*%
%ADD113R,0.06299X0.06299*%
%ADD117R,0.09843X0.15748*%
%ADD118R,0.01575X0.07874*%
%ADD119R,0.07480X0.07480*%
%ADD120R,0.06142X0.10276*%
%ADD121R,0.03543X0.05315*%
G04:AMPARAMS|DCode=122|XSize=98.43mil|YSize=169.29mil|CornerRadius=24.61mil|HoleSize=0mil|Usage=FLASHONLY|Rotation=180.000|XOffset=0mil|YOffset=0mil|HoleType=Round|Shape=RoundedRectangle|*
%AMROUNDEDRECTD122*
21,1,0.09843,0.12008,0,0,180.0*
21,1,0.04921,0.16929,0,0,180.0*
1,1,0.04921,-0.02461,0.06004*
1,1,0.04921,0.02461,0.06004*
1,1,0.04921,0.02461,-0.06004*
1,1,0.04921,-0.02461,-0.06004*
%
%ADD122ROUNDEDRECTD122*%
%ADD123R,0.04724X0.02362*%
D25*
X700500Y449201D02*
D03*
D26*
Y461799D02*
D03*
D27*
X691500Y459200D02*
D03*
Y451800D02*
D03*
X713500Y416300D02*
D03*
Y423700D02*
D03*
X799500Y388700D02*
D03*
Y381300D02*
D03*
X729500Y381800D02*
D03*
Y389200D02*
D03*
X798000Y415700D02*
D03*
Y408300D02*
D03*
X894000Y426000D02*
D03*
Y418600D02*
D03*
D31*
X720200Y466500D02*
D03*
X712800D02*
D03*
X761800Y427000D02*
D03*
X769200D02*
D03*
X809200Y400500D02*
D03*
X801800D02*
D03*
X774000Y385000D02*
D03*
X766600D02*
D03*
D32*
X710595Y460217D02*
D03*
Y452737D02*
D03*
X722405D02*
D03*
Y456477D02*
D03*
Y460217D02*
D03*
D33*
X729499Y452851D02*
D03*
X729500Y460000D02*
D03*
X719500Y436500D02*
D03*
X719499Y429351D02*
D03*
X713500D02*
D03*
X713500Y436500D02*
D03*
X719500Y417203D02*
D03*
X719500Y424352D02*
D03*
X923256Y349500D02*
D03*
X923256Y356649D02*
D03*
X929756Y349500D02*
D03*
X929756Y356649D02*
D03*
X936256Y349500D02*
D03*
X936256Y356649D02*
D03*
D101*
X770500Y435500D02*
D03*
D102*
X760500D02*
D03*
X750500D02*
D03*
X740500D02*
D03*
X809500Y375500D02*
D03*
Y365500D02*
D03*
Y355500D02*
D03*
D103*
X758000Y456000D02*
D03*
X738000D02*
D03*
X779500Y344500D02*
D03*
X799500D02*
D03*
X845500Y346500D02*
D03*
Y326500D02*
D03*
X820500Y316500D02*
D03*
Y296500D02*
D03*
D104*
X682500Y374500D02*
D03*
D105*
X692500D02*
D03*
D106*
X809500Y385500D02*
D03*
D107*
X909500Y394000D02*
D03*
Y404000D02*
D03*
Y414000D02*
D03*
Y424000D02*
D03*
Y434000D02*
D03*
Y444000D02*
D03*
Y454000D02*
D03*
Y464000D02*
D03*
X839500D02*
D03*
Y454000D02*
D03*
Y444000D02*
D03*
Y434000D02*
D03*
Y424000D02*
D03*
Y414000D02*
D03*
Y404000D02*
D03*
Y394000D02*
D03*
D108*
X965500Y432500D02*
D03*
X954500Y438500D02*
D03*
X926500Y448500D02*
D03*
D109*
X928500Y418500D02*
D03*
D110*
X946000Y464500D02*
D03*
D111*
X678500Y285500D02*
D03*
Y458614D02*
D03*
X978000D02*
D03*
Y285500D02*
D03*
D112*
X997370Y437000D02*
D03*
Y427000D02*
D03*
Y417000D02*
D03*
Y407000D02*
D03*
Y397000D02*
D03*
Y387000D02*
D03*
Y377000D02*
D03*
Y367000D02*
D03*
Y357000D02*
D03*
Y347000D02*
D03*
Y337000D02*
D03*
Y327000D02*
D03*
Y317000D02*
D03*
D113*
Y307000D02*
D03*
D117*
X698600Y400100D02*
D03*
Y330700D02*
D03*
D118*
X869831Y453816D02*
D03*
X872390D02*
D03*
X874949D02*
D03*
X877508D02*
D03*
X880149D02*
D03*
D119*
X859398Y465500D02*
D03*
X890500D02*
D03*
D120*
X893772Y280472D02*
D03*
Y330472D02*
D03*
X955898Y280472D02*
D03*
Y330472D02*
D03*
D121*
X924756Y340256D02*
D03*
X929756D02*
D03*
X934756D02*
D03*
X939756D02*
D03*
X944756D02*
D03*
X949756D02*
D03*
D122*
X781000Y453000D02*
D03*
X810000Y453000D02*
D03*
D123*
X863990Y441000D02*
D03*
Y436000D02*
D03*
Y431000D02*
D03*
Y426000D02*
D03*
Y421000D02*
D03*
Y416000D02*
D03*
Y411000D02*
D03*
Y406000D02*
D03*
X886037D02*
D03*
Y411000D02*
D03*
Y416000D02*
D03*
Y421000D02*
D03*
Y426000D02*
D03*
Y431000D02*
D03*
Y436000D02*
D03*
Y441000D02*
D03*
M02*
