M48
;Layer_Color=9474304
;FILE_FORMAT=2:5
INCH,TZ
;TYPE=PLATED
T2F00S00C0.01600
%
T02
X825000Y287669
X774500Y310500
X774858Y362000
X778547Y395547
X777000Y404692
X767500Y406000
X731500Y404800
X736500Y374500
X695500Y364500
X691500
Y360500
X695500
X686500Y426811
Y437500
X691500Y447500
Y451500
X696000
Y447500
X700500
Y451500
X732000Y464500
X739000
X807500Y464000
X811000
X808500Y442250
X820500
X801400Y422800
X799500Y391000
X781300Y382426
Y409000
X805000Y334949
X909500Y386500
X917000
Y394000
M30
