G04*
G04 #@! TF.GenerationSoftware,Altium Limited,Altium Designer,18.1.6 (161)*
G04*
G04 Layer_Color=128*
%FSLAX25Y25*%
%MOIN*%
G70*
G01*
G75*
%ADD138C,0.00200*%
D138*
X800600Y422800D02*
X802200D01*
X801400Y422000D02*
Y423600D01*
X780500Y409000D02*
X782100D01*
X781300Y408200D02*
Y409800D01*
X776200Y404692D02*
X777800D01*
X777000Y403892D02*
Y405492D01*
X798700Y391000D02*
X800300D01*
X799500Y390200D02*
Y391800D01*
X766700Y406000D02*
X768300D01*
X767500Y405200D02*
Y406800D01*
X777747Y395547D02*
X779347D01*
X778547Y394747D02*
Y396347D01*
X731200Y464500D02*
X732800D01*
X732000Y463700D02*
Y465300D01*
X738200Y464500D02*
X739800D01*
X739000Y463700D02*
Y465300D01*
X819700Y442250D02*
X821300D01*
X820500Y441450D02*
Y443050D01*
X807700Y442250D02*
X809300D01*
X808500Y441450D02*
Y443050D01*
X804200Y334949D02*
X805800D01*
X805000Y334149D02*
Y335749D01*
X699700Y447500D02*
X701300D01*
X700500Y446700D02*
Y448300D01*
X699700Y451500D02*
X701300D01*
X700500Y450700D02*
Y452300D01*
X695200Y447500D02*
X696800D01*
X696000Y446700D02*
Y448300D01*
X695200Y451500D02*
X696800D01*
X696000Y450700D02*
Y452300D01*
X690700Y447500D02*
X692300D01*
X691500Y446700D02*
Y448300D01*
X690700Y451500D02*
X692300D01*
X691500Y450700D02*
Y452300D01*
X806700Y464000D02*
X808300D01*
X807500Y463200D02*
Y464800D01*
X810200Y464000D02*
X811800D01*
X811000Y463200D02*
Y464800D01*
X780500Y382426D02*
X782100D01*
X781300Y381626D02*
Y383226D01*
X774058Y362000D02*
X775658D01*
X774858Y361200D02*
Y362800D01*
X730700Y404800D02*
X732300D01*
X731500Y404000D02*
Y405600D01*
X735700Y374500D02*
X737300D01*
X736500Y373700D02*
Y375300D01*
X773700Y310500D02*
X775300D01*
X774500Y309700D02*
Y311300D01*
X916200Y394000D02*
X917800D01*
X917000Y393200D02*
Y394800D01*
X916200Y386500D02*
X917800D01*
X917000Y385700D02*
Y387300D01*
X908700Y386500D02*
X910300D01*
X909500Y385700D02*
Y387300D01*
X685700Y426811D02*
X687300D01*
X686500Y426011D02*
Y427611D01*
X685700Y437500D02*
X687300D01*
X686500Y436700D02*
Y438300D01*
X824200Y287669D02*
X825800D01*
X825000Y286869D02*
Y288469D01*
X690700Y364500D02*
X692300D01*
X691500Y363700D02*
Y365300D01*
X690700Y360500D02*
X692300D01*
X691500Y359700D02*
Y361300D01*
X694700Y360500D02*
X696300D01*
X695500Y359700D02*
Y361300D01*
X694700Y364500D02*
X696300D01*
X695500Y363700D02*
Y365300D01*
M02*
