M48
;Layer_Color=9474304
;FILE_FORMAT=2:5
INCH,TZ
;TYPE=PLATED
T2F00S00C0.01600
%
T02
X785339Y279599
X790700Y292800
X803880Y283254
X856880Y277000
X856380Y295620
X886000Y277300
X779500Y400000
X776500Y415000
X771400
X752500Y413000
X746000Y426811
X767000Y445000
X734500Y387673
X735500Y383500
X723500Y391610
X713500Y391500
X729000Y364500
X799500Y397500
X796022Y401453
X814953Y401500
X819500Y402500
X788826Y424500
X791999Y428000
X788000Y431000
X785500Y434051
X845500Y372500
X865000Y377000
X859000Y360142
X861000Y321500
X871513Y325000
X892500
Y321500
X896000
Y325000
Y328500
Y332000
X892500
Y328500
X893000Y353500
X899000Y355000
X829380Y322500
M30
